<svg baseProfile="full" height="44" version="1.1" viewBox="-1 -11 118 22" width="236" xmlns="http://www.w3.org/2000/svg" xmlns:ev="http://www.w3.org/2001/xml-events" xmlns:xlink="http://www.w3.org/1999/xlink"><defs /><defs><path d="M-5 5-5-1-3-1-3 3-1 3-1-3-5-3-5-5 1-5 1 3 3 3 3-1 5-1 5 5zM-1 9-1 7 5 7 5 9z" id="yIYuBd" transform="translate(0,0) skewX(-5)" /><path d="M-3 3-1 3-1-5 1-5 1 5-5 5-5-1-3-1z" id="UGItwz" transform="translate(0,0) skewX(-5)" /><path d="M-1 5-1-1 1-1 1 3 5 3 5 5zM 3 7 3 9 1 9 1 7z" id="EAUHD" transform="translate(0,0) skewX(-5)" /><path d="M-1 5-1 3 9 3 9 5zM-5-5-3-5-3 9-5 9zM-1-3-1-5 1-5 1-3zM 5 1-1 1-1-1 3-1 3-5 5-5z" id="WPUVnY" transform="translate(0,0) skewX(-5)" /><path d="M 1 8 1 9-1 9-1 3 1 3 1 6 3 4 0 1-1 1-1-1 1-1 1 0 4 3 5 3 5 5 4 5z" id="EAVEK" transform="translate(0,0) skewX(-5)" /><path d="M 5 1 4 1 3 2 4 3 5 3 5 5 3 5 3 4 2 3 1 4 1 5-1 5-1 3 0 3 1 2 0 1-1 1-1-1 5-1zM 5-5 5-3-1-3-1-5z" id="twWVNW" transform="translate(0,0) skewX(-5)" /><path d="M-3-3-3-1-1-1-1-3zM-5 7-4 7-2 5-5 5-5 3-1 3-1 1-5 1-5-5 1-5 1 5 0 5-3 8-3 9-5 9z" id="ZuWVxv" transform="translate(0,0) skewX(-5)" /><path d="M 5 1-1 1-1-1 5-1zM-1 5-1 3 1 3 1 5zM 1-5 1-3-1-3-1-5zM 3-5 5-5 5-3 3-3zM 3 3 5 3 5 5 3 5z" id="twWVJG" transform="translate(0,0) skewX(-5)" /><path d="M-4 5-5 5-5 3-4 3-1 0-1-2-3 0-3 1-5 1-5-1-4-1-1-4-1-5 1-5 1 1 0 1-3 4 0 7 1 7 1 9-1 9-1 8z" id="UjWXSi" transform="translate(0,0) skewX(-5)" /><path d="M 7-4 7-5 9-5 9-3 8-3 5 0 5 5 3 5 3 1 0 1-3 4-3 5-5 5-5 3-4 3-2 1-5 1-5-1-1-1-1-5 1-5 1-1 4-1zM-3-3-5-3-5-5-3-5z" id="PYEwFm" transform="translate(0,0) skewX(-5)" /><path d="M 3-1 5-1 5 5-1 5-1-1 1-1 1 3 3 3zM 3 9 3 7 5 7 5 9zM-1 7 1 7 1 9-1 9z" id="EAURL" transform="translate(0,0) skewX(-5)" /><path d="M 5 1-1 1-1-1 5-1zM-1 5-1 3 5 3 5 5zM-1 9-1 7 5 7 5 9z" id="EAVOG" transform="translate(0,0) skewX(-5)" /></defs><g fill="black" stroke="black" stroke-linejoin="round" stroke-width="0"><use x="6" xlink:href="#yIYuBd" y="0" /><use x="18" xlink:href="#UGItwz" y="0" /><use x="26" xlink:href="#UjWXSi" y="0" /><use x="30" xlink:href="#EAUHD" y="0" /><use x="42" xlink:href="#WPUVnY" y="0" /><use x="54" xlink:href="#EAVEK" y="0" /><use x="66" xlink:href="#PYEwFm" y="0" /><use x="78" xlink:href="#twWVNW" y="0" /><use x="90" xlink:href="#ZuWVxv" y="0" /><use x="94" xlink:href="#twWVJG" y="0" /><use x="102" xlink:href="#EAURL" y="0" /><use x="110" xlink:href="#EAVOG" y="0" /></g></svg>