<svg xmlns="http://www.w3.org/2000/svg" version="1.0" width="120.2pt" height="19.200000pt" viewBox="0 0 120.2 19.200000" preserveAspectRatio="xMidYMid meet">
<metadata>
Created by potrace 1.13, written by Peter Selinger 2001-2015
</metadata>
<g transform="translate(0.0,19.200000) scale(0.048000,-0.048000) skewX(5)" fill="#000000" stroke="none">
<path d="M1620 340 l0 -40 -40 0 -40 0 0 -40 0 -40 -40 0 -40 0 0 -20 0 -20 60 0 60 0 0 40 0 40 20 0 20 0 0 -32 0 -32 -27 -28 -27 -28 -13 0 -13 0 0 -20 0 -20 20 0 20 0 0 13 0 13 30 29 30 29 30 -29 30 -29 0 -13 0 -13 20 0 20 0 0 20 0 20 -13 0 c-8 0 -22 9 -32 20 l-18 20 31 0 32 0 0 40 0 40 40 0 40 0 0 20 0 20 -60 0 -60 0 0 -40 0 -40 -20 0 -20 0 0 80 0 80 -20 0 -20 0 0 -40z"/>
<path d="M20 280 l0 -20 100 0 100 0 0 20 0 20 -100 0 -100 0 0 -20z"/>
<path d="M420 160 l0 -140 20 0 20 0 0 140 0 140 -20 0 -20 0 0 -140z"/>
<path d="M500 280 l0 -20 20 0 20 0 0 20 0 20 -20 0 -20 0 0 -20z"/>
<path d="M580 260 l0 -40 -40 0 -40 0 0 -20 0 -20 60 0 60 0 0 60 0 60 -20 0 -20 0 0 -40z"/>
<path d="M900 280 l0 -20 40 0 40 0 0 -20 0 -20 -40 0 -40 0 0 -20 0 -20 40 0 40 0 0 -20 0 -20 -40 0 -40 0 0 -20 0 -20 60 0 60 0 0 80 0 80 -20 0 -20 0 0 20 0 20 -40 0 -40 0 0 -20z"/>
<path d="M1060 260 l0 -40 20 0 20 0 0 20 0 20 20 0 20 0 0 -60 0 -60 -20 0 -20 0 0 -20 0 -20 40 0 40 0 0 100 0 100 -60 0 -60 0 0 -40z"/>
<path d="M1220 280 l0 -20 12 0 c7 0 25 -12 40 -27 l28 -27 0 -33 0 -33 -20 0 -20 0 0 20 0 20 -20 0 -20 0 0 -40 0 -40 60 0 60 0 0 60 0 60 -13 0 c-8 0 -22 9 -32 20 l-18 20 31 0 32 0 0 20 0 20 -60 0 -60 0 0 -20z"/>
<path d="M2060 280 l0 -20 12 0 11 0 -18 -20 c-10 -11 -24 -20 -32 -20 l-13 0 0 -20 0 -20 20 0 20 0 0 13 0 13 28 27 28 27 32 0 32 0 0 -60 0 -60 -40 0 -40 0 0 -20 0 -20 60 0 60 0 0 100 0 100 -80 0 -80 0 0 -20z"/>
<path d="M20 200 l0 -20 60 0 60 0 0 20 0 20 -60 0 -60 0 0 -20z"/>
<path d="M180 180 l0 -40 -80 0 -80 0 0 -20 0 -20 100 0 100 0 0 60 0 60 -20 0 -20 0 0 -40z"/>
<path d="M260 160 l0 -60 60 0 60 0 0 20 0 20 -40 0 -40 0 0 40 0 40 -20 0 -20 0 0 -60z"/>
<path d="M740 200 l0 -20 13 0 13 0 29 -30 29 -30 -22 -22 -22 -22 0 32 0 32 -20 0 -20 0 0 -60 0 -60 20 0 20 0 0 13 0 13 28 27 c15 15 33 27 40 27 l12 0 0 20 0 20 -13 0 -13 0 -27 28 c-15 15 -27 33 -27 40 l0 12 -20 0 -20 0 0 -20z"/>
<path d="M1380 200 l0 -20 20 0 20 0 0 20 0 20 -20 0 -20 0 0 -20z"/>
<path d="M1860 160 l0 -60 60 0 60 0 0 60 0 60 -20 0 -20 0 0 -40 0 -40 -20 0 -20 0 0 40 0 40 -20 0 -20 0 0 -60z"/>
<path d="M2100 200 l0 -20 20 0 20 0 0 20 0 20 -20 0 -20 0 0 -20z"/>
<path d="M2260 200 l0 -20 60 0 60 0 0 20 0 20 -60 0 -60 0 0 -20z"/>
<path d="M500 120 l0 -20 100 0 100 0 0 20 0 20 -100 0 -100 0 0 -20z"/>
<path d="M2260 120 l0 -20 60 0 60 0 0 20 0 20 -60 0 -60 0 0 -20z"/>
<path d="M300 40 l0 -20 20 0 20 0 0 20 0 20 -20 0 -20 0 0 -20z"/>
<path d="M1860 40 l0 -20 20 0 20 0 0 20 0 20 -20 0 -20 0 0 -20z"/>
<path d="M1940 40 l0 -20 20 0 20 0 0 20 0 20 -20 0 -20 0 0 -20z"/>
<path d="M2260 40 l0 -20 60 0 60 0 0 20 0 20 -60 0 -60 0 0 -20z"/>
</g>
</svg>