<svg baseProfile="full" height="44" version="1.1" viewBox="-1 -11 262 22" width="524" xmlns="http://www.w3.org/2000/svg" xmlns:ev="http://www.w3.org/2001/xml-events" xmlns:xlink="http://www.w3.org/1999/xlink"><defs /><defs><path d="M-5 5-5 3 3 3 3 1-1 1-1-5 3-5 3-7-5-7-5-9 5-9 5-3 1-3 1-1 5-1 5 5zM-3-3-5-3-5-5-3-5z" id="usWPiu" transform="translate(0,0) skewX(-5)" /><path d="M-5 5-5-1-1-1-1-3-5-3-5-9 5-9 5-7-3-7-3-5 1-5 1 1-3 1-3 3 5 3 5 5zM 5-1 5 1 3 1 3-1z" id="xtSUqu" transform="translate(0,0) skewX(-5)" /><path d="M 1 8 1 9-1 9-1 3 1 3 1 6 3 4 0 1-1 1-1-1 1-1 1 0 4 3 5 3 5 5 4 5z" id="EAVEK" transform="translate(0,0) skewX(-5)" /><path d="M 5 5 3 5 3 1-1 1-1-1 5-1zM 3 7 3 9 1 9 1 7z" id="EAVOQ" transform="translate(0,0) skewX(-5)" /><path d="M 1 0 1 3 3 3 3 5-3 5-3 3-1 3-1 0-4-3-5-3-5-5 5-5 5-3 4-3zM 3-9 5-9 5-7 3-7zM-1-9 1-9 1-7-1-7zM-2-3 0-1 2-3z" id="XxKXfZ" transform="translate(0,0) skewX(-5)" /><path d="M-9 5-9-5-7-5-7 3-1 3-1-5 5-5 5 1 4 1 1 4 1 5zM-5 1-5-1-3-1-3 1zM 3-3 1-3 1 2 3 0z" id="txCuJk" transform="translate(0,0) skewX(-5)" /><path d="M 5 5-1 5-1 3 3 3 3 1-1 1-1-1 5-1zM 3 9 3 7 5 7 5 9zM-1 7 1 7 1 9-1 9z" id="EAVeE" transform="translate(0,0) skewX(-5)" /><path d="M-1 5-1-1 3-1 3-3-1-3-1-9 1-9 1-5 5-5 5 1 1 1 1 5z" id="txSVVP" transform="translate(0,0) skewX(-5)" /><path d="M-1 5-1 3 2 3 0 1-3 4-3 9-5 9-5-1-3-1-3 2-1 0-1-1 1-1 1 0 3 2 3-3-5-3-5-5 5-5 5 5z" id="ydGofQ" transform="translate(0,0) skewX(-5)" /><path d="M-5 5-5 3-4 3-2 1-5 1-5-1-4-1-2-3-5-3-5-9-3-9-3-5 1-5 1-3 0-3-2-1 9-1 9 1 8 1 5 4 5 5zM 3 3 3 1 1 1 1 3zM 6 1 5 1 5 2zM-1 2-2 3-1 3z" id="THIVef" transform="translate(0,0) skewX(-5)" /><path d="M-1 5-1 3 3 3 3 1-5 1-5-5 1-5 1-3-3-3-3-1 5-1 5 5z" id="ZnCVeE" transform="translate(0,0) skewX(-5)" /><path d="M-1 5-1-9 1-9 1 5z" id="txStwz" transform="translate(0,0) skewX(-5)" /><image height="20" id="twvKB" transform="translate(-10,-10)" width="20" xlink:href="https://twemoji.maxcdn.com/2/svg/1f964.svg" /><path d="M 5 1-1 1-1-1 5-1zM-1 5-1 3 5 3 5 5zM-1 9-1 7 5 7 5 9z" id="EAVOG" transform="translate(0,0) skewX(-5)" /><path d="M-4 3-3 3-3 5-9 5-9 3-6 3-8 1-9 1-9-1-8-1-5-4-5-5 4-5 7-8 7-9 9-9 9-7 8-7 5-4 7-2 7-5 9-5 9 1 7 1 7 0 4-3-4-3-7 0zM-1 5-1 4-4 1-5 1-5-1-3-1-3 0 0 3 3 0 3-1 5-1 5 3 9 3 9 5 3 5 3 2 1 4 1 5zM-1 1-1-1 1-1 1 1z" id="UtWRtV" transform="translate(0,0) skewX(-5)" /><image height="20" id="twvOhp" transform="translate(-10,-10)" width="20" xlink:href="https://twemoji.maxcdn.com/2/svg/1f375.svg" /><image height="20" id="twvgP" transform="translate(-10,-10)" width="20" xlink:href="https://twemoji.maxcdn.com/2/svg/1f41e.svg" /></defs><g fill="black" stroke="black" stroke-linejoin="round" stroke-width="0"><use x="6" xlink:href="#THIVef" y="0" /><use x="18" xlink:href="#EAVEK" y="0" /><use x="30" xlink:href="#xtSUqu" y="0" /><use x="46" xlink:href="#UtWRtV" y="0" /><use x="58" xlink:href="#EAVOQ" y="0" /><use x="70" xlink:href="#ydGofQ" y="0" /><use x="78" xlink:href="#EAVEK" y="0" /><use x="90" xlink:href="#XxKXfZ" y="0" /><use x="106" xlink:href="#txCuJk" y="0" /><use x="114" xlink:href="#EAVeE" y="0" /><use x="122" xlink:href="#txSVVP" y="0" /><use x="134" xlink:href="#ZnCVeE" y="0" /><use x="142" xlink:href="#txStwz" y="0" /><use x="154" xlink:href="#twvgP" y="0" /><use x="166" xlink:href="#EAVOQ" y="0" /><use x="178" xlink:href="#ydGofQ" y="0" /><use x="186" xlink:href="#EAVEK" y="0" /><use x="202" xlink:href="#twvOhp" y="0" /><use x="222" xlink:href="#twvKB" y="0" /><use x="234" xlink:href="#EAVeE" y="0" /><use x="246" xlink:href="#usWPiu" y="0" /><use x="254" xlink:href="#EAVOG" y="0" /></g></svg>