<svg xmlns="http://www.w3.org/2000/svg" version="1.0" width="150.92pt" height="19.200000pt" viewBox="0 0 150.92 19.200000" preserveAspectRatio="xMidYMid meet">
<metadata>
Created by potrace 1.13, written by Peter Selinger 2001-2015
</metadata>
<g transform="translate(0.0,19.200000) scale(0.048000,-0.048000) skewX(5)" fill="#000000" stroke="none">
<path d="M1300 320 l0 -60 32 0 31 0 -18 -20 c-10 -11 -24 -20 -32 -20 l-13 0 0 -20 0 -20 32 0 31 0 -18 -20 c-10 -11 -24 -20 -32 -20 l-13 0 0 -60 0 -60 20 0 20 0 0 52 0 52 27 28 27 28 24 0 25 0 -18 -20 c-10 -11 -24 -20 -32 -20 l-13 0 0 -60 0 -60 20 0 20 0 0 52 0 52 27 28 27 28 13 0 13 0 0 20 0 20 -72 0 -71 0 18 20 c10 11 24 20 32 20 l13 0 0 20 0 20 -40 0 -40 0 0 40 0 40 -20 0 -20 0 0 -60z"/>
<path d="M20 280 l0 -20 100 0 100 0 0 20 0 20 -100 0 -100 0 0 -20z"/>
<path d="M420 280 l0 -20 40 0 40 0 0 -20 0 -20 -40 0 -40 0 0 -20 0 -20 40 0 40 0 0 -20 0 -20 -40 0 -40 0 0 -20 0 -20 60 0 60 0 0 13 c0 8 9 22 20 32 l20 18 0 -71 0 -72 20 0 20 0 0 140 0 140 -20 0 -20 0 0 -32 0 -31 -20 18 c-11 10 -20 24 -20 32 l0 13 -60 0 -60 0 0 -20z m142 -102 l-22 -22 0 44 0 44 22 -22 22 -22 -22 -22z"/>
<path d="M660 240 l0 -60 20 0 20 0 0 32 0 31 20 -18 c11 -10 20 -24 20 -32 l0 -13 20 0 20 0 0 32 0 31 20 -18 20 -18 0 -54 0 -53 20 0 20 0 0 60 0 60 -13 0 -13 0 -27 28 c-15 15 -27 33 -27 40 l0 12 -20 0 -20 0 0 -32 0 -31 -20 18 c-11 10 -20 24 -20 32 l0 13 -20 0 -20 0 0 -60z"/>
<path d="M900 240 l0 -60 20 0 20 0 0 32 0 32 22 -22 22 -22 -29 -30 -29 -30 -13 0 -13 0 0 -20 0 -20 20 0 20 0 0 13 0 13 28 27 28 27 32 0 32 0 0 -20 0 -20 -40 0 -40 0 0 -20 0 -20 60 0 60 0 0 100 0 100 -60 0 -60 0 0 -20 0 -20 40 0 40 0 0 -20 0 -20 -33 0 -33 0 -27 28 c-15 15 -27 33 -27 40 l0 12 -20 0 -20 0 0 -60z"/>
<path d="M1780 280 l0 -20 40 0 40 0 0 -60 0 -60 -20 0 -20 0 0 40 0 40 -20 0 -20 0 0 -60 0 -60 100 0 100 0 0 60 0 60 -20 0 -20 0 0 -40 0 -40 -20 0 -20 0 0 80 0 80 -60 0 -60 0 0 -20z"/>
<path d="M2020 280 l0 -20 72 0 71 0 -18 -20 c-10 -11 -24 -20 -32 -20 l-13 0 0 -13 0 -13 -28 -27 c-15 -15 -33 -27 -40 -27 l-12 0 0 -20 0 -20 20 0 20 0 0 13 0 13 28 27 28 27 64 0 63 0 -18 -20 c-10 -11 -24 -20 -32 -20 l-13 0 0 -12 c0 -7 -12 -25 -27 -40 l-27 -28 -13 0 -13 0 0 -20 0 -20 20 0 20 0 0 12 c0 7 12 25 27 40 l27 28 93 0 93 0 0 20 0 20 -72 0 -71 0 18 20 c10 11 24 20 32 20 l13 0 0 20 0 20 -72 0 -71 0 18 20 c10 11 24 20 32 20 l13 0 0 20 0 20 -100 0 -100 0 0 -20z"/>
<path d="M2580 288 c0 -7 -12 -25 -27 -40 l-27 -28 -53 0 -53 0 0 -20 0 -20 60 0 60 0 0 13 0 13 28 27 28 27 52 0 52 0 0 20 0 20 -60 0 -60 0 0 -12z"/>
<path d="M20 200 l0 -20 60 0 60 0 0 20 0 20 -60 0 -60 0 0 -20z"/>
<path d="M180 180 l0 -40 -80 0 -80 0 0 -20 0 -20 100 0 100 0 0 60 0 60 -20 0 -20 0 0 -40z"/>
<path d="M260 160 l0 -60 60 0 60 0 0 20 0 20 -40 0 -40 0 0 40 0 40 -20 0 -20 0 0 -60z"/>
<path d="M1140 160 l0 -60 20 0 20 0 0 32 0 32 22 -22 22 -22 -29 -30 -29 -30 -13 0 -13 0 0 -20 0 -20 20 0 20 0 0 13 0 13 28 27 c15 15 33 27 40 27 l12 0 0 20 0 20 -13 0 -13 0 -27 28 c-15 15 -27 33 -27 40 l0 12 -20 0 -20 0 0 -60z"/>
<path d="M1540 208 c0 -7 -12 -25 -27 -40 l-27 -28 -13 0 -13 0 0 -60 0 -60 20 0 20 0 0 53 0 53 28 27 c15 15 33 27 40 27 l12 0 0 20 0 20 -20 0 -20 0 0 -12z"/>
<path d="M1620 200 l0 -20 13 0 13 0 29 -30 29 -30 -22 -22 -22 -22 0 32 0 32 -20 0 -20 0 0 -60 0 -60 20 0 20 0 0 13 0 13 28 27 c15 15 33 27 40 27 l12 0 0 20 0 20 -13 0 -13 0 -27 28 c-15 15 -27 33 -27 40 l0 12 -20 0 -20 0 0 -20z"/>
<path d="M2580 208 c0 -7 -12 -25 -27 -40 l-27 -28 -53 0 -53 0 0 -20 0 -20 60 0 60 0 0 13 0 13 28 27 28 27 52 0 52 0 0 20 0 20 -60 0 -60 0 0 -12z"/>
<path d="M2740 160 l0 -60 60 0 60 0 0 60 0 60 -20 0 -20 0 0 -40 0 -40 -20 0 -20 0 0 40 0 40 -20 0 -20 0 0 -60z"/>
<path d="M2900 200 l0 -20 60 0 60 0 0 20 0 20 -60 0 -60 0 0 -20z"/>
<path d="M660 120 l0 -20 20 0 20 0 0 20 0 20 -20 0 -20 0 0 -20z"/>
<path d="M740 120 l0 -20 20 0 20 0 0 20 0 20 -20 0 -20 0 0 -20z"/>
<path d="M2580 128 c0 -7 -12 -25 -27 -40 l-27 -28 -53 0 -53 0 0 -20 0 -20 60 0 60 0 0 13 0 13 28 27 28 27 52 0 52 0 0 20 0 20 -60 0 -60 0 0 -12z"/>
<path d="M2900 120 l0 -20 60 0 60 0 0 20 0 20 -60 0 -60 0 0 -20z"/>
<path d="M300 40 l0 -20 20 0 20 0 0 20 0 20 -20 0 -20 0 0 -20z"/>
<path d="M740 40 l0 -20 20 0 20 0 0 20 0 20 -20 0 -20 0 0 -20z"/>
<path d="M1220 40 l0 -20 20 0 20 0 0 20 0 20 -20 0 -20 0 0 -20z"/>
<path d="M1860 40 l0 -20 60 0 60 0 0 20 0 20 -60 0 -60 0 0 -20z"/>
<path d="M2740 40 l0 -20 20 0 20 0 0 20 0 20 -20 0 -20 0 0 -20z"/>
<path d="M2820 40 l0 -20 20 0 20 0 0 20 0 20 -20 0 -20 0 0 -20z"/>
<path d="M2900 40 l0 -20 60 0 60 0 0 20 0 20 -60 0 -60 0 0 -20z"/>
</g>
</svg>