<svg xmlns="http://www.w3.org/2000/svg" version="1.0" width="197.0pt" height="24.000000pt" viewBox="0 0 197.0 24.000000" preserveAspectRatio="xMidYMid meet">
<metadata>
Created by potrace 1.13, written by Peter Selinger 2001-2015
</metadata>
<g transform="translate(0.0,24.000000) scale(0.048000,-0.048000) skewX(5)" fill="#000000" stroke="none">
<path d="M80 400 l0 -20 40 0 40 0 0 -40 0 -40 20 0 20 0 0 60 0 60 -60 0 -60 0 0 -20z"/>
<path d="M340 360 l0 -60 60 0 60 0 0 20 0 20 -40 0 -40 0 0 40 0 40 -20 0 -20 0 0 -60z"/>
<path d="M580 360 l0 -60 60 0 60 0 0 20 0 20 -40 0 -40 0 0 20 0 20 40 0 40 0 0 20 0 20 -60 0 -60 0 0 -60z"/>
<path d="M820 360 l0 -60 60 0 60 0 0 60 0 60 -20 0 -20 0 0 -40 0 -40 -20 0 -20 0 0 40 0 40 -20 0 -20 0 0 -60z"/>
<path d="M1060 360 l0 -60 60 0 60 0 0 20 0 20 -40 0 -40 0 0 20 0 20 40 0 40 0 0 20 0 20 -60 0 -60 0 0 -60z"/>
<path d="M1300 360 l0 -60 20 0 20 0 0 40 0 40 20 0 20 0 0 -40 0 -40 20 0 20 0 0 60 0 60 -60 0 -60 0 0 -60z"/>
<path d="M1540 360 l0 -60 60 0 60 0 0 60 0 60 -60 0 -60 0 0 -60z m80 0 l0 -20 -20 0 -20 0 0 20 0 20 20 0 20 0 0 -20z"/>
<path d="M1780 360 l0 -60 20 0 20 0 0 32 0 31 20 -18 c11 -10 20 -24 20 -32 l0 -13 20 0 20 0 0 60 0 60 -20 0 -20 0 0 -32 0 -31 -20 18 c-11 10 -20 24 -20 32 l0 13 -20 0 -20 0 0 -60z"/>
<path d="M2020 360 l0 -60 20 0 20 0 0 32 0 31 20 -18 c11 -10 20 -24 20 -32 l0 -13 20 0 20 0 0 20 0 20 -13 0 c-8 0 -22 9 -32 20 l-18 20 31 0 32 0 0 20 0 20 -60 0 -60 0 0 -60z"/>
<path d="M2260 401 l0 -19 20 -5 20 -5 0 -12 0 -12 -20 -5 -20 -5 0 -19 0 -19 19 0 19 0 5 20 5 20 12 0 12 0 5 -20 5 -20 19 0 19 0 0 19 0 19 -20 5 -20 5 0 12 0 12 20 5 20 5 0 19 0 19 -19 0 -19 0 -5 -20 -5 -20 -12 0 -12 0 -5 20 -5 20 -19 0 -19 0 0 -19z"/>
<path d="M2500 401 l0 -19 20 -5 20 -5 0 -12 0 -12 -20 -5 -20 -5 0 -19 0 -19 60 0 60 0 0 19 0 19 -20 5 -20 5 0 12 0 12 20 5 20 5 0 19 0 19 -60 0 -60 0 0 -19z"/>
<path d="M2740 360 l0 -60 60 0 60 0 0 60 0 60 -60 0 -60 0 0 -60z"/>
<path d="M2980 400 l0 -20 20 0 20 0 0 20 0 20 -20 0 -20 0 0 -20z"/>
<path d="M3060 380 l0 -40 -40 0 -40 0 0 -20 0 -20 60 0 60 0 0 60 0 60 -20 0 -20 0 0 -40z"/>
<path d="M3200 400 l0 -20 20 0 20 0 0 20 0 20 -20 0 -20 0 0 -20z"/>
<path d="M3280 400 l0 -20 20 0 20 0 0 20 0 20 -20 0 -20 0 0 -20z"/>
<path d="M3420 400 l0 -20 60 0 60 0 0 20 0 20 -60 0 -60 0 0 -20z"/>
<path d="M3640 360 l0 -60 20 0 20 0 0 13 0 13 28 27 c15 15 33 27 40 27 l12 0 0 20 0 20 -60 0 -60 0 0 -60z m60 16 c0 -3 -4 -8 -10 -11 l-10 -6 0 10 c0 6 5 11 10 11 6 0 10 -2 10 -4z"/>
<path d="M3200 320 l0 -20 20 0 20 0 0 20 0 20 -20 0 -20 0 0 -20z"/>
<path d="M3280 320 l0 -20 20 0 20 0 0 20 0 20 -20 0 -20 0 0 -20z"/>
<path d="M3420 320 l0 -20 60 0 60 0 0 20 0 20 -60 0 -60 0 0 -20z"/>
<path d="M120 240 l0 -20 20 0 20 0 0 20 0 20 -20 0 -20 0 0 -20z"/>
<path d="M380 240 l0 -20 20 0 20 0 0 20 0 20 -20 0 -20 0 0 -20z"/>
<path d="M620 240 l0 -20 20 0 20 0 0 20 0 20 -20 0 -20 0 0 -20z"/>
<path d="M860 240 l0 -20 20 0 20 0 0 20 0 20 -20 0 -20 0 0 -20z"/>
<path d="M1100 240 l0 -20 20 0 20 0 0 20 0 20 -20 0 -20 0 0 -20z"/>
<path d="M1340 240 l0 -20 20 0 20 0 0 20 0 20 -20 0 -20 0 0 -20z"/>
<path d="M1580 240 l0 -20 20 0 20 0 0 20 0 20 -20 0 -20 0 0 -20z"/>
<path d="M1820 240 l0 -20 20 0 20 0 0 20 0 20 -20 0 -20 0 0 -20z"/>
<path d="M2060 240 l0 -20 20 0 20 0 0 20 0 20 -20 0 -20 0 0 -20z"/>
<path d="M2300 240 l0 -20 20 0 20 0 0 20 0 20 -20 0 -20 0 0 -20z"/>
<path d="M2540 240 l0 -20 20 0 20 0 0 20 0 20 -20 0 -20 0 0 -20z"/>
<path d="M2780 240 l0 -20 20 0 20 0 0 20 0 20 -20 0 -20 0 0 -20z"/>
<path d="M3020 240 l0 -20 20 0 20 0 0 20 0 20 -20 0 -20 0 0 -20z"/>
<path d="M3240 240 l0 -20 20 0 20 0 0 20 0 20 -20 0 -20 0 0 -20z"/>
<path d="M3460 240 l0 -20 20 0 20 0 0 20 0 20 -20 0 -20 0 0 -20z"/>
<path d="M3680 240 l0 -20 20 0 20 0 0 20 0 20 -20 0 -20 0 0 -20z"/>
</g>
</svg>