<svg xmlns="http://www.w3.org/2000/svg" version="1.0" width="101.0pt" height="19.200000pt" viewBox="0 0 101.0 19.200000" preserveAspectRatio="xMidYMid meet">
<metadata>
Created by potrace 1.13, written by Peter Selinger 2001-2015
</metadata>
<g transform="translate(0.0,19.200000) scale(0.048000,-0.048000) skewX(5)" fill="#000000" stroke="none">
<path d="M500 360 l0 -20 20 0 20 0 0 20 0 20 -20 0 -20 0 0 -20z"/>
<path d="M580 360 l0 -20 20 0 20 0 0 20 0 20 -20 0 -20 0 0 -20z"/>
<path d="M1220 368 c0 -7 -12 -25 -27 -40 l-27 -28 -13 0 -13 0 0 -60 0 -60 13 0 13 0 27 -28 c15 -15 27 -33 27 -40 l0 -12 32 0 31 0 -18 -20 c-10 -11 -24 -20 -32 -20 l-13 0 0 -20 0 -20 100 0 100 0 0 20 0 20 -72 0 -71 0 18 20 c10 11 24 20 32 20 l13 0 0 20 0 20 -41 0 -40 0 3 37 3 36 13 5 13 4 6 -21 5 -21 19 0 19 0 0 19 0 19 -20 5 -20 5 0 12 0 12 20 5 20 5 0 19 0 19 -19 0 -19 0 -5 -20 -5 -20 -12 0 -12 0 -5 20 -5 20 -19 0 -19 0 0 -19 0 -19 20 -5 20 -5 0 -12 0 -12 -20 -5 -20 -5 0 -31 0 -30 -20 18 -20 18 0 47 0 46 28 27 28 27 45 0 45 0 27 -28 27 -28 0 -52 0 -52 20 0 20 0 0 60 0 60 -13 0 -13 0 -27 28 c-15 15 -27 33 -27 40 l0 12 -60 0 -60 0 0 -12z"/>
<path d="M20 280 l0 -20 40 0 40 0 0 -20 0 -20 -40 0 -40 0 0 -20 0 -20 40 0 40 0 0 -20 0 -20 -40 0 -40 0 0 -20 0 -20 60 0 60 0 0 13 c0 8 9 22 20 32 l20 18 0 -71 0 -72 20 0 20 0 0 140 0 140 -20 0 -20 0 0 -32 0 -31 -20 18 c-11 10 -20 24 -20 32 l0 13 -60 0 -60 0 0 -20z m142 -102 l-22 -22 0 44 0 44 22 -22 22 -22 -22 -22z"/>
<path d="M420 280 l0 -20 12 0 c7 0 25 -12 40 -27 l28 -27 0 -33 0 -33 -20 0 -20 0 0 -20 0 -20 60 0 60 0 0 20 0 20 -20 0 -20 0 0 32 0 32 27 28 27 28 13 0 13 0 0 20 0 20 -100 0 -100 0 0 -20z m122 -42 l-22 -22 -22 22 -22 22 44 0 44 0 -22 -22z"/>
<path d="M660 200 l0 -100 100 0 100 0 0 13 0 13 28 27 c15 15 33 27 40 27 l12 0 0 60 0 60 -60 0 -60 0 0 -80 0 -80 -60 0 -60 0 0 80 0 80 -20 0 -20 0 0 -100z m240 27 l0 -34 -20 -18 -20 -18 0 51 0 52 20 0 20 0 0 -33z"/>
<path d="M1460 280 l0 -20 40 0 40 0 0 -20 0 -20 -40 0 -40 0 0 -20 0 -20 40 0 40 0 0 -40 0 -40 20 0 20 0 0 40 0 40 40 0 40 0 0 20 0 20 -40 0 -40 0 0 40 0 40 -60 0 -60 0 0 -20z"/>
<path d="M1620 280 l0 -20 20 0 20 0 0 20 0 20 -20 0 -20 0 0 -20z"/>
<path d="M260 160 l0 -60 20 0 20 0 0 32 0 31 20 -18 c11 -10 20 -24 20 -32 l0 -13 20 0 20 0 0 20 0 20 -13 0 c-8 0 -22 9 -32 20 l-18 20 31 0 32 0 0 20 0 20 -60 0 -60 0 0 -60z"/>
<path d="M740 200 l0 -20 20 0 20 0 0 20 0 20 -20 0 -20 0 0 -20z"/>
<path d="M980 200 l0 -20 40 0 40 0 0 -40 0 -40 20 0 20 0 0 60 0 60 -60 0 -60 0 0 -20z"/>
<path d="M1700 200 l0 -20 13 0 13 0 29 -30 29 -30 -22 -22 -22 -22 0 32 0 32 -20 0 -20 0 0 -60 0 -60 20 0 20 0 0 13 0 13 28 27 c15 15 33 27 40 27 l12 0 0 20 0 20 -13 0 -13 0 -27 28 c-15 15 -27 33 -27 40 l0 12 -20 0 -20 0 0 -20z"/>
<path d="M1860 200 l0 -20 60 0 60 0 0 20 0 20 -60 0 -60 0 0 -20z"/>
<path d="M1460 120 l0 -20 20 0 20 0 0 20 0 20 -20 0 -20 0 0 -20z"/>
<path d="M1860 120 l0 -20 60 0 60 0 0 20 0 20 -60 0 -60 0 0 -20z"/>
<path d="M300 40 l0 -20 20 0 20 0 0 20 0 20 -20 0 -20 0 0 -20z"/>
<path d="M1020 40 l0 -20 20 0 20 0 0 20 0 20 -20 0 -20 0 0 -20z"/>
<path d="M1860 40 l0 -20 60 0 60 0 0 20 0 20 -60 0 -60 0 0 -20z"/>
</g>
</svg>