<svg baseProfile="full" height="44" version="1.1" viewBox="-1 -11 175 22" width="350" xmlns="http://www.w3.org/2000/svg" xmlns:ev="http://www.w3.org/2001/xml-events" xmlns:xlink="http://www.w3.org/1999/xlink"><defs /><defs><path d="M-5 5-5 0-8-3-9-3-9-5-3-5-3-4-1-2-1-5 5-5 5 5zM 3 3 3-3 1-3 1 1-1 1-1 0-4-3-6-3-4-1-3-1-3 3z" id="vYIoge" transform="translate(0,0) skewX(-5)" /><path d="M 1 1-1 1-1-1 1-1z" id="EAtwW" transform="translate(0,0) skewX(-5)" /><path d="M-1 5-1-1 1-1 1 3 5 3 5 5zM 3 7 3 9 1 9 1 7z" id="EAUHD" transform="translate(0,0) skewX(-5)" /><path d="M 1 8 1 9-1 9-1 3 1 3 1 6 3 4 0 1-1 1-1-1 1-1 1 0 4 3 5 3 5 5 4 5z" id="EAVEK" transform="translate(0,0) skewX(-5)" /><path d="M 5 1 4 1 1 4 0 4 0 3 3 0 0-3 0-4 1-4 4-1 5-1zM 1 1-1 1-1-1 1-1z" id="EAvsG" transform="translate(0,0) skewX(-5)" /><path d="M 3-1 5-1 5 5-1 5-1-1 1-1 1 3 3 3zM 3 9 3 7 5 7 5 9zM-1 7 1 7 1 9-1 9z" id="EAURL" transform="translate(0,0) skewX(-5)" /><path d="M 5 1-1 1-1-1 5-1zM-1 5-1 3 5 3 5 5zM-1 9-1 7 5 7 5 9z" id="EAVOG" transform="translate(0,0) skewX(-5)" /><path d="M-9-9 1-9 1-7-7-7-7-3-9-3zM-4 3-3 3-3 9-5 9-5 6-7 8-7 9-9 9-9 7-8 7-5 4-8 1-9 1-9-1-3-1-3 1-6 1zM-1 5-1-1 1-1 1 5zM-7 5-9 5-9 3-7 3zM 5 5 3 5 3-1 5-1z" id="ObWOoI" transform="translate(0,0) skewX(-5)" /><path d="M-9-9 1-9 1-7-9-7zM-4 3-3 3-3 9-5 9-5 6-7 8-7 9-9 9-9 7-8 7-5 4-8 1-9 1-9-1-3-1-3 1-6 1zM-1 5-1-1 1-1 1 5zM-9-3-9-5 1-5 1-3zM-7 5-9 5-9 3-7 3zM 5 5 3 5 3-1 5-1z" id="yCUUrM" transform="translate(0,0) skewX(-5)" /><path d="M 5 1-2 1 0 3 1 3 1 5-1 5-1 4-4 1-5 1-5-1-4-1-1-4-1-5 1-5 1-3 0-3-2-1 5-1z" id="UhSVEC" transform="translate(0,0) skewX(-5)" /><path d="M-9-9-3-9-3 1-5 1-5-7-9-7zM-1 9-1 7 3 7 3 3 5 3 5 9zM 1-4 1 1-1 1-1-5 0-5 3-8 3-9 5-9 5-7 4-7zM 5-3 3-3 3-5 5-5z" id="uOYuZm" transform="translate(0,0) skewX(-5)" /><path d="M-1 5-1 2-3 4-3 5-5 5-5 3-4 3-2 1-4 1-7 4-7 5-9 5-9 3-8 3-5 0-5-1-4-1-1-4-1-7-3-7-3-3-4-3-7 0-7 1-9 1-9-1-8-1-5-4-5-9 1-9 1-3 0-3-2-1 5-1 5 5zM 3 3 3 1 1 1 1 3z" id="vMUVFL" transform="translate(0,0) skewX(-5)" /><path d="M 3-1 1-1 1-3-1-3-1 1 3 1zM-1 7-1 9-3 9-3 7-5 7-5 5-3 5-3 3-5 3-5-5-3-5-3-7-5-7-5-9 1-9 1-5 5-5 5 9 3 9 3 7zM-3 5-3 7-1 7-1 5z" id="qVtQqc" transform="translate(0,0) skewX(-5)" /></defs><g fill="black" stroke="black" stroke-linejoin="round" stroke-width="0"><use x="6" xlink:href="#qVtQqc" y="0" /><use x="19" xlink:href="#UhSVEC" y="0" /><use x="36" xlink:href="#yCUUrM" y="0" /><use x="53" xlink:href="#uOYuZm" y="0" /><use x="70" xlink:href="#ObWOoI" y="0" /><use x="79" xlink:href="#EAtwW" y="0" /><use x="84" xlink:href="#EAUHD" y="0" /><use x="101" xlink:href="#vMUVFL" y="0" /><use x="110" xlink:href="#EAVEK" y="0" /><use x="123" xlink:href="#qVtQqc" y="0" /><use x="132" xlink:href="#EAvsG" y="0" /><use x="149" xlink:href="#vYIoge" y="0" /><use x="158" xlink:href="#EAURL" y="0" /><use x="167" xlink:href="#EAVOG" y="0" /></g></svg>