<svg baseProfile="full" height="44" version="1.1" viewBox="-1 -11 171 22" width="342" xmlns="http://www.w3.org/2000/svg" xmlns:ev="http://www.w3.org/2001/xml-events" xmlns:xlink="http://www.w3.org/1999/xlink"><defs /><defs><path d="M-5 5-5 3 3 3 3-1 5-1 5 5zM-5-3-5-5 5-5 5-3zM-5 1-5-1 1-1 1 1z" id="yhCUyE" transform="translate(0,0) skewX(-5)" /><path d="M 1 8 1 9-1 9-1 3 1 3 1 6 3 4 0 1-1 1-1-1 1-1 1 0 4 3 5 3 5 5 4 5z" id="EAVEK" transform="translate(0,0) skewX(-5)" /><path d="M 1-4 4-1 5-1 5 1 4 1 1 4 1 5-9 5-9 3-8 3-5 0-5-1 1-1 1 2 3 0 0-3-1-3-1-5 0-5 3-8 3-9 5-9 5-7 4-7zM 8-1 9-1 9 1 8 1 5 4 8 7 9 7 9 9 7 9 7 8 4 5 3 5 3 3 4 3 7 0 4-3 3-3 3-5 5-5 5-4zM-5 3-5 2-6 3zM-3 1-3 3-1 3-1 1z" id="pxSvsO" transform="translate(0,0) skewX(-5)" /><path d="M-1 5-1-1 1-1 1 3 5 3 5 5zM 3 7 3 9 1 9 1 7z" id="EAUHD" transform="translate(0,0) skewX(-5)" /><path d="M 5 9 3 9 3 6 1 8 1 9-1 9-1 7 0 7 3 4 3 1-1 1-1-1 5-1z" id="EAUrK" transform="translate(0,0) skewX(-5)" /><path d="M 3-1 1-1 1-3-1-3-1 1 3 1 3 5-1 5-1 9-3 9-3 7-5 7-5 5-1 5-1 1-3 1-3-1-5-1-5-3-3-3-3-7-5-7-5-9-1-9-1-5 1-5 1-3 3-3zM 1 9 1 7 5 7 5 9z" id="OQcojq" transform="translate(0,0) skewX(-5)" /><path d="M-1 5-1 7-3 7-3 5-5 5-5 3-3 3-3 1 5 1 5 3 3 3 3 5zM 3 9 3 7 5 7 5 9zM-1-3-1-5 1-5 1-3zM-3-3-5-3-5-5-3-5-3-3-1-3-1-1-3-1zM-5-7-5-9-3-9-3-7z" id="RkqEA" transform="translate(0,0) skewX(-5)" /><path d="M 1-4 4-1 5-1 5 5 4 5 1 8 1 9-1 9-1 7 0 7 3 4 3 0 0-3-3-3-3 3 1 3 1 5-5 5-5-5 1-5zM-1 1-1-1 1-1 1 1z" id="ZvSVyQ" transform="translate(0,0) skewX(-5)" /><path d="M 3-1 5-1 5 5-1 5-1-1 1-1 1 3 3 3zM 3 9 3 7 5 7 5 9zM-1 7 1 7 1 9-1 9z" id="EAURL" transform="translate(0,0) skewX(-5)" /><path d="M-1 5-1 3 3 3 3-3 0-3-3 0-3 1-5 1-5-1-4-1-2-3-3-3-3-5 5-5 5 5zM-1 1-1-1 1-1 1 1z" id="XiWuIW" transform="translate(0,0) skewX(-5)" /><path d="M 5 1-1 1-1-1 5-1zM-1 5-1 3 5 3 5 5zM-1 9-1 7 5 7 5 9z" id="EAVOG" transform="translate(0,0) skewX(-5)" /><path d="M-1 5-1 7 1 7 1 9-5 9-5 5-3 5-3 3 1 3 1-1-5-1-5-5-1-5-1-3 3-3 3-5 1-5 1-7 3-7 3-5 5-5 5-3 3-3 3 1 5 1 5 3 3 3 3 5zM 3 9 3 7 5 7 5 9zM-5-7-5-9-1-9-1-7z" id="uGgoRj" transform="translate(0,0) skewX(-5)" /><path d="M 3 9 3 7 1 7 1 9-3 9-3 5-5 5-5 1-3 1-3 3 1 3 1 1 5 1 5 9zM-3-7 1-7 1-3-1-3-1-1-3-1zM 3-9 5-9 5-7 3-7zM-5-7-5-9-3-9-3-7zM 3-1 3-3 5-3 5-1z" id="sDgUFv" transform="translate(0,0) skewX(-5)" /><path d="M-3 5-3 9-5 9-5-5 5-5 5 9-1 9-1 7 3 7 3 5zM-3 1-3 3 1 3 1-1 3-1 3-3-1-3-1 1zM-5-7-5-9-3-9-3-7z" id="zzzFH" transform="translate(0,0) skewX(-5)" /></defs><g fill="black" stroke="black" stroke-linejoin="round" stroke-width="0"><use x="6" xlink:href="#yhCUyE" y="0" /><use x="15" xlink:href="#EAUHD" y="0" /><use x="32" xlink:href="#pxSvsO" y="0" /><use x="45" xlink:href="#EAUrK" y="0" /><use x="54" xlink:href="#EAVEK" y="0" /><use x="67" xlink:href="#zzzFH" y="0" /><use x="80" xlink:href="#OQcojq" y="0" /><use x="93" xlink:href="#sDgUFv" y="0" /><use x="106" xlink:href="#uGgoRj" y="0" /><use x="119" xlink:href="#RkqEA" y="0" /><use x="132" xlink:href="#ZvSVyQ" y="0" /><use x="141" xlink:href="#EAURL" y="0" /><use x="154" xlink:href="#XiWuIW" y="0" /><use x="163" xlink:href="#EAVOG" y="0" /></g></svg>