<svg baseProfile="full" height="44" version="1.1" viewBox="-1 -11 73 22" width="146" xmlns="http://www.w3.org/2000/svg" xmlns:ev="http://www.w3.org/2001/xml-events" xmlns:xlink="http://www.w3.org/1999/xlink"><defs /><defs><path d="M-1 5-1 1-5 1-5-1-1-1-1-3-9-3-9-5 1-5 1-1 5-1 5 9 3 9 3 1 1 1 1 5z" id="ycGel" transform="translate(0,0) skewX(-5)" /><path d="M 2-1 5-1 5 1 4 1 1 4 1 5 0 5-3 8-3 9-5 9-5 7-4 7-1 4-1 3 0 3 2 1 0 1-3 4-3 5-5 5-5 3-4 3-2 1-5 1-5-1 0-1 2-3-9-3-9-5 5-5 5-3 4-3z" id="yAMtMC" transform="translate(0,0) skewX(-5)" /><path d="M-9-3-9-5 1-5 1-1 5-1 5 1 1 1 1 4 4 7 5 7 5 9 3 9 3 8 1 6 1 9-1 9-1 6-3 8-3 9-5 9-5 8-8 5-9 5-9-1-1-1-1-3zM-7 1-7 4-4 7-1 4-1 1zM 5-3 3-3 3-5 5-5zM-5 5-5 3-3 3-3 5z" id="yAIpta" transform="translate(0,0) skewX(-5)" /><image height="20" id="twvOFo" transform="translate(-10,-10)" width="20" xlink:href="https://twemoji.maxcdn.com/2/svg/1f350.svg" /></defs><g fill="black" stroke="black" stroke-linejoin="round" stroke-width="0"><use x="10" xlink:href="#ycGel" y="0" /><use x="27" xlink:href="#yAMtMC" y="0" /><use x="44" xlink:href="#twvOFo" y="0" /><use x="65" xlink:href="#yAIpta" y="0" /></g></svg>