<svg baseProfile="full" height="44" version="1.1" viewBox="-1 -11 77 22" width="154" xmlns="http://www.w3.org/2000/svg" xmlns:ev="http://www.w3.org/2001/xml-events" xmlns:xlink="http://www.w3.org/1999/xlink"><defs /><defs><path d="M-1 5-1 1-5 1-5-1-1-1-1-3-9-3-9-5 1-5 1-1 5-1 5 9 3 9 3 1 1 1 1 5z" id="ycGel" transform="translate(0,0) skewX(-5)" /><path d="M-9 5-9 3 1 3 1 5zM-1-9 1-9 1-5 9-5 9-3 5-3 5 5 3 5 3 1-5 1-5-1-1-1zM 3-3 1-3 1-1 3-1z" id="OBMVvL" transform="translate(0,0) skewX(-5)" /><path d="M 1-4 4-1 9-1 9 1 2 1 4 3 5 3 5 5-1 5-1 3 2 3 0 1-3 4-3 5-5 5-5 3-4 3-2 1-9 1-9-1-8-1-5-4-5-5-3-5-3-2-1-4-1-5 1-5zM 0-3-2-1 2-1zM-6-1-5-1-5-2z" id="QVQwFb" transform="translate(0,0) skewX(-5)" /><path d="M-5 5-5 3-4 3-1 0-1-3-3-3-3 1-4 1-7 4-7 5-9 5-9 3-8 3-5 0-5-5 1-5 1 1 0 1-2 3 5 3 5 5z" id="ZuStXi" transform="translate(0,0) skewX(-5)" /></defs><g fill="black" stroke="black" stroke-linejoin="round" stroke-width="0"><use x="10" xlink:href="#OBMVvL" y="0" /><use x="31" xlink:href="#ycGel" y="0" /><use x="48" xlink:href="#ZuStXi" y="0" /><use x="65" xlink:href="#QVQwFb" y="0" /></g></svg>