<svg baseProfile="full" height="44" version="1.1" viewBox="-1 -11 61 22" width="122" xmlns="http://www.w3.org/2000/svg" xmlns:ev="http://www.w3.org/2001/xml-events" xmlns:xlink="http://www.w3.org/1999/xlink"><defs /><defs><path d="M-4 5-5 5-5 3-4 3-1 0-1-2-3 0-3 1-5 1-5-1-4-1-1-4-1-5 1-5 1 1 0 1-3 4 0 7 1 7 1 9-1 9-1 8z" id="UjWXSi" transform="translate(0,0) skewX(-5)" /><image height="20" id="twvOEn" transform="translate(-10,-10)" width="20" xlink:href="https://twemoji.maxcdn.com/2/svg/1f4b0.svg" /></defs><g fill="black" stroke="black" stroke-linejoin="round" stroke-width="0"><use x="6" xlink:href="#UjWXSi" y="0" /><use x="19" xlink:href="#twvOEn" y="0" /><use x="40" xlink:href="#twvOEn" y="0" /><use x="57" xlink:href="#UjWXSi" y="0" /></g></svg>