<svg xmlns="http://www.w3.org/2000/svg" version="1.0" width="242pt" height="192" viewBox="0 0 24.2 19.200000" preserveAspectRatio="xMidYMid meet">
<metadata>
Created by potrace 1.13, written by Peter Selinger 2001-2015
</metadata>
<g transform="translate(0.0,19.200000) scale(0.048000,-0.048000) skewX(5)" fill="#000000" stroke="none">
<path d="M102 240 l0 -66 39 2 39 2 1 -77 c1 -42 1 -79 0 -83 l0 -6 17 3 c9 2 19 4 22 4 3 1 5 18 5 38 l0 37 50 2 49 3 -14 -9 -15 -10 10 0 c6 0 -1 -6 -15 -13 l-25 -13 -3 -21 -3 -21 15 2 c17 2 31 14 31 25 0 4 8 15 18 25 l17 17 0 -34 0 -34 24 4 24 5 -3 55 c-2 30 -6 58 -10 61 -3 3 -40 6 -81 5 l-75 -1 3 17 3 16 33 1 33 0 10 15 c13 20 11 29 -6 29 l-15 0 -30 26 -29 27 6 10 6 9 -13 8 -13 8 -13 -5 -14 -5 2 -23 2 -24 7 5 c11 7 37 -6 43 -22 l6 -15 -48 4 -47 4 1 36 1 35 -22 5 -23 4 0 -67z"/>
</g>
</svg>