<svg xmlns="http://www.w3.org/2000/svg" version="1.0" width="710.6pt" height="511.680000pt" viewBox="0 0 710.6 511.680000" preserveAspectRatio="xMidYMid meet">
<metadata>
Created by potrace 1.13, written by Peter Selinger 2001-2015
</metadata>
<g transform="translate(0.0,511.680000) scale(0.048000,-0.048000) skewX(5)" fill="#000000" stroke="none">
<path d="M261 10400 l-2 -126 28 2 c15 1 36 3 45 3 l17 1 -4 63 c-2 34 -2 70 1 79 l5 17 34 -2 35 -2 0 -76 0 -77 35 -4 c19 -2 39 -2 44 2 l9 5 -3 65 c-1 36 -1 70 2 76 l4 12 35 0 34 0 1 -76 c1 -43 1 -80 0 -84 l0 -6 17 3 c9 2 29 4 43 4 l27 1 -2 115 c-1 63 -5 117 -8 120 l-6 6 -195 2 -195 2 -1 -125z"/>
<path d="M901 10489 l-2 -36 13 -10 c7 -5 19 -8 26 -7 6 1 20 2 30 3 l17 1 0 39 1 39 -41 4 -41 3 -3 -36z"/>
<path d="M1072 10522 l-12 -4 0 -32 0 -32 11 -11 10 -10 31 6 31 6 2 38 3 37 -7 1 c-28 4 -58 5 -69 1z"/>
<path d="M1239 10518 l-20 -8 2 -37 3 -38 78 1 78 1 0 -116 0 -117 -70 -1 c-38 -1 -74 -5 -80 -8 l-10 -6 0 -37 0 -38 108 2 c59 2 114 3 123 3 l16 1 -1 195 -2 194 -6 6 c-3 3 -49 7 -102 8 l-97 2 -20 -7z"/>
<path d="M1540 10481 l0 -47 28 2 27 1 33 -33 c17 -19 32 -39 32 -46 l0 -11 6 6 6 6 14 -14 14 -14 0 -45 0 -46 -19 12 c-11 7 -18 15 -16 18 3 4 -6 12 -19 19 l-22 12 4 28 4 28 -24 5 -25 5 -22 -9 -22 -8 2 -39 3 -39 24 4 23 5 35 -35 c19 -19 34 -40 34 -47 l0 -12 6 6 6 6 14 -14 14 -14 0 -18 c0 -11 5 -24 11 -30 l10 -10 32 6 32 7 1 107 1 106 -8 12 -7 12 -26 0 c-15 0 -25 2 -22 4 3 3 -17 27 -45 54 l-49 48 -2 25 -2 26 -16 1 c-8 1 -27 2 -42 3 l-28 3 0 -46z"/>
<path d="M1863 10479 l0 -47 16 3 c9 2 27 4 42 4 l25 1 1 35 1 35 -9 5 c-4 3 -24 7 -42 8 l-34 3 0 -47z"/>
<path d="M2055 10521 l-30 -6 -3 -38 -3 -37 45 0 46 0 -5 37 c-2 20 -8 39 -12 43 l-8 6 -30 -5z"/>
<path d="M2020 10302 l0 -64 -40 42 -39 41 -21 4 -20 4 0 -30 0 -29 9 3 c11 3 71 -59 71 -75 l0 -11 6 6 6 6 14 -14 14 -14 0 -28 0 -29 40 4 c22 2 41 7 41 11 1 3 3 48 5 100 l2 94 -7 20 -8 20 -36 1 -37 1 0 -63z"/>
<path d="M1064 10321 l5 -8 -38 -37 -37 -36 -9 7 -8 8 6 -11 6 -10 -18 -16 -17 -15 -26 1 -25 2 0 -47 0 -47 16 3 c9 2 29 4 45 4 l28 1 -6 16 -6 15 10 20 c14 25 59 69 71 69 l10 0 -6 10 -6 10 16 0 16 0 -6 10 -6 10 16 0 16 0 -3 16 -3 17 -23 8 -23 9 5 -9z"/>
<path d="M442 10199 l-22 -8 0 -21 0 -21 -32 -34 c-17 -19 -34 -33 -36 -30 -3 3 -10 -5 -17 -18 l-11 -22 -31 0 -31 0 -1 -126 -2 -125 38 2 c21 1 40 2 43 3 3 1 5 51 4 111 l-1 110 15 0 15 0 -6 6 -6 6 14 14 c7 8 19 14 25 14 l11 0 -6 10 -6 10 11 0 c6 0 18 6 25 14 l14 14 -6 6 -6 6 31 0 31 0 6 20 6 20 -6 19 -6 19 -17 4 -18 5 -22 -8z"/>
<path d="M581 10080 l1 -128 17 3 c9 2 28 4 42 4 l26 1 -1 120 -1 120 -15 1 c-8 1 -28 2 -43 3 l-28 3 2 -127z"/>
<path d="M740 10080 l0 -126 40 4 c22 2 41 7 41 11 1 3 3 48 5 100 l2 94 -7 20 -8 20 -36 1 -37 1 0 -125z"/>
<path d="M432 10042 l-12 -4 0 -32 0 -32 11 -11 10 -10 31 6 31 6 2 38 3 37 -7 1 c-28 4 -58 5 -69 1z"/>
<path d="M1547 10033 c-4 -3 -7 -23 -7 -43 l0 -37 28 2 27 2 17 -15 18 -15 -7 -11 -6 -11 8 7 7 7 14 -14 c8 -7 14 -15 14 -18 0 -2 -26 -3 -59 -3 l-58 1 0 -45 0 -45 76 2 c42 0 97 2 123 2 l48 1 -5 35 c-2 20 -6 39 -9 44 l-6 8 -27 -5 -28 -5 7 8 7 7 -14 14 c-7 8 -18 14 -24 14 -5 0 -12 8 -15 18 l-6 19 -25 13 -26 14 2 15 c1 9 1 22 0 29 l-1 12 -33 0 c-19 0 -37 -3 -40 -7z"/>
<path d="M279 9678 l-19 -7 0 -109 0 -108 11 -11 10 -10 32 6 32 7 0 76 -1 77 38 -1 38 0 1 -77 c1 -42 1 -79 0 -83 l0 -6 17 3 c9 2 29 4 44 4 l27 1 -4 80 -3 80 39 -3 39 -2 0 -80 0 -81 40 4 c22 2 41 7 41 11 1 3 3 48 5 100 l2 94 -7 20 -8 20 -177 1 -177 1 -20 -7z"/>
<path d="M935 9681 l-30 -6 -3 -38 -3 -37 45 0 46 0 -5 37 c-2 20 -8 39 -12 43 l-8 6 -30 -5z"/>
<path d="M1067 9673 c-4 -3 -7 -23 -7 -43 l0 -36 38 2 c20 1 39 2 42 3 4 1 4 37 1 74 l-1 7 -33 0 c-19 0 -37 -3 -40 -7z"/>
<path d="M900 9483 l0 -43 33 -1 c36 -1 255 -1 329 0 l48 1 -5 36 c-2 20 -7 39 -10 42 -2 3 -93 6 -200 6 l-195 1 0 -42z"/>
<path d="M422 9337 l-2 -29 -14 -13 -14 -14 -6 6 -6 6 0 -11 c0 -7 -10 -23 -22 -37 l-21 -24 -9 5 -8 5 0 -15 0 -15 -27 -3 -28 -3 -3 -116 -3 -117 36 -4 c19 -2 39 -2 43 1 l9 6 -1 108 -1 107 13 0 13 0 -6 10 -6 10 15 0 16 0 0 8 c0 12 56 67 69 68 6 1 19 2 29 3 l17 1 0 39 1 39 -41 4 -41 3 -2 -28z"/>
<path d="M592 9362 l-12 -4 0 -122 0 -122 28 2 c15 1 34 3 43 3 l17 1 -2 120 c0 66 -3 120 -6 121 -21 4 -57 5 -68 1z"/>
<path d="M762 9359 l-22 -8 0 -109 0 -110 13 -9 c6 -5 18 -8 25 -7 6 1 20 2 30 3 l17 1 2 119 2 119 -23 4 -23 5 -21 -8z"/>
<path d="M427 9193 c-4 -3 -7 -23 -7 -43 l0 -36 38 2 c20 1 39 2 42 3 4 1 4 37 1 74 l-1 7 -33 0 c-19 0 -37 -3 -40 -7z"/>
<path d="M401 8179 l2 -67 11 2 c6 1 16 5 22 8 l11 7 -2 36 -3 35 17 -2 16 -3 5 -35 5 -35 20 0 20 0 0 35 0 35 18 3 17 3 0 -34 0 -35 14 -11 14 -12 6 10 c4 5 8 33 10 61 l4 50 -10 6 c-6 4 -53 7 -105 8 l-94 1 2 -66z"/>
<path d="M940 8242 l-45 -3 -9 -9 -9 -9 12 -15 12 -14 29 5 30 4 0 -61 0 -62 -38 4 -38 3 -1 -17 -2 -18 10 -6 c6 -3 31 -7 55 -8 l45 -2 7 10 c3 6 6 52 7 103 l0 93 -10 2 c-5 2 -30 2 -55 0z"/>
<path d="M1052 8241 l-11 -7 1 -20 2 -20 18 -1 c10 -1 25 -8 33 -16 l14 -15 -6 -6 -6 -6 11 0 12 0 0 -27 0 -26 -20 18 -21 19 5 13 5 13 -7 1 c-4 0 -15 2 -24 4 l-18 3 0 -29 0 -30 12 7 11 7 38 -43 38 -43 14 6 14 5 -3 49 c-2 26 -7 54 -9 62 l-5 14 -7 -6 -6 -7 -29 30 -29 31 6 8 5 9 -13 5 -14 5 -11 -7z"/>
<path d="M1280 8133 l0 -34 -27 26 -28 25 -3 -16 -4 -16 31 -25 31 -26 0 -13 0 -14 23 0 22 0 0 59 0 60 -22 4 -23 4 0 -34z"/>
<path d="M772 8113 l-33 -33 -10 5 -9 6 0 -24 0 -25 14 -5 15 -6 11 15 12 14 -8 0 c-4 0 9 16 29 35 41 39 42 41 25 47 l-13 4 -33 -33z"/>
<path d="M493 8083 c-7 -3 -13 -9 -13 -14 0 -5 -12 -23 -27 -39 l-27 -31 -13 5 -13 5 0 -69 0 -69 23 8 22 8 0 51 0 50 24 26 24 25 10 -2 11 -2 4 19 4 18 -9 8 -8 8 -12 -5z"/>
<path d="M571 8077 l-11 -11 0 -47 0 -47 14 -11 14 -12 7 12 c4 6 9 35 10 65 l2 53 -12 5 -13 4 -11 -11z"/>
<path d="M640 8024 l0 -64 23 0 22 0 0 59 0 60 -22 4 -23 4 0 -63z"/>
<path d="M491 8001 l-14 -9 6 -16 6 -16 15 0 c8 0 17 4 20 9 l5 8 -12 16 -12 17 -14 -9z"/>
<path d="M1040 7978 l0 -29 9 5 9 6 15 -6 c9 -3 18 -12 21 -20 l6 -15 -30 5 -30 4 0 -24 0 -24 13 -1 c29 -3 100 1 108 7 l9 5 -10 20 -11 20 -9 -6 -8 -5 -26 31 -26 31 5 8 5 8 -25 4 -25 5 0 -29z"/>
<path d="M5000 5800 l0 -68 13 2 c6 1 17 5 22 8 l11 7 -2 51 c-1 53 -5 63 -29 66 l-15 2 0 -68z"/>
<path d="M5093 5863 l-13 -5 0 -53 0 -53 14 -11 14 -12 8 13 8 13 1 48 1 48 -11 8 -10 8 -12 -4z"/>
<path d="M4933 5783 l-13 -5 0 -14 0 -14 -12 0 -11 0 6 -6 7 -7 -22 -18 c-11 -11 -27 -19 -35 -19 l-13 0 0 -60 0 -60 20 0 c23 0 22 -1 24 60 l1 46 23 24 c13 14 27 26 33 26 5 1 13 2 17 3 4 0 8 10 8 21 l0 20 -11 3 c-5 2 -16 2 -22 0z"/>
<path d="M5649 5736 c-5 -6 -9 -16 -9 -23 l0 -13 13 -1 c6 -1 24 0 40 1 l27 2 0 -60 0 -60 -38 2 -38 2 -1 -18 c-1 -10 2 -20 7 -23 7 -5 81 -9 105 -6 l10 1 0 100 0 100 -15 1 c-8 1 -32 2 -53 3 l-38 1 -10 -9z"/>
<path d="M6389 5738 c-1 -2 -3 -13 -4 -25 l-2 -22 7 4 c5 3 15 2 23 -1 l16 -6 -6 -15 -6 -15 -17 5 -16 4 0 -27 0 -28 11 4 11 5 20 -22 19 -22 -30 5 -31 4 -2 -23 -2 -23 20 -1 c11 -1 27 -1 35 -1 8 0 28 0 44 1 l30 1 -2 20 -1 20 -16 0 c-16 0 -40 18 -40 31 0 3 8 6 18 6 9 0 22 1 29 2 l12 1 -8 23 c-5 12 -10 20 -12 17 -7 -8 -51 34 -60 58 l-9 22 -15 0 c-8 0 -16 -1 -16 -2z"/>
<path d="M4920 5681 l0 -28 24 4 25 5 -2 19 c-1 10 -4 19 -7 20 -3 0 -13 2 -22 4 l-18 3 0 -27z"/>
<path d="M4753 5675 l-12 -13 6 -6 6 -6 -16 0 -17 0 0 -9 c0 -6 4 -12 9 -16 l10 -5 24 24 25 25 -11 10 -12 9 -12 -13z"/>
<path d="M3600 5646 l0 -24 15 -6 15 -5 10 19 10 19 -7 4 c-5 2 -16 7 -25 10 l-18 6 0 -23z"/>
<path d="M3680 5640 l0 -28 20 5 20 5 0 18 0 18 -20 5 -20 5 0 -28z"/>
<path d="M3771 5661 l-14 -9 6 -16 6 -16 15 0 c8 0 17 4 20 9 l5 8 -12 16 -12 17 -14 -9z"/>
<path d="M5800 5644 l0 -23 22 -7 c12 -3 30 -16 40 -28 l17 -21 1 -24 0 -24 -19 22 c-11 13 -22 28 -24 34 l-3 11 -17 -7 -17 -6 0 -19 0 -18 20 -1 20 -2 16 -15 c8 -9 13 -16 10 -16 -3 0 4 -11 15 -24 l21 -24 12 4 11 4 -2 53 c-1 28 -2 55 -2 60 -1 4 -5 7 -11 7 -15 0 -50 32 -65 61 l-14 26 -15 0 -16 0 0 -23z"/>
<path d="M3933 5623 l-13 -5 0 -53 0 -54 10 -6 c9 -6 94 -9 165 -6 l30 1 -2 57 -1 57 -21 8 -21 7 0 -43 0 -44 -17 2 -18 3 0 33 0 33 -22 8 -23 8 1 -7 c1 -4 1 -24 0 -45 l-1 -38 -17 3 -18 3 -1 33 0 32 -10 9 -9 9 -12 -5z"/>
<path d="M4260 5530 l0 -98 13 -10 13 -11 10 7 10 7 0 98 c0 53 -3 97 -6 98 -3 0 -13 2 -22 4 l-18 3 0 -98z"/>
<path d="M4341 5556 l2 -64 11 2 c6 1 16 5 22 9 l11 7 -2 47 c-3 64 -2 63 -26 63 l-20 0 2 -64z"/>
<path d="M3600 5564 l0 -24 25 0 25 0 0 8 c0 15 -19 36 -34 38 l-16 2 0 -24z"/>
<path d="M3680 5559 l0 -28 22 8 21 8 3 15 2 16 -24 5 -24 4 0 -28z"/>
<path d="M3772 5578 c-6 -6 -12 -20 -12 -29 l0 -17 15 2 c8 1 20 7 25 12 l10 10 -13 17 -12 18 -13 -13z"/>
<path d="M4496 5519 l-5 -29 -16 0 -16 0 6 -10 6 -9 -25 -7 -26 -6 2 -22 2 -22 23 4 23 4 -5 8 -5 7 20 23 20 23 0 -25 0 -26 14 -11 13 -11 10 12 10 13 1 53 1 52 -7 1 c-4 0 -14 2 -23 4 l-17 3 -6 -29z"/>
<path d="M3600 5479 l0 -27 18 3 c9 2 19 4 22 4 3 1 6 10 6 20 l0 19 -23 5 -23 4 0 -28z"/>
<path d="M3680 5485 l0 -23 15 -5 14 -6 8 12 c10 16 13 37 5 38 -4 0 -15 2 -24 4 l-18 3 0 -23z"/>
<path d="M3773 5503 l-13 -5 0 -19 0 -19 19 0 c11 0 22 4 25 9 l5 8 -12 15 -12 16 -12 -5z"/>
<path d="M5720 5472 l0 -36 -29 28 -30 28 3 -13 c2 -8 6 -22 11 -31 l7 -18 15 0 14 0 -6 -10 -6 -10 10 0 11 0 0 -19 0 -19 15 2 c22 3 24 8 29 69 l4 57 -7 1 c-3 0 -14 2 -23 4 l-18 3 0 -36z"/>
<path d="M4465 5410 l-6 -10 7 -11 7 -12 -25 5 -25 5 1 -21 1 -21 22 -3 23 -3 -6 15 -6 16 18 7 c22 8 35 24 28 35 -7 11 -32 10 -39 -2z"/>
<path d="M4507 5373 c-4 -3 -7 -12 -7 -20 l0 -13 19 0 19 0 5 20 5 20 -17 0 c-10 0 -21 -3 -24 -7z"/>
<path d="M3920 5324 l0 -44 -60 1 -60 1 0 40 0 39 -17 -3 -18 -3 -3 -48 -3 -49 10 -12 10 -12 86 2 85 1 7 7 7 7 1 54 0 54 -22 4 -23 4 0 -43z"/>
<path d="M3941 5143 l-2 -63 27 0 27 0 -6 40 -5 40 19 0 19 0 1 -37 c1 -21 1 -41 1 -44 l-1 -6 24 5 23 4 0 27 c0 14 0 32 1 39 l1 12 15 0 15 0 0 -44 0 -44 18 3 c9 2 20 4 23 4 l7 1 -2 54 -1 54 -7 8 -7 7 -94 1 -94 1 -2 -62z"/>
<path d="M4241 5099 l1 -107 12 2 c6 1 16 5 22 8 l11 7 -2 36 -3 35 17 -2 16 -3 5 -35 5 -35 20 0 20 0 0 88 0 89 -7 11 -6 10 -57 1 -56 1 2 -106z m79 43 l0 -18 -19 -1 -20 -2 2 20 1 19 18 0 18 0 0 -18z"/>
<path d="M4723 5179 l-23 -8 0 -16 0 -15 30 0 c17 0 33 0 38 0 l7 0 5 -77 5 -78 21 -3 20 -3 1 96 1 95 -9 5 c-5 4 -23 7 -41 9 l-33 3 -22 -8z"/>
<path d="M5421 4839 l0 -106 23 4 23 5 0 21 c0 12 1 29 2 38 l1 16 15 0 15 0 0 -39 0 -38 23 0 22 0 2 81 2 81 -8 20 -7 21 -56 1 -57 1 0 -106z m79 39 l0 -18 -20 0 -20 0 0 13 c0 18 6 24 25 24 l15 0 0 -19z"/>
<path d="M5830 4940 l-9 -6 1 -19 2 -20 78 1 78 1 0 -18 0 -18 -80 3 -80 3 0 -26 0 -26 97 2 c54 1 101 2 106 2 l7 1 -4 56 c-3 31 -7 58 -9 60 -6 6 -178 10 -187 4z"/>
<path d="M6105 4860 l-40 -5 -1 -22 -1 -21 12 5 13 4 26 -28 c28 -30 33 -43 14 -43 l-11 0 6 -7 7 -6 -33 -24 -32 -24 -1 -18 -1 -18 19 5 20 5 6 16 c3 9 12 22 19 29 l13 13 0 -34 0 -34 24 4 24 5 -2 54 -3 55 -11 11 -12 12 0 -8 0 -8 -15 12 c-8 7 -15 16 -15 21 l0 9 30 0 30 0 0 8 c-1 28 -31 40 -85 32z"/>
<path d="M5660 4846 l0 -15 -20 -14 -20 -14 7 -6 6 -7 -19 -1 c-10 -1 -22 -1 -26 0 l-8 1 0 -29 0 -29 17 2 17 3 4 14 c3 8 13 22 23 31 l18 18 3 -28 3 -27 21 -3 20 -3 0 61 -1 60 -22 0 -23 0 0 -14z"/>
<path d="M5980 4772 l0 -17 -30 -28 -30 -28 -8 5 -8 5 -2 -29 -2 -28 15 2 16 2 22 35 22 34 3 -32 3 -33 19 0 19 0 5 18 c2 9 4 34 3 56 l-2 39 -22 8 -23 8 0 -17z"/>
<path d="M6070 4775 l-12 -14 7 -11 6 -10 20 0 19 0 0 19 0 19 -14 5 -15 6 -11 -14z"/>
<path d="M5633 4743 l-13 -5 0 -18 0 -19 -18 4 -18 3 0 -28 0 -28 15 3 c9 2 19 4 24 4 4 1 7 10 7 21 l0 20 14 0 c8 0 18 5 22 11 l6 11 -13 13 -14 13 -12 -5z"/>
<path d="M5667 4693 c-4 -3 -7 -12 -7 -20 l0 -13 18 0 c10 0 21 3 25 6 l6 6 -6 14 -5 14 -12 0 c-7 0 -16 -3 -19 -7z"/>
<path d="M5944 4649 l-6 -11 13 -14 14 -13 13 8 13 8 -7 16 -6 17 -13 0 c-8 0 -17 -5 -21 -11z"/>
<path d="M5900 4600 l0 -28 18 2 17 3 0 23 0 23 -17 3 -18 2 0 -28z"/>
<path d="M5985 4610 l-6 -10 6 -10 c3 -5 15 -10 25 -10 l19 0 -2 20 -1 20 -18 0 c-9 0 -20 -4 -23 -10z"/>
<path d="M5538 4535 l-11 -25 -14 0 -14 0 6 -10 6 -9 -25 -7 -26 -6 2 -23 2 -22 18 5 18 4 0 12 c0 6 9 19 20 29 l20 17 0 -29 0 -29 -21 -5 -21 -6 4 -13 5 -13 22 -3 21 -3 -1 8 c-1 4 -1 14 0 21 l1 12 19 0 19 0 -1 60 -2 60 -18 0 -17 0 -12 -25z"/>
<path d="M3840 4444 l0 -62 14 -5 15 -6 9 12 9 12 -2 33 -2 32 18 0 19 0 0 -41 0 -40 22 3 23 3 0 35 0 35 15 0 15 0 5 -35 5 -35 20 -3 21 -3 -1 55 c-1 31 -4 58 -7 61 -3 3 -49 7 -102 8 l-96 2 0 -61z"/>
<path d="M4156 4479 l-5 -29 -16 0 -16 0 5 -9 6 -9 -16 -6 -16 -6 -9 6 -9 5 0 -65 0 -66 24 0 23 0 -4 48 -5 47 28 33 27 32 16 0 17 0 0 20 c0 11 -3 20 -6 21 -3 0 -12 2 -21 4 l-17 3 -6 -29z"/>
<path d="M4252 4501 l-13 -8 3 -54 3 -54 20 0 20 0 -3 55 c-1 30 -6 58 -10 62 l-7 7 -13 -8z"/>
<path d="M4331 4497 l-11 -11 0 -47 0 -47 14 -11 14 -12 7 12 c4 6 9 35 10 65 l2 53 -12 5 -13 4 -11 -11z"/>
<path d="M5088 4479 l-9 -6 2 -60 2 -61 11 2 c6 1 16 5 22 8 l10 7 -1 35 -2 35 19 -2 18 -1 0 -37 0 -37 15 -5 14 -6 8 12 c4 6 7 25 7 41 l1 31 18 3 17 3 0 -44 0 -44 23 4 22 4 0 54 -1 54 -8 8 -8 8 -85 0 c-47 0 -89 -3 -95 -6z"/>
<path d="M5620 4471 l0 -16 40 -35 40 -35 0 -16 0 -17 20 5 c11 3 23 10 26 15 l6 9 -12 14 -12 15 -8 -5 -7 -4 -28 29 -27 28 6 11 7 11 -8 1 c-4 0 -16 2 -25 4 l-18 3 0 -17z"/>
<path d="M5395 4449 l-6 -19 -10 0 c-6 0 -17 -7 -26 -15 l-15 -15 -9 5 -9 6 0 -29 0 -29 26 5 25 5 -5 13 -5 13 35 30 c39 34 40 37 20 44 l-15 6 -6 -20z"/>
<path d="M4160 4400 l0 -28 20 5 20 5 0 18 0 18 -20 5 -20 5 0 -28z"/>
<path d="M5464 4386 l1 -21 20 0 20 0 3 16 3 16 -24 5 -24 5 1 -21z"/>
<path d="M5622 4384 l-2 -24 25 0 25 0 0 20 c0 11 -3 20 -7 21 -5 0 -15 2 -23 4 l-16 3 -2 -24z"/>
<path d="M5547 4393 c-4 -3 -7 -14 -7 -24 l0 -18 18 6 c20 8 33 24 26 35 -6 10 -28 10 -37 1z"/>
</g>
</svg>