<svg xmlns="http://www.w3.org/2000/svg" version="1.0" width="24.2pt" height="19.200000pt" viewBox="0 0 24.2 19.200000" preserveAspectRatio="xMidYMid meet">
<metadata>
Created by potrace 1.13, written by Peter Selinger 2001-2015
</metadata>
<g transform="translate(0.0,19.200000) scale(0.048000,-0.048000) skewX(5)" fill="#000000" stroke="none">
<path d="M62 302 l-43 -3 3 -97 3 -97 54 -5 53 -6 10 22 10 22 14 -5 13 -5 3 -51 3 -52 53 -5 54 -6 10 21 c6 11 11 21 10 23 -1 1 -2 11 -2 22 l0 20 39 0 39 0 -2 18 -1 17 -40 5 c-22 3 -50 3 -62 1 l-23 -3 0 -39 0 -39 -20 0 -19 0 5 39 6 39 -24 4 -23 3 0 15 0 14 20 6 20 5 0 58 0 57 -35 1 c-19 0 -46 1 -60 2 -14 1 -44 1 -68 -1z m118 -77 l0 -33 -15 -6 -15 -5 -1 12 c-1 7 -1 15 0 20 l1 7 -25 0 -25 0 0 -14 0 -14 23 -15 22 -15 -7 -7 c-4 -4 -22 -9 -41 -12 l-33 -4 2 58 c2 32 3 59 4 60 0 2 25 2 55 2 l55 -2 0 -32z"/>
<path d="M260 205 l0 -25 19 0 c36 0 35 30 -1 43 l-18 6 0 -24z"/>
<path d="M340 206 c0 -7 6 -18 13 -24 l13 -11 9 7 c6 4 11 15 11 25 l2 17 -24 0 -24 0 0 -14z"/>
</g>
</svg>