<svg xmlns="http://www.w3.org/2000/svg" version="1.0" width="51.08pt" height="19.200000pt" viewBox="0 0 51.08 19.200000" preserveAspectRatio="xMidYMid meet">
<metadata>
Created by potrace 1.13, written by Peter Selinger 2001-2015
</metadata>
<g transform="translate(0.0,19.200000) scale(0.048000,-0.048000) skewX(5)" fill="#000000" stroke="none">
<path d="M20 324 l0 -62 15 -6 16 -6 8 24 c5 12 9 31 8 42 l-2 18 17 4 17 3 3 -38 3 -38 20 0 19 0 1 35 1 35 16 3 17 3 3 -38 3 -38 21 -3 20 -3 0 61 -1 60 -15 1 c-8 0 -54 1 -103 2 l-87 2 0 -61z"/>
<path d="M342 367 l-1 -21 11 -7 11 -7 14 5 13 5 0 19 c0 10 -3 19 -7 20 -5 0 -15 2 -23 4 l-16 3 -2 -21z"/>
<path d="M422 360 l-2 -28 17 2 18 3 0 23 0 23 -15 2 -16 3 -2 -28z"/>
<path d="M500 370 l0 -18 13 -9 12 -10 28 2 27 2 0 -59 0 -58 -27 1 c-16 1 -34 1 -40 0 l-13 -1 0 -20 0 -20 10 -1 c6 -1 16 -2 23 -3 6 -1 30 1 52 4 l40 5 0 98 0 97 -35 1 c-19 1 -47 2 -62 3 l-28 3 0 -17z"/>
<path d="M662 364 l-2 -24 12 0 c6 0 24 -13 39 -30 l29 -30 0 -21 0 -22 -19 17 -20 18 5 13 5 12 -25 5 -26 5 0 -23 0 -24 15 0 14 0 26 -25 c23 -23 29 -37 26 -57 0 -7 26 -5 34 3 8 9 12 85 5 105 l-7 19 -12 0 c-6 0 -22 13 -36 29 l-25 29 6 8 5 9 -8 1 c-4 0 -15 2 -23 4 l-16 3 -2 -24z"/>
<path d="M822 364 l-2 -24 24 0 24 0 -5 19 -5 19 -17 5 -17 4 -2 -23z"/>
<path d="M900 360 l0 -20 10 0 c6 0 13 0 17 -1 4 0 10 9 15 20 l7 21 -24 0 -25 0 0 -20z"/>
<path d="M901 302 c1 -4 1 -20 0 -36 l-1 -29 -19 21 c-19 22 -41 29 -41 13 0 -5 17 -27 39 -50 l39 -41 14 0 14 0 -2 56 c-2 31 -5 59 -9 62 -8 9 -35 11 -34 4z"/>
<path d="M418 267 c-7 -7 -28 -23 -45 -36 l-33 -22 0 -19 0 -18 20 5 19 5 6 19 c3 10 19 29 36 43 16 14 29 27 29 30 0 10 -18 6 -32 -7z"/>
<path d="M181 165 l-2 -62 14 -6 14 -5 11 7 11 6 -4 45 c-2 25 -4 50 -4 56 l-1 12 -18 4 -19 5 -2 -62z"/>
<path d="M100 206 l0 -16 -12 0 -11 0 6 -6 7 -7 -22 -19 -22 -19 -13 6 -14 5 3 -63 3 -62 22 -3 22 -3 -4 50 -4 51 25 30 c14 16 28 29 32 29 4 -1 12 -1 19 0 l11 1 -2 18 -3 17 -21 3 -22 3 0 -15z"/>
<path d="M260 156 l0 -64 15 2 c23 3 26 11 28 70 l2 56 -22 0 -23 0 0 -64z"/>
<path d="M102 120 l2 -28 16 3 c8 2 18 4 22 4 l7 1 -8 22 -8 21 -16 3 -17 2 2 -28z"/>
<path d="M662 124 l-2 -24 14 0 c7 0 21 -9 32 -21 l19 -21 -30 5 -31 5 -2 -23 -2 -23 13 -4 c6 -2 32 -4 57 -4 l45 1 0 23 c0 12 -2 21 -5 20 -9 -4 -70 55 -70 67 l0 13 -18 4 -18 5 -2 -23z"/>
</g>
</svg>