<svg xmlns="http://www.w3.org/2000/svg" version="1.0" width="70.28pt" height="19.200000pt" viewBox="0 0 70.28 19.200000" preserveAspectRatio="xMidYMid meet">
<metadata>
Created by potrace 1.13, written by Peter Selinger 2001-2015
</metadata>
<g transform="translate(0.0,19.200000) scale(0.048000,-0.048000) skewX(5)" fill="#000000" stroke="none">
<path d="M23 288 l-2 -18 11 -6 c6 -4 24 -7 39 -6 l29 1 0 -83 0 -83 24 4 23 5 -2 94 -2 94 -7 7 -7 8 -53 0 -52 0 -1 -17z"/>
<path d="M351 297 l-11 -11 0 -87 0 -88 10 -6 c6 -3 31 -7 56 -8 l45 -1 9 14 c6 8 10 18 10 23 l0 7 -30 1 c-16 1 -36 2 -42 3 l-13 1 0 77 0 78 -11 4 -12 4 -11 -11z"/>
<path d="M420 240 l0 -68 20 5 20 5 1 17 c1 9 3 33 4 54 l2 38 -11 7 c-6 3 -17 7 -23 8 l-13 2 0 -68z"/>
<path d="M509 296 c-5 -6 -9 -16 -9 -22 l0 -13 22 -7 c12 -3 28 -13 36 -20 l13 -14 -8 0 c-4 0 -1 -5 7 -10 l15 -10 -24 -20 c-13 -11 -19 -20 -15 -20 5 0 1 -5 -9 -11 l-17 -10 -10 6 -10 6 2 -29 2 -30 16 3 c8 2 19 4 23 4 l8 1 -5 9 -6 9 20 23 19 24 2 -30 c1 -16 1 -33 0 -37 0 -3 7 -5 16 -4 l17 3 9 27 9 27 -9 35 -8 35 -8 -1 c-9 -1 -37 25 -37 34 0 3 14 6 30 6 l30 0 0 20 0 20 -17 1 c-10 1 -35 2 -56 3 l-38 1 -10 -9z"/>
<path d="M249 266 l-24 -35 -22 -10 -23 -11 0 -20 0 -21 8 5 8 5 14 -10 15 -9 -15 -9 c-8 -5 -17 -8 -20 -6 -3 2 -7 -9 -8 -25 l-2 -28 17 3 c10 2 22 4 26 4 l8 1 -3 16 -3 17 12 4 12 4 11 -20 11 -21 13 0 14 0 6 15 6 16 -25 9 -25 9 6 16 6 15 8 -5 9 -5 6 9 c8 14 14 93 8 108 -3 7 -11 13 -18 13 l-12 0 -24 -34z m7 -72 c-3 -8 -10 -14 -16 -14 l-10 0 0 15 c0 9 6 22 13 29 l12 14 3 -15 c2 -8 1 -21 -2 -29z"/>
<path d="M504 207 l1 -22 18 -3 17 -3 0 10 c0 6 0 14 1 18 0 4 -8 10 -19 14 l-19 7 1 -21z"/>
<path d="M22 43 l-2 -23 18 -1 c9 0 34 -2 55 -3 20 -1 42 1 47 4 l11 7 -7 16 -6 17 -22 1 c-11 0 -37 1 -57 2 l-35 2 -2 -22z"/>
<path d="M349 56 c-12 -13 -12 -36 1 -37 6 -1 21 -1 35 -1 14 0 39 0 55 1 l30 1 0 20 0 20 -17 1 c-10 1 -35 2 -56 3 l-38 1 -10 -9z"/>
</g>
</svg>