<svg xmlns="http://www.w3.org/2000/svg" version="1.0" width="43.4pt" height="19.200000pt" viewBox="0 0 43.4 19.200000" preserveAspectRatio="xMidYMid meet">
<metadata>
Created by potrace 1.13, written by Peter Selinger 2001-2015
</metadata>
<g transform="translate(0.0,19.200000) scale(0.048000,-0.048000) skewX(5)" fill="#000000" stroke="none">
<path d="M20 280 l0 -20 80 0 80 0 0 -40 0 -40 20 0 20 0 0 60 0 60 -100 0 -100 0 0 -20z"/>
<path d="M340 288 c0 -7 -12 -25 -27 -40 l-27 -28 -13 0 -13 0 0 -19 0 -19 20 -5 20 -5 0 -12 0 -12 -20 -5 -20 -5 0 -19 0 -19 19 0 19 0 5 20 5 20 12 0 12 0 5 -20 5 -20 19 0 19 0 0 19 0 19 -20 5 -20 5 0 12 0 12 20 5 20 5 0 59 0 59 -20 0 -20 0 0 -12z m-9 -101 l-11 -11 -12 12 -12 12 20 21 19 21 3 -22 4 -22 -11 -11z"/>
<path d="M420 240 l0 -60 20 0 20 0 0 40 0 40 20 0 20 0 0 -40 0 -40 20 0 20 0 0 40 0 40 20 0 20 0 0 -40 0 -40 20 0 20 0 0 60 0 60 -100 0 -100 0 0 -60z"/>
<path d="M660 280 l0 -20 13 0 13 0 29 -30 29 -30 -29 -30 -29 -30 -13 0 -13 0 0 -20 0 -20 20 0 20 0 0 13 c0 8 9 22 20 32 l20 18 0 -31 0 -32 20 0 20 0 0 60 0 60 -13 0 c-8 0 -22 9 -32 20 l-18 20 31 0 32 0 0 20 0 20 -60 0 -60 0 0 -20z"/>
<path d="M660 200 l0 -20 20 0 20 0 0 20 0 20 -20 0 -20 0 0 -20z"/>
</g>
</svg>