<svg xmlns="http://www.w3.org/2000/svg" version="1.0" width="78.92pt" height="19.200000pt" viewBox="0 0 78.92 19.200000" preserveAspectRatio="xMidYMid meet">
<metadata>
Created by potrace 1.13, written by Peter Selinger 2001-2015
</metadata>
<g transform="translate(0.0,19.200000) scale(0.048000,-0.048000) skewX(5)" fill="#000000" stroke="none">
<path d="M100 220 l0 -80 -20 0 -20 0 0 40 0 40 -20 0 -20 0 0 -60 0 -60 60 0 60 0 0 100 0 100 -20 0 -20 0 0 -80z"/>
<path d="M180 240 l0 -60 40 0 40 0 0 -80 0 -80 20 0 20 0 0 40 0 40 52 0 51 0 -18 -20 c-10 -11 -24 -20 -32 -20 l-13 0 0 -20 0 -20 20 0 20 0 0 13 c0 8 9 22 20 32 l20 18 0 -31 0 -32 20 0 20 0 0 60 0 60 -80 0 -80 0 0 20 0 20 40 0 40 0 0 20 0 20 -13 0 -13 0 -27 28 c-15 15 -27 33 -27 40 l0 12 -20 0 -20 0 0 -20 0 -20 13 0 c8 0 22 -9 32 -20 l18 -20 -51 0 -52 0 0 40 0 40 -20 0 -20 0 0 -60z"/>
<path d="M740 200 l0 -100 20 0 20 0 0 72 0 71 20 -18 c11 -10 20 -24 20 -32 l0 -13 20 0 20 0 0 20 0 20 -13 0 -13 0 -27 28 c-15 15 -27 33 -27 40 l0 12 -20 0 -20 0 0 -100z"/>
<path d="M900 240 l0 -60 40 0 40 0 0 -80 0 -80 20 0 20 0 0 40 0 40 52 0 51 0 -18 -20 c-10 -11 -24 -20 -32 -20 l-13 0 0 -20 0 -20 20 0 20 0 0 13 c0 8 9 22 20 32 l20 18 0 -31 0 -32 20 0 20 0 0 60 0 60 -80 0 -80 0 0 20 0 20 40 0 40 0 0 20 0 20 -13 0 -13 0 -27 28 c-15 15 -27 33 -27 40 l0 12 -20 0 -20 0 0 -20 0 -20 13 0 c8 0 22 -9 32 -20 l18 -20 -51 0 -52 0 0 40 0 40 -20 0 -20 0 0 -60z"/>
<path d="M820 120 l0 -20 20 0 20 0 0 20 0 20 -20 0 -20 0 0 -20z"/>
<path d="M20 40 l0 -20 60 0 60 0 0 20 0 20 -60 0 -60 0 0 -20z"/>
<path d="M740 40 l0 -20 60 0 60 0 0 20 0 20 -60 0 -60 0 0 -20z"/>
</g>
</svg>