<svg xmlns="http://www.w3.org/2000/svg" version="1.0" width="120.2pt" height="19.200000pt" viewBox="0 0 120.2 19.200000" preserveAspectRatio="xMidYMid meet">
<metadata>
Created by potrace 1.13, written by Peter Selinger 2001-2015
</metadata>
<g transform="translate(0.0,19.200000) scale(0.048000,-0.048000) skewX(5)" fill="#000000" stroke="none">
<path d="M220 280 l0 -20 40 0 40 0 0 -60 0 -60 -20 0 -20 0 0 40 0 40 -20 0 -20 0 0 -60 0 -60 100 0 100 0 0 60 0 60 -20 0 -20 0 0 -40 0 -40 -20 0 -20 0 0 80 0 80 -60 0 -60 0 0 -20z"/>
<path d="M540 220 l0 -80 -20 0 -20 0 0 40 0 40 -20 0 -20 0 0 -60 0 -60 60 0 60 0 0 100 0 100 -20 0 -20 0 0 -80z"/>
<path d="M700 288 c0 -7 -12 -25 -27 -40 l-27 -28 -13 0 -13 0 0 -20 0 -20 20 0 20 0 0 13 c0 8 9 22 20 32 l20 18 0 -23 0 -24 -27 -28 -27 -28 -13 0 -13 0 0 -20 0 -20 13 0 13 0 27 -28 c15 -15 27 -33 27 -40 l0 -12 20 0 20 0 0 20 0 20 -13 0 -13 0 -29 30 -29 30 29 30 29 30 13 0 13 0 0 60 0 60 -20 0 -20 0 0 -12z"/>
<path d="M1280 280 l0 -20 40 0 40 0 0 -60 0 -60 -20 0 -20 0 0 40 0 40 -20 0 -20 0 0 -60 0 -60 100 0 100 0 0 60 0 60 -20 0 -20 0 0 -40 0 -40 -20 0 -20 0 0 80 0 80 -60 0 -60 0 0 -20z"/>
<path d="M1520 200 l0 -100 20 0 20 0 0 72 0 71 20 -18 c11 -10 20 -24 20 -32 l0 -13 20 0 20 0 0 20 0 20 -13 0 -13 0 -27 28 c-15 15 -27 33 -27 40 l0 12 -20 0 -20 0 0 -100z"/>
<path d="M1760 288 c0 -7 -12 -25 -27 -40 l-27 -28 -13 0 -13 0 0 -20 0 -20 20 0 20 0 0 13 c0 8 9 22 20 32 l20 18 0 -23 0 -24 -27 -28 -27 -28 -13 0 -13 0 0 -20 0 -20 13 0 13 0 27 -28 c15 -15 27 -33 27 -40 l0 -12 20 0 20 0 0 20 0 20 -13 0 -13 0 -29 30 -29 30 29 30 29 30 13 0 13 0 0 60 0 60 -20 0 -20 0 0 -12z"/>
<path d="M1600 120 l0 -20 20 0 20 0 0 20 0 20 -20 0 -20 0 0 -20z"/>
<path d="M300 40 l0 -20 60 0 60 0 0 20 0 20 -60 0 -60 0 0 -20z"/>
<path d="M460 40 l0 -20 60 0 60 0 0 20 0 20 -60 0 -60 0 0 -20z"/>
<path d="M1360 40 l0 -20 60 0 60 0 0 20 0 20 -60 0 -60 0 0 -20z"/>
<path d="M1520 40 l0 -20 60 0 60 0 0 20 0 20 -60 0 -60 0 0 -20z"/>
</g>
</svg>