<svg xmlns="http://www.w3.org/2000/svg" version="1.0" width="62.6pt" height="19.200000pt" viewBox="0 0 62.6 19.200000" preserveAspectRatio="xMidYMid meet">
<metadata>
Created by potrace 1.13, written by Peter Selinger 2001-2015
</metadata>
<g transform="translate(0.0,19.200000) scale(0.048000,-0.048000) skewX(5)" fill="#000000" stroke="none">
<path d="M60 360 l0 -20 20 0 20 0 0 20 0 20 -20 0 -20 0 0 -20z"/>
<path d="M740 360 l0 -20 20 0 20 0 0 20 0 20 -20 0 -20 0 0 -20z"/>
<path d="M820 360 l0 -20 20 0 20 0 0 20 0 20 -20 0 -20 0 0 -20z"/>
<path d="M100 288 c0 -7 -12 -25 -27 -40 l-27 -28 -13 0 -13 0 0 -20 0 -20 20 0 20 0 0 13 c0 8 9 22 20 32 l20 18 0 -23 0 -24 -27 -28 -27 -28 -13 0 -13 0 0 -20 0 -20 13 0 13 0 27 -28 c15 -15 27 -33 27 -40 l0 -12 20 0 20 0 0 20 0 20 -13 0 -13 0 -29 30 -29 30 29 30 29 30 13 0 13 0 0 60 0 60 -20 0 -20 0 0 -12z"/>
<path d="M340 240 l0 -60 32 0 31 0 -18 -20 c-10 -11 -24 -20 -32 -20 l-13 0 0 -20 0 -20 100 0 100 0 0 20 0 20 -72 0 -71 0 18 20 c10 11 24 20 32 20 l13 0 0 20 0 20 -40 0 -40 0 0 40 0 40 -20 0 -20 0 0 -60z"/>
<path d="M820 288 c0 -7 -12 -25 -27 -40 l-27 -28 -13 0 -13 0 0 -20 0 -20 20 0 20 0 0 13 c0 8 9 22 20 32 l20 18 0 -23 0 -24 -27 -28 -27 -28 -13 0 -13 0 0 -20 0 -20 13 0 13 0 27 -28 c15 -15 27 -33 27 -40 l0 -12 20 0 20 0 0 20 0 20 -13 0 -13 0 -29 30 -29 30 29 30 29 30 13 0 13 0 0 60 0 60 -20 0 -20 0 0 -12z"/>
<path d="M180 160 l0 -60 60 0 60 0 0 20 0 20 -40 0 -40 0 0 40 0 40 -20 0 -20 0 0 -60z"/>
<path d="M580 200 l0 -20 13 0 13 0 29 -30 29 -30 -22 -22 -22 -22 0 32 0 32 -20 0 -20 0 0 -60 0 -60 20 0 20 0 0 13 0 13 28 27 c15 15 33 27 40 27 l12 0 0 20 0 20 -13 0 -13 0 -27 28 c-15 15 -27 33 -27 40 l0 12 -20 0 -20 0 0 -20z"/>
<path d="M900 200 l0 -20 40 0 40 0 0 -20 0 -20 -40 0 -40 0 0 -20 0 -20 60 0 60 0 0 60 0 60 -60 0 -60 0 0 -20z"/>
<path d="M1060 200 l0 -20 60 0 60 0 0 20 0 20 -60 0 -60 0 0 -20z"/>
<path d="M1060 120 l0 -20 60 0 60 0 0 20 0 20 -60 0 -60 0 0 -20z"/>
<path d="M220 40 l0 -20 20 0 20 0 0 20 0 20 -20 0 -20 0 0 -20z"/>
<path d="M900 40 l0 -20 20 0 20 0 0 20 0 20 -20 0 -20 0 0 -20z"/>
<path d="M980 40 l0 -20 20 0 20 0 0 20 0 20 -20 0 -20 0 0 -20z"/>
<path d="M1060 40 l0 -20 60 0 60 0 0 20 0 20 -60 0 -60 0 0 -20z"/>
</g>
</svg>