<svg xmlns="http://www.w3.org/2000/svg" version="1.0" width="154.76pt" height="19.200000pt" viewBox="0 0 154.76 19.200000" preserveAspectRatio="xMidYMid meet">
<metadata>
Created by potrace 1.13, written by Peter Selinger 2001-2015
</metadata>
<g transform="translate(0.0,19.200000) scale(0.048000,-0.048000) skewX(5)" fill="#000000" stroke="none">
<path d="M20 360 l0 -20 80 0 80 0 0 -40 0 -40 20 0 20 0 0 60 0 60 -100 0 -100 0 0 -20z"/>
<path d="M980 320 l0 -60 32 0 31 0 -18 -20 c-10 -11 -24 -20 -32 -20 l-13 0 0 -20 0 -20 32 0 31 0 -18 -20 c-10 -11 -24 -20 -32 -20 l-13 0 0 -20 0 -20 100 0 100 0 0 13 0 13 28 27 c15 15 33 27 40 27 l12 0 0 20 0 20 -112 0 -111 0 18 20 c10 11 24 20 32 20 l13 0 0 20 0 20 -40 0 -40 0 0 40 0 40 -20 0 -20 0 0 -60z m160 -160 l0 -20 -20 0 -20 0 0 20 0 20 20 0 20 0 0 -20z m60 16 c0 -3 -4 -8 -10 -11 l-10 -6 0 10 c0 6 5 11 10 11 6 0 10 -2 10 -4z m-140 -26 c0 -5 -5 -10 -11 -10 l-10 0 6 10 c3 6 8 10 11 10 2 0 4 -4 4 -10z"/>
<path d="M1620 280 l0 -100 60 0 60 0 0 100 0 100 -20 0 -20 0 0 -80 0 -80 -20 0 -20 0 0 80 0 80 -20 0 -20 0 0 -100z"/>
<path d="M100 280 l0 -20 20 0 20 0 0 20 0 20 -20 0 -20 0 0 -20z"/>
<path d="M260 240 l0 -60 20 0 20 0 0 40 0 40 40 0 40 0 0 20 0 20 -60 0 -60 0 0 -60z"/>
<path d="M500 288 c0 -7 -12 -25 -27 -40 l-27 -28 -13 0 -13 0 0 -60 0 -60 20 0 20 0 0 53 0 53 28 27 c15 15 33 27 40 27 l12 0 0 20 0 20 -20 0 -20 0 0 -12z"/>
<path d="M740 240 l0 -60 12 0 c7 0 25 -12 40 -27 l28 -27 0 -13 0 -13 20 0 20 0 0 13 0 13 28 27 c15 15 33 27 40 27 l12 0 0 20 0 20 -20 0 -20 0 0 -13 0 -13 -30 -29 -30 -29 -22 22 -22 22 32 0 32 0 0 20 0 20 -40 0 -40 0 0 20 0 20 40 0 40 0 0 20 0 20 -60 0 -60 0 0 -60z"/>
<path d="M1860 288 c0 -7 -12 -25 -27 -40 l-27 -28 -13 0 -13 0 0 -19 0 -19 20 -5 20 -5 0 -12 0 -12 -20 -5 -20 -5 0 -19 0 -19 19 0 19 0 5 20 5 20 12 0 12 0 5 -20 5 -20 19 0 19 0 0 19 0 19 -20 5 -20 5 0 12 0 12 20 5 20 5 0 59 0 59 -20 0 -20 0 0 -12z m-9 -101 l-11 -11 -12 12 -12 12 20 21 19 21 3 -22 4 -22 -11 -11z"/>
<path d="M1940 280 l0 -20 80 0 80 0 0 -40 0 -40 20 0 20 0 0 60 0 60 -100 0 -100 0 0 -20z"/>
<path d="M2340 280 l0 -20 20 0 20 0 0 20 0 20 -20 0 -20 0 0 -20z"/>
<path d="M2420 260 l0 -40 -40 0 -40 0 0 -20 0 -20 32 0 31 0 -18 -20 c-10 -11 -24 -20 -32 -20 l-13 0 0 -20 0 -20 20 0 20 0 0 13 0 13 28 27 28 27 32 0 32 0 0 -40 0 -40 20 0 20 0 0 52 0 52 27 28 27 28 13 0 13 0 0 20 0 20 -20 0 -20 0 0 -12 c0 -7 -12 -25 -27 -40 l-27 -28 -33 0 -33 0 0 40 0 40 -20 0 -20 0 0 -40z"/>
<path d="M2660 240 l0 -60 40 0 40 0 0 -20 0 -20 -40 0 -40 0 0 -20 0 -20 32 0 31 0 -18 -20 c-10 -11 -24 -20 -32 -20 l-13 0 0 -20 0 -20 20 0 20 0 0 12 c0 7 12 25 27 40 l27 28 13 0 13 0 0 100 0 100 -60 0 -60 0 0 -60z m80 0 l0 -20 -20 0 -20 0 0 20 0 20 20 0 20 0 0 -20z"/>
<path d="M100 200 l0 -20 20 0 20 0 0 20 0 20 -20 0 -20 0 0 -20z"/>
<path d="M180 208 c0 -7 -12 -25 -27 -40 l-27 -28 -13 0 -13 0 0 -20 0 -20 12 0 c7 0 25 -12 40 -27 l28 -27 0 -13 0 -13 20 0 20 0 0 20 0 20 -13 0 -13 0 -29 30 -29 30 22 22 22 22 0 -32 0 -32 20 0 20 0 0 60 0 60 -20 0 -20 0 0 -12z"/>
<path d="M340 180 l0 -40 -40 0 -40 0 0 -20 0 -20 60 0 60 0 0 60 0 60 -20 0 -20 0 0 -40z"/>
<path d="M500 200 l0 -20 20 0 20 0 0 20 0 20 -20 0 -20 0 0 -20z"/>
<path d="M660 180 l0 -40 -40 0 -40 0 0 -20 0 -20 60 0 60 0 0 60 0 60 -20 0 -20 0 0 -40z"/>
<path d="M1300 200 l0 -20 40 0 40 0 0 -33 0 -33 -28 -27 c-15 -15 -33 -27 -40 -27 l-12 0 0 -20 0 -20 20 0 20 0 0 13 c0 8 9 22 20 32 l20 18 0 -31 0 -32 20 0 20 0 0 100 0 100 -60 0 -60 0 0 -20z"/>
<path d="M1460 200 l0 -20 13 0 13 0 29 -30 29 -30 -22 -22 -22 -22 0 32 0 32 -20 0 -20 0 0 -60 0 -60 20 0 20 0 0 13 0 13 28 27 c15 15 33 27 40 27 l12 0 0 20 0 20 -13 0 -13 0 -27 28 c-15 15 -27 33 -27 40 l0 12 -20 0 -20 0 0 -20z"/>
<path d="M2020 200 l0 -20 20 0 20 0 0 20 0 20 -20 0 -20 0 0 -20z"/>
<path d="M2180 160 l0 -60 60 0 60 0 0 20 0 20 -40 0 -40 0 0 20 0 20 40 0 40 0 0 20 0 20 -60 0 -60 0 0 -60z"/>
<path d="M2820 160 l0 -60 60 0 60 0 0 60 0 60 -20 0 -20 0 0 -40 0 -40 -20 0 -20 0 0 40 0 40 -20 0 -20 0 0 -60z"/>
<path d="M2980 200 l0 -20 60 0 60 0 0 20 0 20 -60 0 -60 0 0 -20z"/>
<path d="M2980 120 l0 -20 60 0 60 0 0 20 0 20 -60 0 -60 0 0 -20z"/>
<path d="M620 40 l0 -20 20 0 20 0 0 20 0 20 -20 0 -20 0 0 -20z"/>
<path d="M820 40 l0 -20 60 0 60 0 0 20 0 20 -60 0 -60 0 0 -20z"/>
<path d="M2180 40 l0 -20 20 0 20 0 0 20 0 20 -20 0 -20 0 0 -20z"/>
<path d="M2260 40 l0 -20 20 0 20 0 0 20 0 20 -20 0 -20 0 0 -20z"/>
<path d="M2820 40 l0 -20 20 0 20 0 0 20 0 20 -20 0 -20 0 0 -20z"/>
<path d="M2900 40 l0 -20 20 0 20 0 0 20 0 20 -20 0 -20 0 0 -20z"/>
<path d="M2980 40 l0 -20 60 0 60 0 0 20 0 20 -60 0 -60 0 0 -20z"/>
</g>
</svg>