<?xml version="1.0" standalone="no"?>
<!DOCTYPE svg PUBLIC "-//W3C//DTD SVG 20010904//EN"
 "http://www.w3.org/TR/2001/REC-SVG-20010904/DTD/svg10.dtd">
<svg version="1.0" xmlns="http://www.w3.org/2000/svg"
 width="96.000000pt" height="19.200000pt" viewBox="0 0 96.000000 19.200000"
 preserveAspectRatio="xMidYMid meet">
<metadata>
Created by potrace 1.16, written by Peter Selinger 2001-2019
</metadata>
<g transform="translate(0.000000,19.200000) scale(0.048000,-0.048000)"
fill="#000000" stroke="none">
<path d="M120 240 l0 -60 40 0 40 0 0 -80 0 -80 20 0 20 0 0 40 0 40 52 0 51
0 -18 -20 c-10 -11 -24 -20 -32 -20 l-13 0 0 -20 0 -20 20 0 20 0 0 13 c0 8 9
22 20 32 l20 18 0 -31 0 -32 20 0 20 0 0 60 0 60 -80 0 -80 0 0 20 0 20 40 0
40 0 0 20 0 20 -13 0 -13 0 -27 28 c-15 15 -27 33 -27 40 l0 12 -20 0 -20 0 0
-20 0 -20 13 0 c8 0 22 -9 32 -20 l18 -20 -51 0 -52 0 0 40 0 40 -20 0 -20 0
0 -60z"/>
<path d="M680 288 c0 -7 -12 -25 -27 -40 l-27 -28 -13 0 -13 0 0 -20 0 -20 20
0 20 0 0 13 c0 8 9 22 20 32 l20 18 0 -23 0 -24 -27 -28 -27 -28 -13 0 -13 0
0 -20 0 -20 13 0 13 0 27 -28 c15 -15 27 -33 27 -40 l0 -12 20 0 20 0 0 20 0
20 -13 0 -13 0 -29 30 -29 30 29 30 29 30 13 0 13 0 0 60 0 60 -20 0 -20 0 0
-12z"/>
<path d="M920 240 l0 -60 40 0 40 0 0 -32 0 -32 -27 -28 -27 -28 -13 0 -13 0
0 -20 0 -20 20 0 20 0 0 13 c0 8 9 22 20 32 l20 18 0 -31 0 -32 20 0 20 0 0
32 0 31 20 -18 c11 -10 20 -24 20 -32 l0 -13 20 0 20 0 0 20 0 20 -13 0 -13 0
-27 28 -27 28 0 32 0 32 40 0 40 0 0 60 0 60 -20 0 -20 0 0 -40 0 -40 -20 0
-20 0 0 40 0 40 -20 0 -20 0 0 -40 0 -40 -20 0 -20 0 0 40 0 40 -20 0 -20 0 0
-60z"/>
<path d="M1480 280 l0 -20 12 0 c7 0 25 -12 40 -27 l28 -27 0 -24 0 -25 -20
18 c-11 10 -20 24 -20 32 l0 13 -20 0 -20 0 0 -13 c0 -8 -9 -22 -20 -32 l-20
-18 0 31 0 32 -20 0 -20 0 0 -32 0 -31 -20 18 c-11 10 -20 24 -20 32 l0 13
-20 0 -20 0 0 -20 0 -20 12 0 c7 0 25 -12 40 -27 l28 -27 0 -13 0 -13 20 0 20
0 0 13 0 13 30 29 30 29 30 -29 30 -29 0 -13 0 -13 20 0 20 0 0 52 0 52 27 28
27 28 13 0 13 0 0 20 0 20 -20 0 -20 0 0 -13 c0 -8 -9 -22 -20 -32 l-20 -18 0
31 0 32 -20 0 -20 0 0 -32 0 -31 -20 18 c-11 10 -20 24 -20 32 l0 13 -20 0
-20 0 0 -20z"/>
</g>
</svg>
