<svg baseProfile="full" height="44" version="1.1" viewBox="-1 -11 61 22" width="122" xmlns="http://www.w3.org/2000/svg" xmlns:ev="http://www.w3.org/2001/xml-events" xmlns:xlink="http://www.w3.org/1999/xlink" preserveAspectRatio="xMidYMid meet"><defs /><defs><path d="M-2 5 0 7 1 7 1 9-1 9-1 8-3 6-3 9-5 9-5-3-7-3-7 1-9 1-9-5 1-5 1 1-1 1-1-3-3-3-3 3 4 3 6 1 3 1 3-1 7-1 7-5 9-5 9 1 8 1 5 4 5 9 3 9 3 5zM 5-3 3-3 3-5 5-5z" id="wgGYkC" transform="translate(0,0) skewX(-5)" /><path d="M 3 9 3 8 1 6 1 9-1 9-1 6-3 8-3 9-5 9-5 7-4 7-1 4-1 1-5 1-5-5-3-5-3-1-1-1-1-5 1-5 1-1 3-1 3-5 5-5 5 1 1 1 1 4 4 7 5 7 5 9z" id="WMAWhf" transform="translate(0,0) skewX(-5)" /><path d="M-4 5-5 5-5 3-4 3-1 0-1-2-3 0-3 1-5 1-5-1-4-1-1-4-1-5 1-5 1 1 0 1-3 4 0 7 1 7 1 9-1 9-1 8z" id="UjWXSi" transform="translate(0,0) skewX(-5)" /><path d="M 1-4 4-1 5-1 5 1 1 1 1 3 9 3 9 9 7 9 7 6 5 8 5 9 3 9 3 7 4 7 6 5 1 5 1 9-1 9-1 1-5 1-5-5-3-5-3-1 2-1 0-3-1-3-1-5 1-5z" id="WMAOQP" transform="translate(0,0) skewX(-5)" /></defs><g fill="black" stroke="white" stroke-linejoin="round" stroke-width="0.3"><use x="10" xlink:href="#wgGYkC" y="0" /><use x="27" xlink:href="#WMAOQP" y="0" /><use x="44" xlink:href="#UjWXSi" y="0" /><use x="53" xlink:href="#WMAWhf" y="0" /></g></svg>