<svg xmlns="http://www.w3.org/2000/svg" version="1.0" width="280pt" height="211pt" viewBox="0 0 28.04 21.120000" preserveAspectRatio="xMidYMid meet" >
<metadata>
Created by potrace 1.16, written by Peter Selinger 2001-2019
</metadata>
<rect width="100%" height="100%" fill="white" />
<g transform="translate(0.0,21.120000) scale(0.048000,-0.048000) skewX(5)" fill="#123456" stroke="none">
<path d="M120 280 l0 -60 20 0 20 0 0 40 0 40 20 0 20 0 0 -60 0 -60 -40 0 -40 0 0 -40 0 -40 -40 0 -40 0 0 -20 0 -20 60 0 60 0 0 40 0 40 33 0 33 0 27 -28 c15 -15 27 -33 27 -40 l0 -12 20 0 20 0 0 20 0 20 -13 0 -13 0 -27 28 -27 28 0 24 0 23 20 -18 c11 -10 20 -24 20 -32 l0 -13 20 0 20 0 0 20 0 20 -13 0 c-8 0 -22 9 -32 20 l-18 20 23 0 24 0 28 -27 28 -27 0 -13 0 -13 20 0 20 0 0 20 0 20 -12 0 c-7 0 -25 12 -40 27 l-28 27 0 33 0 33 40 0 40 0 0 20 0 20 -60 0 -60 0 0 -40 0 -40 -20 0 -20 0 0 40 0 40 -60 0 -60 0 0 -60z"/>
</g>
</svg>