<svg baseProfile="full" height="44" version="1.1" viewBox="-1 -11 14 22" width="28" xmlns="http://www.w3.org/2000/svg" xmlns:ev="http://www.w3.org/2001/xml-events" xmlns:xlink="http://www.w3.org/1999/xlink"><defs /><defs><path d="M 3 9 3 8 0 5-3 8-3 9-5 9-5 7-4 7-1 4-2 3-3 4-3 5-5 5-5 3-4 3-3 2-4 1-5 1-5-1-4-1-1-4-1-5 5-5 5 1 4 1 1 4 4 7 5 7 5 9zM 0 3 3 0 3-3 0-3-3 0-2 1-1 0-1-1 1-1 1 1 0 1-1 2z" id="UKEvPG" transform="translate(0,0) skewX(-5)" /></defs><g fill="black" stroke="black" stroke-linejoin="round" stroke-width="0"><use x="6" xlink:href="#UKEvPG" y="0" /></g></svg>