<svg xmlns="http://www.w3.org/2000/svg" version="1.0" width="198.92pt" height="40.320000pt" viewBox="0 0 198.92 40.320000" preserveAspectRatio="xMidYMid meet">
<metadata>
Created by potrace 1.13, written by Peter Selinger 2001-2015
</metadata>
<g transform="translate(0.0,40.320000) scale(0.048000,-0.048000) skewX(5)" fill="#000000" stroke="none">
<path d="M1363 802 l-43 -3 0 -14 c0 -18 11 -24 49 -27 l31 -2 0 -17 0 -16 -38 2 -39 2 0 -16 c0 -9 4 -21 8 -27 l9 -11 30 5 30 4 0 -22 0 -22 -40 4 -41 4 2 -66 2 -65 38 1 39 1 0 -16 0 -16 -54 0 -55 0 -4 20 c-3 11 -4 44 -3 73 l3 53 -11 7 c-6 3 -17 7 -24 8 l-13 2 2 -106 1 -107 67 2 c36 1 82 2 102 2 l36 1 -2 103 c0 56 1 110 3 120 l4 17 14 0 14 0 1 -37 c1 -21 1 -41 1 -44 l-1 -6 22 4 23 5 0 59 0 59 -20 1 c-12 1 -30 1 -42 1 l-21 -1 1 36 1 35 -20 7 c-11 3 -39 5 -62 3z m37 -222 l0 -20 -19 0 -20 0 2 20 1 20 18 0 18 0 0 -20z"/>
<path d="M1721 660 l0 -148 14 2 c8 1 18 6 22 10 l8 7 1 130 0 130 -10 7 c-6 3 -16 7 -23 8 l-12 2 0 -148z"/>
<path d="M2040 659 l0 -148 22 8 22 8 1 137 c0 75 -2 136 -5 137 -3 0 -13 2 -22 4 l-18 3 0 -149z"/>
<path d="M2764 780 l0 -28 15 3 c8 1 20 9 25 18 l10 16 -6 6 c-3 3 -14 7 -25 9 l-19 4 0 -28z"/>
<path d="M3082 740 l0 -67 39 4 39 5 0 -60 0 -59 -38 2 -38 2 -1 -19 -2 -19 19 -7 19 -7 43 3 44 4 -1 79 0 79 18 0 17 0 0 -34 0 -35 11 -7 c7 -4 25 -7 40 -6 l29 1 1 -37 c1 -20 1 -39 1 -43 -1 -4 41 -4 111 0 l18 1 -3 18 c-2 9 -7 20 -12 23 l-8 7 -34 -5 -34 -5 0 21 0 20 36 -3 35 -2 5 7 c2 4 6 31 8 59 l4 50 -12 7 c-15 10 -36 13 -35 5 1 -4 1 -23 0 -44 l-1 -36 -17 2 -18 3 3 35 2 36 -24 4 -25 5 1 -6 c0 -3 0 -22 -1 -42 l-1 -36 -15 0 -15 0 -2 36 c-1 20 -1 55 -1 77 l2 42 -25 5 -24 4 0 -43 0 -44 -18 0 -18 0 1 35 2 36 -11 7 c-6 3 -17 7 -23 8 l-13 2 0 -44 0 -44 -20 0 -20 0 4 40 4 40 -6 1 c-4 0 -14 2 -23 4 l-17 3 0 -68z"/>
<path d="M3881 660 l0 -148 14 2 c8 1 18 6 22 10 l8 8 0 134 c0 74 -2 134 -5 135 -3 0 -13 2 -22 4 l-17 3 0 -148z"/>
<path d="M2202 776 l2 -24 11 2 c19 3 35 17 35 32 l0 14 -25 0 -25 0 2 -24z"/>
<path d="M2367 793 c-4 -3 -7 -12 -7 -20 l0 -13 19 0 19 0 5 20 5 20 -17 0 c-10 0 -21 -3 -24 -7z"/>
<path d="M3801 656 l1 -144 14 2 c7 1 17 5 20 9 l7 7 2 135 1 135 -23 0 -24 0 2 -144z"/>
<path d="M42 700 l2 -29 7 5 c4 2 14 1 22 -2 l16 -6 -5 -13 -6 -14 -17 4 -17 3 -1 -19 -2 -19 11 -6 c6 -4 30 -6 53 -6 l42 2 26 -30 c15 -16 27 -36 27 -44 l0 -13 23 4 23 5 -1 93 -1 94 -7 8 c-10 9 -37 13 -36 5 1 -4 1 -23 0 -43 l-1 -35 -35 1 -34 1 -18 20 c-10 11 -23 28 -29 39 l-10 18 -17 3 -17 2 2 -28z"/>
<path d="M619 718 l-19 -7 0 -16 0 -15 33 -1 c17 -1 35 -1 40 0 l7 1 1 -77 c1 -43 1 -80 1 -83 0 -3 25 -5 56 -4 l56 2 4 13 c3 8 13 22 23 31 l18 18 3 -28 3 -27 20 -3 20 -3 0 55 1 55 23 25 c13 14 28 24 33 23 6 -1 15 6 21 16 l12 18 -14 8 -14 9 -14 -5 -13 -5 0 -14 0 -14 -11 0 -10 0 7 -11 7 -12 -14 5 -14 5 -3 21 -3 22 -15 0 -14 0 -11 -24 -11 -24 -34 -18 -33 -18 1 -22 2 -22 15 3 15 2 10 18 c6 11 17 25 24 33 l12 13 0 -19 c0 -11 -3 -27 -6 -36 l-6 -16 -15 0 -14 0 6 -10 c3 -5 5 -10 3 -11 -2 0 -21 -2 -43 -5 l-40 -4 -2 60 -1 60 21 -4 22 -4 23 9 23 9 -9 16 -10 17 -76 1 -77 1 -20 -7z"/>
<path d="M1004 699 l0 -25 78 3 78 3 0 -18 0 -19 -40 1 -40 2 0 -59 0 -58 19 -7 c11 -4 37 -7 57 -7 l37 1 11 16 10 17 -6 7 c-4 3 -25 7 -47 7 -43 1 -46 3 -32 26 l9 14 26 -5 27 -5 9 18 10 18 -3 40 c-2 22 -6 43 -9 46 -3 3 -48 7 -100 8 l-94 2 0 -26z"/>
<path d="M1804 706 l1 -21 22 -3 21 -3 -2 15 c-3 19 -12 29 -30 32 l-13 2 1 -22z"/>
<path d="M1880 714 c0 -8 -12 -28 -27 -44 l-26 -30 -14 0 -13 0 0 -20 0 -20 25 -6 25 -6 -6 -9 -5 -9 16 0 16 0 -6 -10 -6 -10 10 0 11 0 0 -15 0 -15 19 0 19 0 5 23 c3 12 4 44 3 70 l-3 48 18 -20 c11 -11 19 -26 19 -34 l0 -14 24 4 23 5 -2 41 c-1 23 -3 50 -4 60 l-1 17 -20 0 -20 0 0 -30 0 -31 -21 20 -21 19 7 11 6 11 -8 1 c-4 0 -16 2 -25 4 l-18 3 0 -14z m0 -94 l0 -41 -22 20 -21 21 18 20 c10 11 20 20 22 20 1 0 3 -18 3 -40z"/>
<path d="M2122 700 l-2 -27 24 4 25 5 -2 19 c-1 10 -4 19 -7 20 -3 0 -12 2 -20 4 l-16 3 -2 -28z"/>
<path d="M2364 704 c-19 -30 -53 -64 -63 -64 -3 0 -19 13 -34 30 l-28 30 6 11 7 11 -23 -4 -24 -3 -2 -101 -1 -102 11 2 c7 1 17 5 23 9 l12 7 -4 52 c-2 28 -1 55 2 60 l5 8 15 -14 c8 -8 14 -19 14 -24 0 -6 7 -13 15 -16 l16 -6 8 23 c5 13 16 29 25 36 l16 13 0 -70 0 -70 15 -6 16 -6 8 23 8 22 -2 78 -3 79 -10 10 -10 10 -18 -28z"/>
<path d="M2682 703 l-2 -23 13 -1 c6 -1 24 0 40 1 l27 2 0 -32 0 -32 -31 -29 -31 -29 -9 6 -9 5 0 -21 0 -21 16 -6 16 -6 8 14 c5 8 18 26 30 40 l21 27 17 -5 17 -4 24 -35 24 -34 12 0 13 0 5 14 6 15 -15 11 c-8 7 -14 9 -14 6 0 -4 -12 4 -26 18 l-27 24 -1 35 -1 36 20 -1 c11 -1 30 0 43 1 l22 1 0 15 0 16 -14 5 c-8 3 -55 6 -103 7 l-89 2 -2 -22z"/>
<path d="M2923 708 l-2 -18 12 -7 11 -7 46 3 45 3 7 11 7 12 -10 10 -10 10 -52 0 -53 1 -1 -18z"/>
<path d="M360 705 l0 -14 -27 -26 c-15 -14 -33 -25 -40 -25 l-13 0 2 -24 2 -24 16 3 15 2 11 22 c7 13 17 28 23 34 l11 11 0 -27 0 -27 -12 0 -11 0 6 -6 6 -6 -12 -13 c-7 -6 -22 -17 -35 -24 l-22 -12 0 -14 0 -15 11 0 c14 0 69 -56 69 -69 0 -5 6 -11 14 -14 l14 -6 6 6 c3 4 6 15 6 25 l0 18 -13 0 c-6 0 -25 14 -41 31 l-29 31 31 29 31 29 14 0 14 0 -2 43 c-1 23 -3 50 -4 60 l-1 17 -20 0 -20 0 0 -15z"/>
<path d="M2443 704 l-6 -16 14 -8 c17 -11 29 -3 29 21 l0 19 -15 0 -16 0 -6 -16z"/>
<path d="M1564 619 l0 -27 12 5 12 4 26 -26 c30 -30 32 -38 10 -59 -22 -22 -24 -20 -20 14 l3 30 -6 1 c-3 0 -14 2 -24 4 l-18 3 2 -68 2 -68 16 2 16 3 11 21 c6 12 19 31 29 42 l17 19 11 -2 12 -2 3 23 3 22 -11 0 c-6 0 -22 11 -35 25 l-25 24 0 14 0 15 -23 4 -23 5 0 -28z"/>
<path d="M2444 586 l1 -61 20 -3 20 -3 1 61 1 60 -6 1 c-3 0 -13 2 -22 4 l-17 3 2 -62z"/>
<path d="M2522 624 l-2 -23 22 -7 c12 -4 28 -13 36 -20 l13 -14 -8 0 c-4 0 -2 -4 6 -9 l14 -9 -16 -16 -16 -16 -3 21 -3 22 -22 8 -23 8 0 -60 0 -60 16 -6 16 -6 8 14 c5 8 19 26 31 41 l21 28 9 -5 8 -6 12 22 11 22 -13 8 c-7 4 -16 6 -19 4 -4 -2 -19 9 -35 25 l-27 28 6 10 6 10 -23 4 -23 4 -2 -22z"/>
<path d="M2682 621 l2 -27 23 4 24 5 -3 15 -3 15 -23 8 -22 8 2 -28z"/>
<path d="M2840 629 l0 -20 16 -6 16 -6 9 14 8 14 -9 9 c-6 6 -17 11 -25 12 l-15 2 0 -19z"/>
<path d="M2922 618 c1 -15 5 -25 8 -23 3 2 12 -1 20 -6 l15 -9 -15 -9 -14 -10 -8 5 -8 5 2 -29 2 -28 23 4 23 4 0 19 0 19 10 0 c11 0 32 -35 24 -42 -2 -3 7 -3 21 -1 l25 5 0 18 0 19 -22 3 -21 3 -5 13 -4 13 20 6 21 5 5 14 5 13 -12 8 c-6 4 -35 7 -64 7 l-53 1 2 -27z"/>
<path d="M3565 640 l5 -8 -17 -18 -18 -18 -3 22 -3 22 -25 0 -24 0 2 -24 c1 -14 5 -23 8 -21 3 2 12 -1 20 -6 l15 -10 -22 -16 -23 -15 0 -14 0 -14 19 0 19 0 5 20 5 20 16 -6 16 -6 0 -18 0 -17 25 5 c28 5 27 4 19 26 l-6 16 -14 0 -14 0 0 20 0 20 19 0 20 0 -2 20 c-1 11 -4 20 -7 21 -3 0 -13 2 -23 4 l-17 3 5 -8z"/>
<path d="M3660 638 l-20 -7 0 -16 0 -15 33 -1 c41 -2 90 0 94 5 2 2 1 10 -2 19 l-6 15 -40 4 -39 4 -20 -8z"/>
<path d="M447 633 c-4 -3 -7 -31 -7 -62 l0 -56 57 1 58 1 3 21 3 22 -35 0 -36 0 -6 25 -6 25 6 15 5 15 -18 0 c-10 0 -21 -3 -24 -7z"/>
<path d="M2120 581 l0 -59 15 -6 16 -6 4 13 c8 21 13 91 8 104 l-5 13 -19 0 -19 0 0 -59z"/>
<path d="M1003 550 l-2 -19 14 -11 14 -11 11 21 c13 24 11 29 -17 34 l-19 4 -1 -18z"/>
<path d="M2762 540 l2 -28 11 2 c19 3 35 17 35 30 l0 14 -25 4 -25 5 2 -27z"/>
<path d="M3651 557 c-6 -6 -11 -18 -11 -26 l0 -16 57 1 58 1 3 21 3 22 -33 1 c-18 0 -40 2 -50 4 l-16 3 -11 -11z"/>
<path d="M140 478 l-20 -7 0 -16 0 -15 33 -1 c41 -2 90 0 94 5 2 2 1 10 -2 19 l-6 15 -40 4 -39 4 -20 -8z"/>
<path d="M491 477 c-6 -6 -11 -19 -11 -28 l0 -17 18 3 c9 2 20 4 24 4 4 1 6 10 5 21 l-1 19 -12 5 -12 4 -11 -11z"/>
<path d="M1083 468 l-2 -19 16 -6 15 -6 9 14 8 14 -9 9 c-6 6 -16 11 -23 12 l-13 2 -1 -20z"/>
<path d="M3492 478 c-6 -6 -12 -20 -12 -29 l0 -17 20 5 c27 7 32 17 17 37 l-12 17 -13 -13z"/>
<path d="M3650 480 l-9 -6 1 -20 2 -20 55 1 54 0 11 17 10 17 -7 7 -7 8 -51 0 c-28 1 -54 -1 -59 -4z"/>
<path d="M3563 464 l-6 -16 14 -8 c17 -11 29 -3 29 21 l0 19 -15 0 -16 0 -6 -16z"/>
<path d="M1343 402 l-23 -3 0 -19 0 -18 13 -4 c6 -3 24 -4 40 -3 l27 2 0 -17 0 -17 -37 0 c-21 0 -57 -1 -80 -2 l-43 -1 0 -55 0 -54 -27 -26 c-15 -14 -33 -25 -40 -25 l-13 0 0 -24 0 -23 26 5 25 5 -5 12 -4 12 19 16 19 17 0 -35 0 -34 23 8 22 9 -2 10 c-1 5 7 18 17 27 l20 18 0 -30 0 -31 15 -5 14 -6 6 9 c3 5 6 25 7 44 l1 35 19 -2 18 -1 1 -36 c1 -19 1 -38 0 -42 -1 -7 20 -5 35 4 l11 7 -3 75 -2 75 19 -2 19 -1 1 -76 c1 -41 1 -78 0 -82 -1 -8 20 -5 35 5 l11 6 -3 88 c-1 49 -3 91 -3 96 l-1 7 -35 0 -35 0 -1 13 c-1 6 -1 24 0 38 l1 27 -43 3 c-23 2 -52 3 -64 1z m-23 -159 l0 -33 -11 0 -10 0 5 -9 6 -9 -15 -6 -16 -6 5 48 c6 55 3 49 21 49 l15 0 0 -34z m80 17 l0 -16 -20 -1 -20 -2 0 13 c0 17 7 23 25 23 l15 0 0 -17z"/>
<path d="M201 322 c1 -4 1 -23 0 -42 l-1 -36 -30 -2 -30 -2 -30 28 c-16 16 -30 35 -30 41 l0 12 -17 -3 -18 -3 -3 -17 -3 -17 25 -7 26 -6 -5 -8 -5 -8 12 -6 13 -5 -31 3 -30 4 0 -27 0 -26 56 0 56 0 18 -17 c10 -10 15 -18 12 -18 -3 0 4 -11 16 -25 l22 -25 10 10 11 11 0 94 c1 52 -2 95 -5 96 -3 0 -13 2 -22 4 l-17 3 0 -6z m-1 -132 c0 -5 -2 -10 -4 -10 -3 0 -8 5 -11 10 l-6 10 10 0 c6 0 11 -4 11 -10z"/>
<path d="M681 261 l2 -66 38 1 39 1 0 -16 0 -17 -78 1 -78 0 0 -25 0 -25 65 2 c36 1 82 2 102 2 l36 1 -2 39 -1 39 40 0 c23 0 59 1 81 1 l40 1 2 59 2 59 -24 4 -24 5 1 -6 c0 -3 0 -22 -1 -41 l-1 -35 -54 0 -55 0 -6 23 -6 23 6 9 5 9 -12 8 c-17 10 -38 13 -37 5 1 -4 1 -24 0 -44 l-1 -38 -20 0 -20 0 5 39 5 39 -26 5 -25 4 2 -66z"/>
<path d="M842 301 l2 -27 23 4 23 4 0 14 c0 14 -17 27 -38 30 l-12 2 2 -27z"/>
<path d="M1804 300 l0 -28 15 3 c8 1 20 9 25 18 l10 16 -6 6 c-3 3 -14 7 -25 9 l-19 4 0 -28z"/>
<path d="M2200 314 l0 -14 -29 -31 -30 -31 -11 7 -10 6 2 -29 2 -30 16 3 15 2 11 22 c7 13 17 28 23 34 l11 11 0 -26 0 -25 -32 -26 -31 -26 -9 5 -8 5 2 -30 2 -30 7 5 c4 2 14 1 23 -2 l16 -6 -6 -9 -5 -9 16 0 16 0 -6 -10 -6 -10 10 0 11 0 0 -15 0 -15 26 0 25 0 -6 11 -7 10 31 30 32 30 12 -2 c7 -1 30 -1 52 0 l41 1 0 20 c0 23 4 22 -68 24 l-57 2 5 -7 c2 -4 -2 -14 -10 -22 l-15 -15 6 -6 6 -6 -12 0 c-7 0 -20 -7 -28 -16 l-16 -16 -23 26 c-13 14 -24 31 -24 39 l0 14 23 21 c13 12 28 22 34 22 l12 0 6 20 c7 22 20 26 31 8 l7 -11 -23 -19 c-12 -10 -18 -18 -14 -18 5 0 1 -5 -9 -11 l-17 -10 -8 5 -8 5 0 -28 0 -28 23 5 23 4 0 15 0 14 24 24 23 23 34 0 c19 -1 44 0 57 1 l22 1 0 20 0 20 -17 1 c-10 0 -38 1 -63 2 l-45 2 0 15 0 15 55 3 55 4 7 11 7 12 -9 9 -10 10 -55 0 -54 1 -3 -20 -3 -20 -15 0 -15 0 0 12 c0 15 -12 26 -30 29 l-15 2 0 -14z"/>
<path d="M2442 301 l2 -27 23 4 23 4 0 14 c0 14 -17 27 -38 30 l-12 2 2 -27z"/>
<path d="M2522 321 c0 -3 0 -23 -1 -43 l-1 -37 -20 4 -20 4 2 -27 2 -27 40 3 41 4 2 58 2 58 -24 4 -24 5 1 -6z"/>
<path d="M2604 306 l1 -21 22 -3 21 -3 -2 15 c-3 19 -12 29 -30 32 l-13 2 1 -22z"/>
<path d="M360 308 l0 -13 -30 -28 -30 -28 -10 6 -10 6 2 -29 2 -28 23 4 23 4 0 15 c0 8 7 21 15 29 l15 15 0 -21 0 -22 -31 -29 -31 -29 -9 6 -9 5 0 -20 0 -20 28 -15 c15 -8 24 -15 20 -16 -4 0 4 -11 18 -25 l25 -25 -5 -9 -5 -8 24 5 25 4 0 13 c0 14 -24 37 -32 30 -2 -3 -17 8 -31 23 l-27 28 26 32 27 32 8 -5 8 -6 11 20 10 20 -3 43 -4 43 -21 3 -22 3 0 -13z"/>
<path d="M1962 303 l3 -18 22 -3 21 -3 -2 18 -3 18 -22 3 -23 4 4 -19z"/>
<path d="M440 190 l0 -59 9 -6 c5 -3 33 -6 61 -6 l51 -2 6 7 7 7 -11 17 -10 17 -35 -3 -34 -2 1 35 2 36 -11 7 c-6 3 -17 7 -23 8 l-13 2 0 -58z"/>
<path d="M1572 241 l-11 -7 2 -21 c0 -12 4 -21 7 -21 3 0 13 0 23 -1 l18 -1 -6 -10 -6 -10 14 0 15 0 6 -16 6 -17 -11 -13 c-6 -8 -16 -14 -21 -14 l-10 0 4 24 5 24 -23 5 -22 4 0 -67 0 -67 24 5 24 4 0 15 0 14 25 24 24 25 15 0 14 0 -2 17 -3 17 -13 4 c-8 3 -24 15 -37 28 l-23 23 0 14 0 15 -13 5 -14 5 -11 -7z"/>
<path d="M1882 221 l2 -27 23 4 24 5 -3 15 -3 15 -23 8 -22 8 2 -28z"/>
<path d="M1961 242 c1 -4 1 -24 0 -44 l-1 -38 -7 1 c-5 1 -14 1 -20 0 l-13 -1 0 -23 0 -23 51 2 51 3 -22 -19 -23 -20 -9 6 -8 5 2 -29 2 -28 23 4 23 4 0 17 0 18 23 21 c13 12 28 22 34 22 6 0 13 6 16 14 l5 14 -10 10 -10 10 -34 -5 -34 -5 4 41 4 41 -6 1 c-4 0 -15 2 -24 4 l-17 3 0 -6z"/>
<path d="M2723 242 l-43 -3 2 -23 2 -22 46 2 c25 1 53 2 62 3 l17 1 -2 20 c-1 11 -4 20 -7 21 -26 4 -41 4 -77 1z"/>
<path d="M1000 176 l0 -63 25 5 25 4 -4 24 -5 24 15 0 15 0 -6 -10 -6 -10 10 0 c6 0 11 -4 11 -10 0 -13 -52 -60 -67 -60 l-13 0 0 -24 0 -23 25 5 25 4 -2 12 -3 11 24 28 c14 15 30 27 37 27 l12 0 5 20 5 20 -14 0 -14 0 -30 29 c-17 15 -30 33 -30 40 l0 11 -20 0 -20 0 0 -64z"/>
<path d="M1800 202 l0 -39 -40 1 -40 2 2 -27 2 -26 18 5 18 4 0 -16 0 -16 -12 -1 c-7 -1 -16 -1 -20 0 l-8 1 0 -20 0 -21 17 -6 17 -7 3 11 c6 17 52 68 63 69 5 1 23 2 40 3 l29 1 -8 23 -9 22 -11 -2 -11 -3 -1 15 c-1 8 -2 25 -3 38 l-1 22 -22 3 -23 3 0 -39z"/>
<path d="M2600 199 l0 -40 -57 1 c-32 1 -68 1 -80 1 l-23 -1 0 -19 0 -19 13 -4 c10 -4 118 -3 176 1 l18 1 -2 43 c-1 23 -3 50 -4 60 l-1 17 -20 0 -20 0 0 -41z"/>
<path d="M2700 158 l-20 -7 0 -16 0 -15 33 -1 c41 -2 90 0 94 5 2 2 1 10 -2 19 l-6 15 -40 4 -39 4 -20 -8z"/>
<path d="M840 141 l0 -19 14 -5 14 -6 6 6 c3 4 6 15 6 25 l0 18 -20 0 -20 0 0 -19z"/>
<path d="M120 68 l0 -19 19 -7 c11 -4 37 -7 57 -7 l37 1 11 16 10 17 -6 6 c-3 4 -34 7 -67 9 l-61 2 0 -18z"/>
<path d="M483 71 c0 -9 4 -21 9 -28 l9 -12 13 5 12 5 1 19 c1 11 -1 20 -5 21 -4 0 -14 2 -23 4 l-16 3 0 -17z"/>
<path d="M1092 78 c-6 -6 -12 -20 -12 -29 l0 -17 20 5 c27 7 32 17 17 37 l-12 17 -13 -13z"/>
<path d="M2492 77 c-5 -7 -9 -19 -9 -28 l0 -17 11 2 c20 3 36 17 36 31 l0 13 -14 5 -15 6 -9 -12z"/>
<path d="M2562 66 l-1 -20 11 -8 c16 -9 28 0 28 21 l0 19 -18 4 -18 5 -2 -21z"/>
<path d="M2691 77 c-6 -6 -11 -18 -11 -26 l0 -16 57 1 58 1 3 21 3 22 -33 1 c-18 0 -40 2 -50 4 l-16 3 -11 -11z"/>
</g>
</svg>