<svg baseProfile="full" height="44" version="1.1" viewBox="-1 -11 110 22" width="220" xmlns="http://www.w3.org/2000/svg" xmlns:ev="http://www.w3.org/2001/xml-events" xmlns:xlink="http://www.w3.org/1999/xlink"><defs /><defs><path d="M-5 5-5-1 1-1 1 5zM-5-3-5-5 5-5 5 1 3 1 3-3zM 9-3 7-3 7-7-1-7-1-9 9-9zM-3 1-3 3-1 3-1 1z" id="pdCuhV" transform="translate(0,0) skewX(-5)" /><path d="M 3-1-1-1-1 3 1 3 1 1 3 1zM-1 7-1 9-5 9-5 7-1 7-1 3-3 3-3 1-5 1-5-1-3-1-3-3-5-3-5-9 1-9 1-7-1-7-1-5 1-5 1-3 3-3 3-1 5-1 5 1 3 1 3 3 5 3 5 5 3 5 3 7 5 7 5 9 3 9 3 7zM-3-5-3-3-1-3-1-5zM 1 5 3 5 3 3 1 3zM 3-9 5-9 5-7 3-7z" id="uYiWPm" transform="translate(0,0) skewX(-5)" /><path d="M 1 8 1 9-1 9-1 3 1 3 1 6 3 4 0 1-1 1-1-1 1-1 1 0 4 3 5 3 5 5 4 5z" id="EAVEK" transform="translate(0,0) skewX(-5)" /><path d="M 3-1 5-1 5 5-1 5-1-1 1-1 1 3 3 3zM 3 9 3 7 5 7 5 9zM-1 7 1 7 1 9-1 9z" id="EAURL" transform="translate(0,0) skewX(-5)" /><path d="M-1 5-1 7-3 7-3 5-1 5-1 3 1 3 1 1 3 1 3-1 5-1 5 3 3 3 3 5zM 3 9 3 7 5 7 5 9zM-1-3-1-5 1-5 1-1-3-1-3-3zM-5-7-5-9-3-9-3-7z" id="fcEA" transform="translate(0,0) skewX(-5)" /><path d="M 5 1-1 1-1-1 5-1zM-1 5-1 3 5 3 5 5zM-1 9-1 7 5 7 5 9z" id="EAVOG" transform="translate(0,0) skewX(-5)" /><path d="M-5 5-5 3-3 3-3 1-1 1-1 3 1 3 1-3 5-3 5 5zM 3 9 3 7 5 7 5 9zM-5 7-3 7-3 9-5 9zM 1-5-1-5-1-7-3-7-3-9 3-9 3-7 1-7zM-3-3-5-3-5-5-3-5-3-3-1-3-1-1-3-1zM-1 7 1 7 1 9-1 9z" id="XpeTOZ" transform="translate(0,0) skewX(-5)" /><path d="M-1 7-1 5-3 5-3 9-5 9-5 5-3 5-3 1-5 1-5-3 1-3 1-1 3-1 3-7 5-7 5-1 3-1 3 1 5 1 5 5 1 5 1 7 5 7 5 9 1 9 1 7zM-3-5-3-7-5-7-5-9-1-9-1-7 1-7 1-5zM-1 3 1 3 1-1-1-1z" id="VnaPiE" transform="translate(0,0) skewX(-5)" /><path d="M 3-1-1-1-1 3 1 3 1 1 3 1zM-5 5-5-5-1-5-1-3 1-3 1-5 5-5 5 9-1 9-1 7 3 7 3 5zM-5 7-3 7-3 9-5 9zM-5-7-5-9-3-9-3-7z" id="zzzFD" transform="translate(0,0) skewX(-5)" /></defs><g fill="black" stroke="black" stroke-linejoin="round" stroke-width="0"><use x="6" xlink:href="#pdCuhV" y="0" /><use x="19" xlink:href="#EAVEK" y="0" /><use x="32" xlink:href="#zzzFD" y="0" /><use x="45" xlink:href="#uYiWPm" y="0" /><use x="58" xlink:href="#XpeTOZ" y="0" /><use x="71" xlink:href="#VnaPiE" y="0" /><use x="84" xlink:href="#fcEA" y="0" /><use x="93" xlink:href="#EAURL" y="0" /><use x="102" xlink:href="#EAVOG" y="0" /></g></svg>