<svg xmlns="http://www.w3.org/2000/svg" version="1.0" width="147.08pt" height="19.200000pt" viewBox="0 0 147.08 19.200000" preserveAspectRatio="xMidYMid meet">
<metadata>
Created by potrace 1.13, written by Peter Selinger 2001-2015
</metadata>
<g transform="translate(0.0,19.200000) scale(0.048000,-0.048000) skewX(5)" fill="#000000" stroke="none">
<path d="M20 360 l0 -20 60 0 60 0 0 20 0 20 -60 0 -60 0 0 -20z"/>
<path d="M420 360 l0 -20 80 0 80 0 0 -40 0 -40 20 0 20 0 0 60 0 60 -100 0 -100 0 0 -20z"/>
<path d="M100 288 c0 -7 -12 -25 -27 -40 l-27 -28 -13 0 -13 0 0 -20 0 -20 20 0 20 0 0 13 c0 8 9 22 20 32 l20 18 0 -23 0 -24 -27 -28 -27 -28 -13 0 -13 0 0 -20 0 -20 20 0 20 0 0 13 0 13 28 27 c15 15 33 27 40 27 l12 0 0 60 0 60 -20 0 -20 0 0 -12z"/>
<path d="M340 280 l0 -20 80 0 80 0 0 -40 0 -40 20 0 20 0 0 60 0 60 -100 0 -100 0 0 -20z"/>
<path d="M820 160 l0 -140 20 0 20 0 0 112 0 111 20 -18 20 -18 0 -94 0 -93 20 0 20 0 0 100 0 100 -13 0 -13 0 -27 28 c-15 15 -27 33 -27 40 l0 12 -20 0 -20 0 0 -140z"/>
<path d="M980 160 l0 -140 20 0 20 0 0 32 0 31 20 -18 c11 -10 20 -24 20 -32 l0 -13 20 0 20 0 0 20 0 20 -13 0 -13 0 -29 30 -29 30 29 30 29 30 13 0 13 0 0 20 0 20 -13 0 -13 0 -27 28 c-15 15 -27 33 -27 40 l0 12 -20 0 -20 0 0 -140z m62 18 l-22 -22 0 44 0 44 22 -22 22 -22 -22 -22z"/>
<path d="M1140 200 l0 -100 13 0 13 0 27 -28 c15 -15 27 -33 27 -40 l0 -12 20 0 20 0 0 20 0 20 -13 0 -13 0 -27 28 -27 28 0 64 0 63 20 -18 c11 -10 20 -24 20 -32 l0 -13 20 0 20 0 0 20 0 20 -13 0 -13 0 -27 28 c-15 15 -27 33 -27 40 l0 12 -20 0 -20 0 0 -100z"/>
<path d="M1300 160 l0 -140 20 0 20 0 0 112 0 111 20 -18 20 -18 0 -94 0 -93 20 0 20 0 0 100 0 100 -13 0 -13 0 -27 28 c-15 15 -27 33 -27 40 l0 12 -20 0 -20 0 0 -140z"/>
<path d="M1460 160 l0 -140 20 0 20 0 0 53 0 53 28 27 c15 15 33 27 40 27 l12 0 0 60 0 60 -20 0 -20 0 0 -53 0 -54 -20 -18 -20 -18 0 71 0 72 -20 0 -20 0 0 -140z"/>
<path d="M1620 160 l0 -140 20 0 20 0 0 112 0 111 20 -18 20 -18 0 -94 0 -93 20 0 20 0 0 100 0 100 -13 0 -13 0 -27 28 c-15 15 -27 33 -27 40 l0 12 -20 0 -20 0 0 -140z"/>
<path d="M1780 160 l0 -140 20 0 20 0 0 112 0 111 20 -18 c11 -10 20 -24 20 -32 l0 -13 20 0 20 0 0 20 0 20 -13 0 -13 0 -27 28 c-15 15 -27 33 -27 40 l0 12 -20 0 -20 0 0 -140z"/>
<path d="M1940 160 l0 -140 20 0 20 0 0 112 0 111 20 -18 20 -18 0 -94 0 -93 20 0 20 0 0 100 0 100 -13 0 -13 0 -27 28 c-15 15 -27 33 -27 40 l0 12 -20 0 -20 0 0 -140z"/>
<path d="M2100 160 l0 -140 20 0 20 0 0 32 0 31 20 -18 c11 -10 20 -24 20 -32 l0 -13 20 0 20 0 0 20 0 20 -13 0 -13 0 -29 30 -29 30 29 30 29 30 13 0 13 0 0 20 0 20 -13 0 -13 0 -27 28 c-15 15 -27 33 -27 40 l0 12 -20 0 -20 0 0 -140z m62 18 l-22 -22 0 44 0 44 22 -22 22 -22 -22 -22z"/>
<path d="M2260 200 l0 -100 13 0 13 0 27 -28 c15 -15 27 -33 27 -40 l0 -12 20 0 20 0 0 20 0 20 -13 0 -13 0 -27 28 -27 28 0 64 0 63 20 -18 c11 -10 20 -24 20 -32 l0 -13 20 0 20 0 0 20 0 20 -13 0 -13 0 -27 28 c-15 15 -27 33 -27 40 l0 12 -20 0 -20 0 0 -100z"/>
<path d="M2420 160 l0 -140 20 0 20 0 0 112 0 111 20 -18 20 -18 0 -94 0 -93 20 0 20 0 0 100 0 100 -13 0 -13 0 -27 28 c-15 15 -27 33 -27 40 l0 12 -20 0 -20 0 0 -140z"/>
<path d="M180 160 l0 -60 60 0 60 0 0 20 0 20 -40 0 -40 0 0 40 0 40 -20 0 -20 0 0 -60z"/>
<path d="M340 160 l0 -60 60 0 60 0 0 60 0 60 -60 0 -60 0 0 -60z m80 0 l0 -20 -20 0 -20 0 0 20 0 20 20 0 20 0 0 -20z"/>
<path d="M660 200 l0 -20 13 0 13 0 29 -30 29 -30 -22 -22 -22 -22 0 32 0 32 -20 0 -20 0 0 -60 0 -60 20 0 20 0 0 13 0 13 28 27 c15 15 33 27 40 27 l12 0 0 20 0 20 -13 0 -13 0 -27 28 c-15 15 -27 33 -27 40 l0 12 -20 0 -20 0 0 -20z"/>
<path d="M2580 200 l0 -20 20 0 20 0 0 20 0 20 -20 0 -20 0 0 -20z"/>
<path d="M2660 160 l0 -60 60 0 60 0 0 60 0 60 -20 0 -20 0 0 -40 0 -40 -20 0 -20 0 0 40 0 40 -20 0 -20 0 0 -60z"/>
<path d="M2820 200 l0 -20 60 0 60 0 0 20 0 20 -60 0 -60 0 0 -20z"/>
<path d="M2820 120 l0 -20 60 0 60 0 0 20 0 20 -60 0 -60 0 0 -20z"/>
<path d="M220 40 l0 -20 20 0 20 0 0 20 0 20 -20 0 -20 0 0 -20z"/>
<path d="M2660 40 l0 -20 20 0 20 0 0 20 0 20 -20 0 -20 0 0 -20z"/>
<path d="M2740 40 l0 -20 20 0 20 0 0 20 0 20 -20 0 -20 0 0 -20z"/>
<path d="M2820 40 l0 -20 60 0 60 0 0 20 0 20 -60 0 -60 0 0 -20z"/>
</g>
</svg>