<svg baseProfile="full" height="44" version="1.1" viewBox="-1 -11 110 22" width="220" xmlns="http://www.w3.org/2000/svg" xmlns:ev="http://www.w3.org/2001/xml-events" xmlns:xlink="http://www.w3.org/1999/xlink"><defs /><defs><path d="M 1-4 3-2 3-5 5-5 5 9 3 9 3 2 1 4 1 5-5 5-5 3-1 3-1 1-5 1-5-1-1-1-1-3-5-3-5-5 1-5zM 3 0 1-2 1 2z" id="yhCwbf" transform="translate(0,0) skewX(-5)" /><path d="M 5 9 3 9 3 6 1 8 1 9-1 9-1 7 0 7 3 4 3 1-1 1-1-1 5-1z" id="EAUrK" transform="translate(0,0) skewX(-5)" /><path d="M-5 5-5-5 1-5 1-3-3-3-3 3 3 3 3 1-1 1-1-1 5-1 5 5z" id="ZvTVeE" transform="translate(0,0) skewX(-5)" /><path d="M-5 5-5 3 3 3 3-1 5-1 5 5zM-5-3-5-5 5-5 5-3zM-5 1-5-1 1-1 1 1z" id="yhCUyE" transform="translate(0,0) skewX(-5)" /><path d="M-1 5-1-1 1-1 1 3 5 3 5 5zM 3 7 3 9 1 9 1 7z" id="EAUHD" transform="translate(0,0) skewX(-5)" /><path d="M 1 8 1 9-1 9-1 3 1 3 1 6 3 4 0 1-1 1-1-1 1-1 1 0 4 3 5 3 5 5 4 5z" id="EAVEK" transform="translate(0,0) skewX(-5)" /><path d="M-5 5-5-1-1-1-1-5 1-5 1-1 3-1 3-5 5-5 5-1 7-1 7-5 9-5 9 1 5 1 5 4 8 7 9 7 9 9 7 9 7 8 5 6 5 9 3 9 3 6 1 8 1 9-1 9-1 7 0 7 3 4 3 1 1 1 1 5zM-3 1-3 3-1 3-1 1z" id="XIAxDH" transform="translate(0,0) skewX(-5)" /><path d="M 3-1 5-1 5 5-1 5-1-1 1-1 1 3 3 3zM 3 9 3 7 5 7 5 9zM-1 7 1 7 1 9-1 9z" id="EAURL" transform="translate(0,0) skewX(-5)" /><path d="M 5 1-1 1-1-1 5-1zM-1 5-1 3 5 3 5 5zM-1 9-1 7 5 7 5 9z" id="EAVOG" transform="translate(0,0) skewX(-5)" /><path d="M-9-9-3-9-3 1-5 1-5-7-9-7zM 1-4 2-3 3-4 3-6zM-1 9-1 3 1 3 1 7 3 7 3 3 5 3 5 9zM 3 0 2-1 1 0 1 1-1 1-1-1 0-1 1-2 0-3-1-3-1-5 0-5 3-8 3-9 5-9 5-3 4-3 3-2 4-1 5-1 5 1 3 1z" id="uOYTeQ" transform="translate(0,0) skewX(-5)" /></defs><g fill="black" stroke="black" stroke-linejoin="round" stroke-width="0"><use x="6" xlink:href="#yhCwbf" y="0" /><use x="18" xlink:href="#yhCUyE" y="0" /><use x="26" xlink:href="#EAUHD" y="0" /><use x="38" xlink:href="#ZvTVeE" y="0" /><use x="46" xlink:href="#EAUrK" y="0" /><use x="54" xlink:href="#EAVEK" y="0" /><use x="70" xlink:href="#uOYTeQ" y="0" /><use x="82" xlink:href="#XIAxDH" y="0" /><use x="94" xlink:href="#EAURL" y="0" /><use x="102" xlink:href="#EAVOG" y="0" /></g></svg>