<svg baseProfile="full" height="44" version="1.1" viewBox="-1 -11 14 22" width="28" xmlns="http://www.w3.org/2000/svg" xmlns:ev="http://www.w3.org/2001/xml-events" xmlns:xlink="http://www.w3.org/1999/xlink"><defs /><defs><path d="M 0-7-3-4-3-3-5-3-5-5-4-5-1-8-1-9 1-9 1-7zM 3 9 3 8 1 6 1 9-1 9-1 1-5 1-5-1 5-1 5 1 1 1 1 4 4 7 5 7 5 9zM 1-4 1-3-1-3-1-5 0-5 3-8 3-9 5-9 5-7 4-7zM 5-3 3-3 3-5 5-5zM-5-7-5-9-3-9-3-7z" id="UrKUwR" transform="translate(0,0) skewX(-5)" /></defs><g fill="black" stroke="black" stroke-linejoin="round" stroke-width="0"><use x="6" xlink:href="#UrKUwR" y="0" /></g></svg>