<svg xmlns="http://www.w3.org/2000/svg" version="1.0" width="77.96pt" height="19.200000pt" viewBox="0 0 77.96 19.200000" preserveAspectRatio="xMidYMid meet">
<metadata>
Created by potrace 1.13, written by Peter Selinger 2001-2015
</metadata>
<g transform="translate(0.0,19.200000) scale(0.048000,-0.048000) skewX(5)" fill="#000000" stroke="none">
<path d="M60 360 l0 -20 20 0 20 0 0 20 0 20 -20 0 -20 0 0 -20z"/>
<path d="M900 360 l0 -20 60 0 60 0 0 20 0 20 -60 0 -60 0 0 -20z"/>
<path d="M100 288 c0 -7 -12 -25 -27 -40 l-27 -28 -13 0 -13 0 0 -20 0 -20 20 0 20 0 0 13 c0 8 9 22 20 32 l20 18 0 -23 0 -24 -27 -28 -27 -28 -13 0 -13 0 0 -20 0 -20 20 0 20 0 0 13 0 13 28 27 c15 15 33 27 40 27 l12 0 0 60 0 60 -20 0 -20 0 0 -12z"/>
<path d="M340 240 l0 -60 13 0 13 0 29 -30 29 -30 -29 -30 -29 -30 -13 0 -13 0 0 -20 0 -20 20 0 20 0 0 13 0 13 30 29 30 29 30 -29 30 -29 0 -13 0 -13 20 0 20 0 0 20 0 20 -13 0 -13 0 -27 28 c-15 15 -27 33 -27 40 l0 12 -12 0 c-7 0 -25 12 -40 27 l-28 27 0 53 0 53 -20 0 -20 0 0 -60z"/>
<path d="M420 240 l0 -60 12 0 c7 0 25 -12 40 -27 l28 -27 0 -13 0 -13 20 0 20 0 0 60 0 60 -20 0 -20 0 0 -32 0 -31 -20 18 -20 18 0 54 0 53 -20 0 -20 0 0 -60z"/>
<path d="M500 280 l0 -20 20 0 20 0 0 20 0 20 -20 0 -20 0 0 -20z"/>
<path d="M980 288 c0 -7 -12 -25 -27 -40 l-27 -28 -13 0 -13 0 0 -20 0 -20 20 0 20 0 0 13 c0 8 9 22 20 32 l20 18 0 -23 0 -24 -27 -28 -27 -28 -13 0 -13 0 0 -20 0 -20 20 0 20 0 0 13 0 13 28 27 c15 15 33 27 40 27 l12 0 0 60 0 60 -20 0 -20 0 0 -12z"/>
<path d="M1060 280 l0 -20 20 0 20 0 0 20 0 20 -20 0 -20 0 0 -20z"/>
<path d="M1140 280 l0 -20 20 0 20 0 0 20 0 20 -20 0 -20 0 0 -20z"/>
<path d="M180 160 l0 -60 60 0 60 0 0 20 0 20 -40 0 -40 0 0 40 0 40 -20 0 -20 0 0 -60z"/>
<path d="M580 200 l0 -20 60 0 60 0 0 20 0 20 -60 0 -60 0 0 -20z"/>
<path d="M740 200 l0 -20 13 0 13 0 29 -30 29 -30 -22 -22 -22 -22 0 32 0 32 -20 0 -20 0 0 -60 0 -60 20 0 20 0 0 13 0 13 28 27 c15 15 33 27 40 27 l12 0 0 20 0 20 -13 0 -13 0 -27 28 c-15 15 -27 33 -27 40 l0 12 -20 0 -20 0 0 -20z"/>
<path d="M1060 200 l0 -20 60 0 60 0 0 20 0 20 -60 0 -60 0 0 -20z"/>
<path d="M1220 200 l0 -20 40 0 40 0 0 -20 0 -20 -40 0 -40 0 0 -20 0 -20 60 0 60 0 0 60 0 60 -60 0 -60 0 0 -20z"/>
<path d="M1380 200 l0 -20 60 0 60 0 0 20 0 20 -60 0 -60 0 0 -20z"/>
<path d="M660 120 l0 -20 20 0 20 0 0 20 0 20 -20 0 -20 0 0 -20z"/>
<path d="M1060 120 l0 -20 20 0 20 0 0 20 0 20 -20 0 -20 0 0 -20z"/>
<path d="M1140 120 l0 -20 20 0 20 0 0 20 0 20 -20 0 -20 0 0 -20z"/>
<path d="M1380 120 l0 -20 60 0 60 0 0 20 0 20 -60 0 -60 0 0 -20z"/>
<path d="M220 40 l0 -20 20 0 20 0 0 20 0 20 -20 0 -20 0 0 -20z"/>
<path d="M580 40 l0 -20 60 0 60 0 0 20 0 20 -60 0 -60 0 0 -20z"/>
<path d="M1220 40 l0 -20 20 0 20 0 0 20 0 20 -20 0 -20 0 0 -20z"/>
<path d="M1300 40 l0 -20 20 0 20 0 0 20 0 20 -20 0 -20 0 0 -20z"/>
<path d="M1380 40 l0 -20 60 0 60 0 0 20 0 20 -60 0 -60 0 0 -20z"/>
</g>
</svg>