<svg xmlns="http://www.w3.org/2000/svg" version="1.0" width="77.96pt" height="19.200000pt" viewBox="0 0 77.96 19.200000" preserveAspectRatio="xMidYMid meet">
<metadata>
Created by potrace 1.13, written by Peter Selinger 2001-2015
</metadata>
<g transform="translate(0.0,19.200000) scale(0.048000,-0.048000) skewX(5)" fill="#000000" stroke="none">
<path d="M980 360 l0 -20 20 0 20 0 0 20 0 20 -20 0 -20 0 0 -20z"/>
<path d="M1060 360 l0 -20 20 0 20 0 0 20 0 20 -20 0 -20 0 0 -20z"/>
<path d="M20 241 l0 -59 20 -5 20 -5 0 -12 0 -12 -20 -5 -20 -5 0 -59 0 -59 20 0 20 0 0 12 c0 7 12 25 27 40 l27 28 13 0 13 0 0 19 0 19 -21 5 -21 6 4 13 5 13 53 0 53 0 5 -13 4 -13 -21 -6 -21 -5 0 -59 0 -59 20 0 20 0 0 13 0 13 28 27 c15 15 33 27 40 27 l12 0 0 19 0 19 -20 5 -20 5 0 12 0 12 20 5 20 5 0 59 0 59 -20 0 -19 0 -3 -57 -3 -58 -15 0 -15 0 -3 58 -3 57 -59 0 -59 0 -3 -57 -3 -58 -15 0 -15 0 -3 58 -3 57 -19 0 -20 0 0 -59z m160 -1 l0 -20 -20 0 -20 0 0 20 0 20 20 0 20 0 0 -20z m-84 -111 l6 -11 -21 -21 -21 -21 0 25 c0 37 20 53 36 28z m160 0 l6 -11 -21 -21 -21 -21 0 25 c0 37 20 53 36 28z"/>
<path d="M500 280 l0 -20 60 0 60 0 0 20 0 20 -60 0 -60 0 0 -20z"/>
<path d="M660 280 l0 -20 40 0 40 0 0 -20 0 -20 -40 0 -40 0 0 -20 0 -20 40 0 40 0 0 -20 0 -20 -40 0 -40 0 0 -20 0 -20 60 0 60 0 0 13 c0 8 9 22 20 32 l20 18 0 -71 0 -72 20 0 20 0 0 140 0 140 -20 0 -20 0 0 -32 0 -31 -20 18 c-11 10 -20 24 -20 32 l0 13 -60 0 -60 0 0 -20z m142 -102 l-22 -22 0 44 0 44 22 -22 22 -22 -22 -22z"/>
<path d="M900 240 l0 -60 20 0 20 0 0 60 0 60 -20 0 -20 0 0 -60z"/>
<path d="M980 200 l0 -100 20 0 20 0 0 100 0 100 -20 0 -20 0 0 -100z"/>
<path d="M1060 240 l0 -60 20 0 20 0 0 60 0 60 -20 0 -20 0 0 -60z"/>
<path d="M1220 288 c0 -7 -12 -25 -27 -40 l-27 -28 -13 0 -13 0 0 -60 0 -60 100 0 100 0 0 60 0 60 -13 0 -13 0 -27 28 c-15 15 -27 33 -27 40 l0 12 -20 0 -20 0 0 -12z m52 -55 l28 -27 0 -33 0 -33 -52 0 -51 0 18 20 c10 11 24 20 32 20 l13 0 0 20 0 20 -32 0 -31 0 18 20 c23 25 23 25 57 -7z m-72 -57 c0 -3 -4 -8 -10 -11 l-10 -6 0 10 c0 6 5 11 10 11 6 0 10 -2 10 -4z"/>
<path d="M340 200 l0 -20 40 0 40 0 0 -60 0 -60 -40 0 -40 0 0 -20 0 -20 60 0 60 0 0 100 0 100 -60 0 -60 0 0 -20z"/>
<path d="M500 200 l0 -20 13 0 13 0 29 -30 29 -30 -22 -22 -22 -22 0 32 0 32 -20 0 -20 0 0 -60 0 -60 20 0 20 0 0 13 0 13 28 27 c15 15 33 27 40 27 l12 0 0 20 0 20 -13 0 -13 0 -27 28 c-15 15 -27 33 -27 40 l0 12 -20 0 -20 0 0 -20z"/>
<path d="M1380 200 l0 -20 60 0 60 0 0 20 0 20 -60 0 -60 0 0 -20z"/>
<path d="M1380 120 l0 -20 60 0 60 0 0 20 0 20 -60 0 -60 0 0 -20z"/>
<path d="M1180 40 l0 -20 20 0 20 0 0 20 0 20 -20 0 -20 0 0 -20z"/>
<path d="M1260 40 l0 -20 20 0 20 0 0 20 0 20 -20 0 -20 0 0 -20z"/>
<path d="M1380 40 l0 -20 60 0 60 0 0 20 0 20 -60 0 -60 0 0 -20z"/>
</g>
</svg>