<svg baseProfile="full" height="44" version="1.1" viewBox="-1 -11 61 22" width="122" xmlns="http://www.w3.org/2000/svg" xmlns:ev="http://www.w3.org/2001/xml-events" xmlns:xlink="http://www.w3.org/1999/xlink"><defs /><defs><path d="M-5-3-5-5-1-5-1-9 5-9 5 5 3 5 3 1 0 1-3 4-3 5-5 5-5 3-4 3-2 1-5 1-5-1-1-1-1-3zM 3-3 1-3 1-1 3-1zM 1-5 3-5 3-7 1-7z" id="xOUPsg" transform="translate(0,0) skewX(-5)" /><path d="M 1 0 1 1-9 1-9-1-8-1-5-4-5-5 5-5 5-3 4-3zM-3-3-3-1-1-1-1-3zM 1-3 1-2 2-3zM-6-1-5-1-5-2z" id="ZnCXgb" transform="translate(0,0) skewX(-5)" /></defs><g fill="black" stroke="black" stroke-linejoin="round" stroke-width="0"><use x="10" xlink:href="#ZnCXgb" y="0" /><use x="27" xlink:href="#ZnCXgb" y="0" /><use x="40" xlink:href="#xOUPsg" y="0" /><use x="53" xlink:href="#xOUPsg" y="0" /></g></svg>