<svg xmlns="http://www.w3.org/2000/svg" version="1.0" width="93.32pt" height="19.200000pt" viewBox="0 0 93.32 19.200000" preserveAspectRatio="xMidYMid meet">
<metadata>
Created by potrace 1.13, written by Peter Selinger 2001-2015
</metadata>
<g transform="translate(0.0,19.200000) scale(0.048000,-0.048000) skewX(5)" fill="#000000" stroke="none">
<path d="M20 280 l0 -20 40 0 40 0 0 -20 0 -20 -40 0 -40 0 0 -20 0 -20 40 0 40 0 0 -40 0 -40 20 0 20 0 0 40 0 40 20 0 20 0 0 -40 0 -40 20 0 20 0 0 60 0 60 -40 0 -40 0 0 40 0 40 -60 0 -60 0 0 -20z"/>
<path d="M180 280 l0 -20 20 0 20 0 0 20 0 20 -20 0 -20 0 0 -20z"/>
<path d="M260 200 l0 -100 13 0 13 0 27 -28 c15 -15 27 -33 27 -40 l0 -12 20 0 20 0 0 20 0 20 -13 0 c-8 0 -22 9 -32 20 l-18 20 31 0 32 0 0 20 0 20 -40 0 -40 0 0 20 0 20 40 0 40 0 0 60 0 60 -60 0 -60 0 0 -100z m80 40 l0 -20 -20 0 -20 0 0 20 0 20 20 0 20 0 0 -20z"/>
<path d="M660 250 l0 -50 20 0 20 0 0 30 0 30 20 0 20 0 0 -60 0 -60 -80 0 -80 0 0 -20 0 -20 100 0 100 0 0 80 0 80 20 0 20 0 0 -80 0 -80 60 0 60 0 0 20 0 20 -40 0 -40 0 0 80 0 80 -100 0 -100 0 0 -50z"/>
<path d="M1220 288 c0 -7 -12 -25 -27 -40 l-27 -28 -13 0 -13 0 0 -60 0 -60 20 0 20 0 0 53 0 54 20 18 20 18 0 -31 0 -32 12 0 c7 0 25 -12 40 -27 l28 -27 0 -13 0 -13 20 0 20 0 0 20 0 20 -12 0 c-7 0 -25 12 -40 27 l-28 27 0 53 0 53 -20 0 -20 0 0 -12z"/>
<path d="M420 200 l0 -20 40 0 40 0 0 -40 0 -40 20 0 20 0 0 60 0 60 -60 0 -60 0 0 -20z"/>
<path d="M980 160 l0 -60 20 0 20 0 0 32 0 32 22 -22 22 -22 -29 -30 -29 -30 -13 0 -13 0 0 -20 0 -20 20 0 20 0 0 13 0 13 28 27 c15 15 33 27 40 27 l12 0 0 20 0 20 -13 0 -13 0 -27 28 c-15 15 -27 33 -27 40 l0 12 -20 0 -20 0 0 -60z"/>
<path d="M1380 120 l0 -100 60 0 60 0 0 20 0 20 -40 0 -40 0 0 20 0 20 40 0 40 0 0 60 0 60 -60 0 -60 0 0 -100z m80 40 l0 -20 -20 0 -20 0 0 20 0 20 20 0 20 0 0 -20z"/>
<path d="M1540 200 l0 -20 13 0 13 0 29 -30 29 -30 -22 -22 -22 -22 0 32 0 32 -20 0 -20 0 0 -60 0 -60 20 0 20 0 0 13 0 13 28 27 c15 15 33 27 40 27 l12 0 0 20 0 20 -13 0 -13 0 -27 28 c-15 15 -27 33 -27 40 l0 12 -20 0 -20 0 0 -20z"/>
<path d="M1700 200 l0 -20 60 0 60 0 0 20 0 20 -60 0 -60 0 0 -20z"/>
<path d="M1700 120 l0 -20 60 0 60 0 0 20 0 20 -60 0 -60 0 0 -20z"/>
<path d="M100 40 l0 -20 60 0 60 0 0 20 0 20 -60 0 -60 0 0 -20z"/>
<path d="M460 40 l0 -20 20 0 20 0 0 20 0 20 -20 0 -20 0 0 -20z"/>
<path d="M1060 40 l0 -20 20 0 20 0 0 20 0 20 -20 0 -20 0 0 -20z"/>
<path d="M1700 40 l0 -20 60 0 60 0 0 20 0 20 -60 0 -60 0 0 -20z"/>
</g>
</svg>