<svg baseProfile="full" height="44" version="1.1" viewBox="-1 -11 18 22" width="36" xmlns="http://www.w3.org/2000/svg" xmlns:ev="http://www.w3.org/2001/xml-events" xmlns:xlink="http://www.w3.org/1999/xlink"><defs /><defs><path d="M-3-3-3-1 5-1 5 5 3 5 3 1-3 1-3 3 1 3 1 9-1 9-1 5-5 5-5-3-9-3-9-5 1-5 1-3zM 3 9 3 7 5 7 5 9zM-5 7-3 7-3 9-5 9zM-5-7-5-9-3-9-3-7z" id="ZTEOnU" transform="translate(0,0) skewX(-5)" /></defs><g fill="black" stroke="black" stroke-linejoin="round" stroke-width="0"><use x="10" xlink:href="#ZTEOnU" y="0" /></g></svg>