<svg baseProfile="full" height="44" version="1.1" viewBox="-1 -11 162 22" width="324" xmlns="http://www.w3.org/2000/svg" xmlns:ev="http://www.w3.org/2001/xml-events" xmlns:xlink="http://www.w3.org/1999/xlink"><defs /><defs><path d="M 1-4 4-1 5-1 5 1 1 1 1 3 9 3 9 9 7 9 7 6 5 8 5 9 3 9 3 7 4 7 6 5 1 5 1 9-1 9-1 1-5 1-5-5-3-5-3-1 2-1 0-3-1-3-1-5 1-5z" id="WMAOQP" transform="translate(0,0) skewX(-5)" /><path d="M-1 5-1 3 1 3 1 5zM-3-3-3-1 5-1 5 5 3 5 3 1-5 1-5-9 1-9 1-7-3-7-3-5 1-5 1-3zM-5 5-5 3-3 3-3 5z" id="ZqWVeA" transform="translate(0,0) skewX(-5)" /><path d="M 5 1 4 1 3 2 4 3 5 3 5 5 3 5 3 4 2 3 1 4 1 5-1 5-1 3 0 3 1 2 0 1-1 1-1-1 5-1zM 5-5 5-3-1-3-1-5z" id="twWVNW" transform="translate(0,0) skewX(-5)" /><path d="M-5 5-5-5 1-5 1-3-3-3-3 3 3 3 3 1-1 1-1-1 5-1 5 5z" id="ZvTVeE" transform="translate(0,0) skewX(-5)" /><path d="M-1 5-1-1 1-1 1 3 5 3 5 5zM 3 7 3 9 1 9 1 7z" id="EAUHD" transform="translate(0,0) skewX(-5)" /><path d="M 1 8 1 9-1 9-1 3 1 3 1 6 3 4 0 1-1 1-1-1 1-1 1 0 4 3 5 3 5 5 4 5z" id="EAVEK" transform="translate(0,0) skewX(-5)" /><path d="M 1-4 3-2 3-5 5-5 5-2 7-4 7-5 9-5 9-3 8-3 5 0 5 5 3 5 3 4 0 1-3 4-3 5-5 5-5 4-8 1-9 1-9-1-7-1-7 0-5 2-5-1-3-1-3 2-1 0-1-1 1-1 1 0 3 2 3 0 0-3-1-3-1-5 1-5z" id="LAugA" transform="translate(0,0) skewX(-5)" /><path d="M 3-1 5-1 5 5-1 5-1-1 1-1 1 3 3 3zM 3 9 3 7 5 7 5 9zM-1 7 1 7 1 9-1 9z" id="EAURL" transform="translate(0,0) skewX(-5)" /><path d="M 5 5-1 5-1 3 3 3 3 1-1 1-1-1 5-1zM 3 9 3 7 5 7 5 9zM-1 7 1 7 1 9-1 9z" id="EAVeE" transform="translate(0,0) skewX(-5)" /><path d="M 5 1-1 1-1-1 5-1zM-1 5-1 3 5 3 5 5zM-1 9-1 7 5 7 5 9z" id="EAVOG" transform="translate(0,0) skewX(-5)" /><path d="M 5 1-1 1-1-2-3 0 0 3 1 3 1 5-1 5-1 4-4 1-5 1-5-1-4-1-1-4-1-5 1-5 1-1 5-1z" id="UhCVEc" transform="translate(0,0) skewX(-5)" /><path d="M 7-2 7-5 9-5 9 5 7 5 7 4 4 1 3 1 3-1 5-1 5 0 7 2 7 0 4-3 3-3 3-5 5-5 5-4zM-5 5-5 3 5 3 5 5zM-9-1-7-1-7 2-5 0-5-1-3-1-3 1-4 1-7 4-7 5-9 5zM-1 1-1-1 1-1 1 1z" id="RNUXuQ" transform="translate(0,0) skewX(-5)" /></defs><g fill="black" stroke="black" stroke-linejoin="round" stroke-width="0"><use x="6" xlink:href="#ZqWVeA" y="0" /><use x="15" xlink:href="#twWVNW" y="0" /><use x="28" xlink:href="#WMAOQP" y="0" /><use x="41" xlink:href="#EAUHD" y="0" /><use x="54" xlink:href="#ZvTVeE" y="0" /><use x="63" xlink:href="#EAVEK" y="0" /><use x="80" xlink:href="#LAugA" y="0" /><use x="93" xlink:href="#EAURL" y="0" /><use x="106" xlink:href="#UhCVEc" y="0" /><use x="115" xlink:href="#EAVEK" y="0" /><use x="132" xlink:href="#RNUXuQ" y="0" /><use x="145" xlink:href="#EAVeE" y="0" /><use x="154" xlink:href="#EAVOG" y="0" /></g></svg>