<svg xmlns="http://www.w3.org/2000/svg" version="1.0" width="54.92pt" height="19.200000pt" viewBox="0 0 54.92 19.200000" preserveAspectRatio="xMidYMid meet">
<metadata>
Created by potrace 1.13, written by Peter Selinger 2001-2015
</metadata>
<g transform="translate(0.0,19.200000) scale(0.048000,-0.048000) skewX(5)" fill="#000000" stroke="none">
<path d="M22 363 l-2 -23 13 -1 c6 -1 15 -1 20 0 4 0 7 -6 7 -14 l0 -15 -12 -1 c-7 -1 -16 -1 -20 0 l-8 1 0 -19 0 -19 13 -11 13 -11 12 12 c7 7 12 17 12 23 0 13 53 61 60 55 3 -3 6 5 8 18 l3 22 -18 1 c-10 1 -36 2 -59 3 l-40 1 -2 -22z"/>
<path d="M110 300 l-9 -6 1 -20 2 -20 30 3 31 3 -13 -6 -12 -6 6 -9 5 -9 -18 -1 c-10 -1 -20 -1 -23 -1 -3 0 -6 -8 -7 -18 l-2 -19 15 -11 14 -12 9 23 c9 24 59 76 67 72 2 -2 8 -3 12 -3 l8 0 0 20 0 20 -11 1 c-38 4 -98 3 -105 -1z"/>
<path d="M501 302 c1 -4 1 -20 0 -36 l-1 -29 -20 18 -19 17 2 11 2 12 -22 3 -23 3 0 -15 0 -15 28 -15 c15 -8 23 -15 18 -16 -4 0 2 -8 15 -18 l22 -19 -30 -31 c-17 -18 -36 -32 -42 -32 l-12 0 3 -17 3 -17 25 -13 c14 -7 21 -13 17 -13 -4 0 4 -12 18 -26 l25 -25 -5 -9 -5 -8 17 3 c10 2 21 4 26 4 4 1 7 8 7 16 l0 15 -22 10 c-13 5 -33 20 -46 33 l-22 25 29 31 c17 18 32 32 35 31 4 0 10 0 14 0 l9 0 2 54 2 54 -13 8 c-17 11 -38 14 -37 6z"/>
<path d="M180 208 l0 -19 23 -8 c12 -5 27 -7 32 -4 6 2 -1 -5 -14 -16 -12 -12 -26 -19 -30 -16 l-7 4 0 -28 0 -29 15 3 c9 2 19 4 24 4 4 1 7 9 7 19 l0 19 23 21 23 22 16 0 16 0 -2 15 c-3 22 -9 25 -69 29 l-57 3 0 -19z"/>
<path d="M613 222 l-33 -3 0 -14 c0 -18 20 -30 45 -28 l20 2 -13 -5 -12 -6 6 -9 5 -9 -18 -1 c-10 -1 -21 -1 -26 0 l-7 1 2 -29 2 -29 16 3 15 2 11 21 c6 12 19 31 29 42 l18 20 8 -6 8 -5 11 22 c7 11 9 23 6 26 -7 7 -52 9 -93 5z"/>
<path d="M824 199 l0 -26 28 2 29 3 -17 -20 -18 -19 -13 5 -13 5 0 -23 0 -24 13 -4 c6 -3 18 -3 25 -1 l12 5 -5 8 -5 7 25 29 c14 16 29 30 35 30 5 1 14 2 18 3 4 0 8 10 9 21 l2 20 -17 1 c-9 0 -38 1 -63 2 l-45 2 0 -26z"/>
<path d="M262 118 l2 -26 18 3 18 4 0 -16 0 -15 -20 -5 -20 -5 0 -13 c0 -7 6 -18 14 -24 l15 -12 12 22 c12 24 55 70 64 69 3 0 9 0 13 0 10 0 13 40 4 41 -4 0 -33 1 -64 2 l-58 2 2 -27z"/>
<path d="M664 119 l0 -26 28 2 29 3 -17 -20 -18 -19 -13 5 -13 5 0 -23 0 -24 13 -4 c6 -3 18 -3 25 -1 l12 5 -5 8 -5 7 25 29 c14 16 29 30 35 30 5 1 14 2 18 3 4 0 8 10 9 21 l2 20 -17 1 c-9 0 -38 1 -63 2 l-45 2 0 -26z"/>
<path d="M902 119 l2 -27 31 4 30 3 -13 -5 -12 -6 6 -9 5 -9 -18 -1 c-10 -1 -20 -1 -23 -1 -3 0 -7 -10 -8 -24 l-2 -24 25 0 25 0 0 18 0 18 24 21 c13 12 26 19 29 17 2 -2 10 3 17 11 l13 16 -12 12 -12 12 -54 0 -55 1 2 -27z"/>
</g>
</svg>