<svg xmlns="http://www.w3.org/2000/svg" version="1.0" width="149.0pt" height="144.000000pt" viewBox="0 0 149.0 144.000000" preserveAspectRatio="xMidYMid meet">
<metadata>
Created by potrace 1.13, written by Peter Selinger 2001-2015
</metadata>
<g transform="translate(0.0,144.000000) scale(0.048000,-0.048000) skewX(5)" fill="#000000" stroke="none">
<path d="M2280 2880 l0 -20 32 0 31 0 -18 -20 c-10 -11 -24 -20 -32 -20 l-13 0 0 -20 0 -20 20 0 20 0 0 13 0 13 28 27 c15 15 33 27 40 27 l12 0 0 20 0 20 -60 0 -60 0 0 -20z"/>
<path d="M260 2800 l0 -20 13 0 13 0 29 -30 29 -30 -29 -30 -29 -30 -13 0 -13 0 0 -20 0 -20 13 0 13 0 27 -28 c15 -15 27 -33 27 -40 l0 -12 20 0 20 0 0 20 0 20 -13 0 -13 0 -29 30 -29 30 29 30 29 30 13 0 13 0 0 20 0 20 -13 0 -13 0 -27 28 c-15 15 -27 33 -27 40 l0 12 -20 0 -20 0 0 -20z"/>
<path d="M1720 2800 l0 -20 32 0 31 0 -18 -20 c-10 -11 -24 -20 -32 -20 l-13 0 0 -20 0 -20 20 0 20 0 0 13 0 13 28 27 c15 15 33 27 40 27 l12 0 0 20 0 20 -60 0 -60 0 0 -20z"/>
<path d="M2360 2800 l0 -20 32 0 31 0 -18 -20 c-10 -11 -24 -20 -32 -20 l-13 0 0 -20 0 -20 20 0 20 0 0 13 0 13 28 27 c15 15 33 27 40 27 l12 0 0 20 0 20 -60 0 -60 0 0 -20z"/>
<path d="M1200 2720 l0 -20 32 0 31 0 -18 -20 c-10 -11 -24 -20 -32 -20 l-13 0 0 -20 0 -20 20 0 20 0 0 13 0 13 28 27 c15 15 33 27 40 27 l12 0 0 20 0 20 -60 0 -60 0 0 -20z"/>
<path d="M1800 2720 l0 -20 32 0 31 0 -18 -20 c-10 -11 -24 -20 -32 -20 l-13 0 0 -20 0 -20 20 0 20 0 0 13 0 13 28 27 c15 15 33 27 40 27 l12 0 0 20 0 20 -60 0 -60 0 0 -20z"/>
<path d="M2440 2720 l0 -20 32 0 31 0 -18 -20 c-10 -11 -24 -20 -32 -20 l-13 0 0 -20 0 -20 20 0 20 0 0 13 0 13 28 27 c15 15 33 27 40 27 l12 0 0 20 0 20 -60 0 -60 0 0 -20z"/>
<path d="M720 2640 l0 -20 32 0 31 0 -18 -20 c-10 -11 -24 -20 -32 -20 l-13 0 0 -20 0 -20 20 0 20 0 0 13 0 13 28 27 c15 15 33 27 40 27 l12 0 0 20 0 20 -60 0 -60 0 0 -20z"/>
<path d="M1280 2640 l0 -20 32 0 31 0 -18 -20 c-10 -11 -24 -20 -32 -20 l-13 0 0 -20 0 -20 20 0 20 0 0 13 0 13 28 27 c15 15 33 27 40 27 l12 0 0 20 0 20 -60 0 -60 0 0 -20z"/>
<path d="M1880 2640 l0 -20 32 0 31 0 -18 -20 c-10 -11 -24 -20 -32 -20 l-13 0 0 -20 0 -20 20 0 20 0 0 13 0 13 28 27 c15 15 33 27 40 27 l12 0 0 20 0 20 -60 0 -60 0 0 -20z"/>
<path d="M2520 2640 l0 -20 32 0 31 0 -18 -20 c-10 -11 -24 -20 -32 -20 l-13 0 0 -20 0 -20 20 0 20 0 0 13 0 13 28 27 c15 15 33 27 40 27 l12 0 0 20 0 20 -60 0 -60 0 0 -20z"/>
<path d="M2280 2200 l0 -20 32 0 31 0 -18 -20 c-10 -11 -24 -20 -32 -20 l-13 0 0 -20 0 -20 20 0 20 0 0 13 0 13 28 27 c15 15 33 27 40 27 l12 0 0 20 0 20 -60 0 -60 0 0 -20z"/>
<path d="M260 2120 l0 -20 13 0 13 0 29 -30 29 -30 -29 -30 -29 -30 -13 0 -13 0 0 -20 0 -20 13 0 13 0 27 -28 c15 -15 27 -33 27 -40 l0 -12 20 0 20 0 0 20 0 20 -13 0 -13 0 -29 30 -29 30 29 30 29 30 13 0 13 0 0 60 0 60 -20 0 -20 0 0 -32 0 -31 -20 18 c-11 10 -20 24 -20 32 l0 13 -20 0 -20 0 0 -20z"/>
<path d="M720 2120 l0 -20 12 0 c7 0 25 -12 40 -27 l28 -27 0 -13 0 -13 20 0 20 0 0 60 0 60 -20 0 -20 0 0 -32 0 -31 -20 18 c-11 10 -20 24 -20 32 l0 13 -20 0 -20 0 0 -20z"/>
<path d="M1280 2120 l0 -20 12 0 c7 0 25 -12 40 -27 l28 -27 0 -13 0 -13 20 0 20 0 0 60 0 60 -20 0 -20 0 0 -32 0 -31 -20 18 c-11 10 -20 24 -20 32 l0 13 -20 0 -20 0 0 -20z"/>
<path d="M1720 2120 l0 -20 32 0 31 0 -18 -20 c-10 -11 -24 -20 -32 -20 l-13 0 0 -20 0 -20 20 0 20 0 0 13 0 13 28 27 c15 15 33 27 40 27 l12 0 0 20 0 20 -60 0 -60 0 0 -20z"/>
<path d="M1880 2120 l0 -20 12 0 c7 0 25 -12 40 -27 l28 -27 0 -13 0 -13 20 0 20 0 0 60 0 60 -20 0 -20 0 0 -32 0 -31 -20 18 c-11 10 -20 24 -20 32 l0 13 -20 0 -20 0 0 -20z"/>
<path d="M2360 2120 l0 -20 32 0 31 0 -18 -20 c-10 -11 -24 -20 -32 -20 l-13 0 0 -20 0 -20 20 0 20 0 0 13 0 13 28 27 c15 15 33 27 40 27 l12 0 0 20 0 20 -60 0 -60 0 0 -20z"/>
<path d="M2520 2120 l0 -20 12 0 c7 0 25 -12 40 -27 l28 -27 0 -13 0 -13 20 0 20 0 0 60 0 60 -20 0 -20 0 0 -32 0 -31 -20 18 c-11 10 -20 24 -20 32 l0 13 -20 0 -20 0 0 -20z"/>
<path d="M1200 2040 l0 -20 32 0 31 0 -18 -20 c-10 -11 -24 -20 -32 -20 l-13 0 0 -20 0 -20 20 0 20 0 0 13 0 13 28 27 c15 15 33 27 40 27 l12 0 0 20 0 20 -60 0 -60 0 0 -20z"/>
<path d="M1800 2040 l0 -20 32 0 31 0 -18 -20 c-10 -11 -24 -20 -32 -20 l-13 0 0 -20 0 -20 20 0 20 0 0 13 0 13 28 27 c15 15 33 27 40 27 l12 0 0 20 0 20 -60 0 -60 0 0 -20z"/>
<path d="M2440 2040 l0 -20 32 0 31 0 -18 -20 c-10 -11 -24 -20 -32 -20 l-13 0 0 -20 0 -20 20 0 20 0 0 13 0 13 28 27 c15 15 33 27 40 27 l12 0 0 20 0 20 -60 0 -60 0 0 -20z"/>
<path d="M720 1960 l0 -20 32 0 31 0 -18 -20 c-10 -11 -24 -20 -32 -20 l-13 0 0 -20 0 -20 20 0 20 0 0 13 0 13 28 27 c15 15 33 27 40 27 l12 0 0 20 0 20 -60 0 -60 0 0 -20z"/>
<path d="M1280 1960 l0 -20 32 0 31 0 -18 -20 c-10 -11 -24 -20 -32 -20 l-13 0 0 -20 0 -20 20 0 20 0 0 13 0 13 28 27 c15 15 33 27 40 27 l12 0 0 20 0 20 -60 0 -60 0 0 -20z"/>
<path d="M1880 1960 l0 -20 32 0 31 0 -18 -20 c-10 -11 -24 -20 -32 -20 l-13 0 0 -20 0 -20 20 0 20 0 0 13 0 13 28 27 c15 15 33 27 40 27 l12 0 0 20 0 20 -60 0 -60 0 0 -20z"/>
<path d="M2520 1960 l0 -20 32 0 31 0 -18 -20 c-10 -11 -24 -20 -32 -20 l-13 0 0 -20 0 -20 20 0 20 0 0 13 0 13 28 27 c15 15 33 27 40 27 l12 0 0 20 0 20 -60 0 -60 0 0 -20z"/>
<path d="M260 1440 l0 -20 12 0 c7 0 25 -12 40 -27 l28 -27 0 -13 0 -13 20 0 20 0 0 60 0 60 -20 0 -20 0 0 -32 0 -31 -20 18 c-11 10 -20 24 -20 32 l0 13 -20 0 -20 0 0 -20z"/>
<path d="M720 1440 l0 -20 12 0 c7 0 25 -12 40 -27 l28 -27 0 -13 0 -13 20 0 20 0 0 60 0 60 -20 0 -20 0 0 -32 0 -31 -20 18 c-11 10 -20 24 -20 32 l0 13 -20 0 -20 0 0 -20z"/>
<path d="M1280 1440 l0 -20 12 0 c7 0 25 -12 40 -27 l28 -27 0 -13 0 -13 20 0 20 0 0 60 0 60 -20 0 -20 0 0 -32 0 -31 -20 18 c-11 10 -20 24 -20 32 l0 13 -20 0 -20 0 0 -20z"/>
<path d="M1880 1440 l0 -20 12 0 c7 0 25 -12 40 -27 l28 -27 0 -13 0 -13 20 0 20 0 0 60 0 60 -20 0 -20 0 0 -32 0 -31 -20 18 c-11 10 -20 24 -20 32 l0 13 -20 0 -20 0 0 -20z"/>
<path d="M2280 1440 l0 -20 32 0 31 0 -18 -20 c-10 -11 -24 -20 -32 -20 l-13 0 0 -20 0 -20 20 0 20 0 0 13 0 13 28 27 c15 15 33 27 40 27 l12 0 0 20 0 20 -60 0 -60 0 0 -20z"/>
<path d="M2520 1440 l0 -20 12 0 c7 0 25 -12 40 -27 l28 -27 0 -13 0 -13 20 0 20 0 0 60 0 60 -20 0 -20 0 0 -32 0 -31 -20 18 c-11 10 -20 24 -20 32 l0 13 -20 0 -20 0 0 -20z"/>
<path d="M260 1360 l0 -20 13 0 13 0 29 -30 29 -30 -29 -30 -29 -30 -13 0 -13 0 0 -20 0 -20 13 0 13 0 27 -28 c15 -15 27 -33 27 -40 l0 -12 20 0 20 0 0 20 0 20 -13 0 -13 0 -29 30 -29 30 29 30 29 30 13 0 13 0 0 20 0 20 -13 0 -13 0 -27 28 c-15 15 -27 33 -27 40 l0 12 -20 0 -20 0 0 -20z"/>
<path d="M720 1360 l0 -20 12 0 c7 0 25 -12 40 -27 l28 -27 0 -13 0 -13 20 0 20 0 0 20 0 20 -13 0 -13 0 -27 28 c-15 15 -27 33 -27 40 l0 12 -20 0 -20 0 0 -20z"/>
<path d="M1280 1360 l0 -20 12 0 c7 0 25 -12 40 -27 l28 -27 0 -13 0 -13 20 0 20 0 0 20 0 20 -13 0 -13 0 -27 28 c-15 15 -27 33 -27 40 l0 12 -20 0 -20 0 0 -20z"/>
<path d="M1720 1360 l0 -20 32 0 31 0 -18 -20 c-10 -11 -24 -20 -32 -20 l-13 0 0 -20 0 -20 20 0 20 0 0 13 0 13 28 27 c15 15 33 27 40 27 l12 0 0 20 0 20 -60 0 -60 0 0 -20z"/>
<path d="M1880 1360 l0 -20 12 0 c7 0 25 -12 40 -27 l28 -27 0 -13 0 -13 20 0 20 0 0 20 0 20 -13 0 -13 0 -27 28 c-15 15 -27 33 -27 40 l0 12 -20 0 -20 0 0 -20z"/>
<path d="M2360 1360 l0 -20 32 0 31 0 -18 -20 c-10 -11 -24 -20 -32 -20 l-13 0 0 -20 0 -20 20 0 20 0 0 13 0 13 28 27 c15 15 33 27 40 27 l12 0 0 20 0 20 -60 0 -60 0 0 -20z"/>
<path d="M2520 1360 l0 -20 12 0 c7 0 25 -12 40 -27 l28 -27 0 -13 0 -13 20 0 20 0 0 20 0 20 -13 0 -13 0 -27 28 c-15 15 -27 33 -27 40 l0 12 -20 0 -20 0 0 -20z"/>
<path d="M1200 1280 l0 -20 32 0 31 0 -18 -20 c-10 -11 -24 -20 -32 -20 l-13 0 0 -20 0 -20 20 0 20 0 0 13 0 13 28 27 c15 15 33 27 40 27 l12 0 0 20 0 20 -60 0 -60 0 0 -20z"/>
<path d="M1800 1280 l0 -20 32 0 31 0 -18 -20 c-10 -11 -24 -20 -32 -20 l-13 0 0 -20 0 -20 20 0 20 0 0 13 0 13 28 27 c15 15 33 27 40 27 l12 0 0 20 0 20 -60 0 -60 0 0 -20z"/>
<path d="M2440 1280 l0 -20 32 0 31 0 -18 -20 c-10 -11 -24 -20 -32 -20 l-13 0 0 -20 0 -20 20 0 20 0 0 13 0 13 28 27 c15 15 33 27 40 27 l12 0 0 20 0 20 -60 0 -60 0 0 -20z"/>
<path d="M720 1200 l0 -20 32 0 31 0 -18 -20 c-10 -11 -24 -20 -32 -20 l-13 0 0 -20 0 -20 20 0 20 0 0 13 0 13 28 27 c15 15 33 27 40 27 l12 0 0 20 0 20 -60 0 -60 0 0 -20z"/>
<path d="M1280 1200 l0 -20 32 0 31 0 -18 -20 c-10 -11 -24 -20 -32 -20 l-13 0 0 -20 0 -20 20 0 20 0 0 13 0 13 28 27 c15 15 33 27 40 27 l12 0 0 20 0 20 -60 0 -60 0 0 -20z"/>
<path d="M1880 1200 l0 -20 32 0 31 0 -18 -20 c-10 -11 -24 -20 -32 -20 l-13 0 0 -20 0 -20 20 0 20 0 0 13 0 13 28 27 c15 15 33 27 40 27 l12 0 0 20 0 20 -60 0 -60 0 0 -20z"/>
<path d="M2520 1200 l0 -20 32 0 31 0 -18 -20 c-10 -11 -24 -20 -32 -20 l-13 0 0 -20 0 -20 20 0 20 0 0 13 0 13 28 27 c15 15 33 27 40 27 l12 0 0 20 0 20 -60 0 -60 0 0 -20z"/>
<path d="M740 680 l0 -20 12 0 c7 0 25 -12 40 -27 l28 -27 0 -13 0 -13 13 0 13 0 29 -30 29 -30 -29 -30 -29 -30 -13 0 -13 0 0 -20 0 -20 12 0 c7 0 25 -12 40 -27 l28 -27 0 -13 0 -13 20 0 20 0 0 20 0 20 -13 0 -13 0 -29 30 -29 30 29 30 29 30 13 0 13 0 0 20 0 20 -13 0 -13 0 -27 28 -27 28 0 52 0 52 -20 0 -20 0 0 -32 0 -31 -20 18 c-11 10 -20 24 -20 32 l0 13 -20 0 -20 0 0 -20z"/>
<path d="M1260 680 l0 -20 12 0 c7 0 25 -12 40 -27 l28 -27 0 -13 0 -13 13 0 13 0 29 -30 29 -30 -29 -30 -29 -30 -13 0 -13 0 0 -20 0 -20 12 0 c7 0 25 -12 40 -27 l28 -27 0 -13 0 -13 20 0 20 0 0 20 0 20 -13 0 -13 0 -29 30 -29 30 29 30 29 30 13 0 13 0 0 60 0 60 -20 0 -20 0 0 -32 0 -31 -20 18 -20 18 0 54 0 53 -20 0 -20 0 0 -32 0 -31 -20 18 c-11 10 -20 24 -20 32 l0 13 -20 0 -20 0 0 -20z"/>
<path d="M1820 680 l0 -20 12 0 c7 0 25 -12 40 -27 l28 -27 0 -13 0 -13 13 0 13 0 29 -30 29 -30 -29 -30 -29 -30 -13 0 -13 0 0 -20 0 -20 12 0 c7 0 25 -12 40 -27 l28 -27 0 -13 0 -13 20 0 20 0 0 20 0 20 -13 0 -13 0 -29 30 -29 30 29 30 29 30 13 0 13 0 0 20 0 20 -13 0 -13 0 -27 28 -27 28 0 24 0 23 20 -18 c11 -10 20 -24 20 -32 l0 -13 20 0 20 0 0 60 0 60 -20 0 -20 0 0 -32 0 -31 -20 18 c-11 10 -20 24 -20 32 l0 13 -20 0 -20 0 0 -32 0 -31 -20 18 c-11 10 -20 24 -20 32 l0 13 -20 0 -20 0 0 -20z"/>
<path d="M2460 680 l0 -20 12 0 c7 0 25 -12 40 -27 l28 -27 0 -13 0 -13 13 0 13 0 29 -30 29 -30 -29 -30 -29 -30 -13 0 -13 0 0 -20 0 -20 12 0 c7 0 25 -12 40 -27 l28 -27 0 -13 0 -13 20 0 20 0 0 20 0 20 -13 0 -13 0 -29 30 -29 30 29 30 29 30 13 0 13 0 0 100 0 100 -20 0 -20 0 0 -32 0 -31 -20 18 c-11 10 -20 24 -20 32 l0 13 -20 0 -20 0 0 -32 0 -31 -20 18 c-11 10 -20 24 -20 32 l0 13 -20 0 -20 0 0 -20z m160 -98 l0 -25 -20 18 -20 18 0 25 0 25 20 -18 20 -18 0 -25z"/>
<path d="M300 660 l0 -20 12 0 c7 0 25 -12 40 -27 l28 -27 0 -24 0 -25 -20 18 c-11 10 -20 24 -20 32 l0 13 -20 0 -20 0 0 -20 0 -20 13 0 13 0 29 -30 29 -30 -29 -30 -29 -30 -13 0 -13 0 0 -20 0 -20 12 0 c7 0 25 -12 40 -27 l28 -27 0 -13 0 -13 20 0 20 0 0 20 0 20 -13 0 -13 0 -29 30 -29 30 29 30 29 30 13 0 13 0 0 100 0 100 -20 0 -20 0 0 -32 0 -31 -20 18 c-11 10 -20 24 -20 32 l0 13 -20 0 -20 0 0 -20z"/>
</g>
</svg>