<svg xmlns="http://www.w3.org/2000/svg" version="1.0" width="139.4pt" height="19.200000pt" viewBox="0 0 139.4 19.200000" preserveAspectRatio="xMidYMid meet">
<metadata>
Created by potrace 1.13, written by Peter Selinger 2001-2015
</metadata>
<g transform="translate(0.0,19.200000) scale(0.048000,-0.048000) skewX(5)" fill="#000000" stroke="none">
<path d="M20 360 l0 -20 60 0 60 0 0 20 0 20 -60 0 -60 0 0 -20z"/>
<path d="M420 360 l0 -20 80 0 80 0 0 -40 0 -40 20 0 20 0 0 60 0 60 -100 0 -100 0 0 -20z"/>
<path d="M1460 360 l0 -20 80 0 80 0 0 -20 0 -20 -80 0 -80 0 0 -20 0 -20 100 0 100 0 0 60 0 60 -100 0 -100 0 0 -20z"/>
<path d="M1700 320 l0 -60 100 0 100 0 0 20 0 20 -80 0 -80 0 0 20 0 20 80 0 80 0 0 20 0 20 -100 0 -100 0 0 -60z"/>
<path d="M100 288 c0 -7 -12 -25 -27 -40 l-27 -28 -13 0 -13 0 0 -20 0 -20 20 0 20 0 0 13 c0 8 9 22 20 32 l20 18 0 -23 0 -24 -27 -28 -27 -28 -13 0 -13 0 0 -20 0 -20 20 0 20 0 0 13 0 13 28 27 c15 15 33 27 40 27 l12 0 0 60 0 60 -20 0 -20 0 0 -12z"/>
<path d="M340 280 l0 -20 80 0 80 0 0 -40 0 -40 20 0 20 0 0 60 0 60 -100 0 -100 0 0 -20z"/>
<path d="M900 288 c0 -7 -12 -25 -27 -40 l-27 -28 -13 0 -13 0 0 -19 0 -19 20 -5 20 -5 0 -12 0 -12 -20 -5 -20 -5 0 -19 0 -19 19 0 19 0 5 20 5 20 12 0 12 0 5 -20 5 -20 19 0 19 0 0 19 0 19 -20 5 -20 5 0 12 0 12 20 5 20 5 0 59 0 59 -20 0 -20 0 0 -12z m-9 -101 l-11 -11 -12 12 -12 12 20 21 19 21 3 -22 4 -22 -11 -11z"/>
<path d="M980 200 l0 -100 20 0 20 0 0 80 0 80 20 0 20 0 0 -80 0 -80 20 0 20 0 0 100 0 100 -60 0 -60 0 0 -100z"/>
<path d="M1140 240 l0 -60 20 0 20 0 0 40 0 40 40 0 40 0 0 20 0 20 -60 0 -60 0 0 -60z"/>
<path d="M1380 288 c0 -7 -12 -25 -27 -40 l-27 -28 -13 0 -13 0 0 -19 0 -19 20 -5 20 -5 0 -12 0 -12 -20 -5 -20 -5 0 -19 0 -19 19 0 19 0 5 20 5 20 12 0 12 0 5 -20 5 -20 19 0 19 0 0 19 0 19 -20 5 -20 5 0 12 0 12 20 5 20 5 0 59 0 59 -20 0 -20 0 0 -12z m-9 -101 l-11 -11 -12 12 -12 12 20 21 19 21 3 -22 4 -22 -11 -11z"/>
<path d="M1940 200 l0 -100 20 0 20 0 0 80 0 80 20 0 20 0 0 -80 0 -80 20 0 20 0 0 100 0 100 -60 0 -60 0 0 -100z"/>
<path d="M2100 240 l0 -60 20 0 20 0 0 40 0 40 40 0 40 0 0 20 0 20 -60 0 -60 0 0 -60z"/>
<path d="M2340 288 c0 -7 -12 -25 -27 -40 l-27 -28 -13 0 -13 0 0 -19 0 -19 20 -5 20 -5 0 -12 0 -12 -20 -5 -20 -5 0 -19 0 -19 19 0 19 0 5 20 5 20 12 0 12 0 5 -20 5 -20 19 0 19 0 0 19 0 19 -20 5 -20 5 0 12 0 12 20 5 20 5 0 59 0 59 -20 0 -20 0 0 -12z m-9 -101 l-11 -11 -12 12 -12 12 20 21 19 21 3 -22 4 -22 -11 -11z"/>
<path d="M180 160 l0 -60 60 0 60 0 0 20 0 20 -40 0 -40 0 0 40 0 40 -20 0 -20 0 0 -60z"/>
<path d="M340 160 l0 -60 60 0 60 0 0 60 0 60 -60 0 -60 0 0 -60z m80 0 l0 -20 -20 0 -20 0 0 20 0 20 20 0 20 0 0 -20z"/>
<path d="M660 200 l0 -20 13 0 13 0 29 -30 29 -30 -22 -22 -22 -22 0 32 0 32 -20 0 -20 0 0 -60 0 -60 20 0 20 0 0 13 0 13 28 27 c15 15 33 27 40 27 l12 0 0 20 0 20 -13 0 -13 0 -27 28 c-15 15 -27 33 -27 40 l0 12 -20 0 -20 0 0 -20z"/>
<path d="M1220 180 l0 -40 -40 0 -40 0 0 -20 0 -20 60 0 60 0 0 60 0 60 -20 0 -20 0 0 -40z"/>
<path d="M1620 208 c0 -7 -12 -25 -27 -40 l-27 -28 -13 0 -13 0 0 -19 0 -19 20 -5 20 -5 0 -12 0 -12 -20 -5 -20 -5 0 -19 0 -19 19 0 19 0 5 20 5 20 12 0 12 0 5 -20 5 -20 19 0 19 0 0 19 0 19 -20 5 -20 5 0 12 0 12 20 5 20 5 0 59 0 59 -20 0 -20 0 0 -12z m-9 -101 l-11 -11 -12 12 -12 12 20 21 19 21 3 -22 4 -22 -11 -11z"/>
<path d="M1860 208 c0 -7 -12 -25 -27 -40 l-27 -28 -13 0 -13 0 0 -19 0 -19 20 -5 20 -5 0 -12 0 -12 -20 -5 -20 -5 0 -19 0 -19 19 0 19 0 5 20 5 20 12 0 12 0 5 -20 5 -20 19 0 19 0 0 19 0 19 -20 5 -20 5 0 12 0 12 20 5 20 5 0 59 0 59 -20 0 -20 0 0 -12z m-9 -101 l-11 -11 -12 12 -12 12 20 21 19 21 3 -22 4 -22 -11 -11z"/>
<path d="M2180 180 l0 -40 -40 0 -40 0 0 -20 0 -20 60 0 60 0 0 60 0 60 -20 0 -20 0 0 -40z"/>
<path d="M2420 200 l0 -20 20 0 20 0 0 20 0 20 -20 0 -20 0 0 -20z"/>
<path d="M2500 160 l0 -60 60 0 60 0 0 60 0 60 -20 0 -20 0 0 -40 0 -40 -20 0 -20 0 0 40 0 40 -20 0 -20 0 0 -60z"/>
<path d="M2660 200 l0 -20 60 0 60 0 0 20 0 20 -60 0 -60 0 0 -20z"/>
<path d="M2660 120 l0 -20 60 0 60 0 0 20 0 20 -60 0 -60 0 0 -20z"/>
<path d="M220 40 l0 -20 20 0 20 0 0 20 0 20 -20 0 -20 0 0 -20z"/>
<path d="M2500 40 l0 -20 20 0 20 0 0 20 0 20 -20 0 -20 0 0 -20z"/>
<path d="M2580 40 l0 -20 20 0 20 0 0 20 0 20 -20 0 -20 0 0 -20z"/>
<path d="M2660 40 l0 -20 60 0 60 0 0 20 0 20 -60 0 -60 0 0 -20z"/>
</g>
</svg>