<svg xmlns="http://www.w3.org/2000/svg" version="1.0" width="100.04pt" height="19.200000pt" viewBox="0 0 100.04 19.200000" preserveAspectRatio="xMidYMid meet">
<metadata>
Created by potrace 1.13, written by Peter Selinger 2001-2015
</metadata>
<g transform="translate(0.0,19.200000) scale(0.048000,-0.048000) skewX(5)" fill="#000000" stroke="none">
<path d="M181 160 l-2 -147 26 5 27 5 -5 18 -5 19 8 5 8 5 23 -31 22 -32 14 19 c17 24 17 34 -3 34 l-15 0 -30 28 -30 28 29 32 30 32 16 0 16 0 0 20 0 20 -10 0 c-26 0 -58 26 -70 56 l-8 21 -20 5 -20 6 -1 -148z m65 61 l-6 -9 12 -5 13 -5 -20 -20 -20 -21 -1 34 -1 35 14 0 14 0 -5 -9z"/>
<path d="M590 295 l-11 -13 2 -135 1 -135 14 2 c7 1 17 6 21 10 l8 8 1 94 1 94 7 7 7 7 9 -14 10 -15 0 -86 0 -87 13 -10 13 -11 10 7 11 7 -1 97 -1 98 -12 0 c-7 0 -24 10 -38 22 l-25 22 0 17 0 17 -14 5 -15 6 -11 -14z"/>
<path d="M730 294 l-12 -14 12 -15 c7 -8 18 -15 26 -15 l13 0 6 -20 c3 -11 11 -20 16 -20 l9 0 0 -94 0 -94 13 -5 14 -5 9 6 9 7 0 135 0 135 -10 7 -9 7 -13 -11 -13 -10 0 -26 0 -25 -20 23 -20 23 5 7 5 8 -14 5 -15 6 -11 -15z"/>
<path d="M893 303 l-13 -5 0 -139 0 -139 20 0 20 0 1 18 c1 9 2 55 3 101 l1 84 14 5 14 5 -7 -12 -7 -11 10 0 10 0 3 -92 3 -93 19 0 19 0 0 65 c0 36 -1 80 -2 98 l-1 32 -10 0 c-14 0 -70 55 -70 68 0 14 -12 20 -27 15z"/>
<path d="M1052 303 l-13 -5 2 -143 1 -143 16 3 c10 2 19 4 22 4 3 1 5 50 5 111 l-1 110 18 -20 c10 -10 18 -26 18 -34 l0 -14 17 2 17 3 10 16 10 16 -6 6 c-3 4 -14 8 -23 9 l-16 2 -24 28 -25 29 5 7 5 8 -13 4 c-6 3 -18 3 -25 1z"/>
<path d="M1201 163 l-2 -143 20 0 19 0 4 13 c3 6 4 54 2 105 l-2 92 14 0 15 0 -6 -10 -6 -10 10 0 11 0 0 -94 0 -94 15 -5 14 -6 8 12 7 12 1 70 c0 74 -7 122 -18 117 -4 -1 -21 11 -38 27 l-31 30 6 9 6 10 -24 4 -24 5 -1 -144z"/>
<path d="M1372 303 l-13 -5 2 -143 1 -143 16 3 c10 2 21 4 25 4 l9 1 -7 32 -7 33 34 -38 34 -39 11 14 12 14 -9 14 c-5 8 -14 15 -20 15 -5 0 -21 13 -35 29 l-25 30 26 27 c15 16 30 28 33 27 3 0 11 0 16 1 l11 1 1 20 2 20 -10 0 c-5 0 -12 0 -15 -1 -11 -2 -64 54 -64 67 0 16 -11 23 -28 17z m60 -111 l-12 -4 5 -8 5 -8 -14 -5 -14 -6 1 39 2 38 20 -21 19 -21 -12 -4z"/>
<path d="M1600 289 l0 -19 -12 0 -11 0 6 -6 6 -7 -24 -19 -25 -19 -8 5 -8 5 -1 -22 -2 -21 11 -7 11 -7 13 5 13 5 -5 12 -5 12 21 19 20 18 0 -110 0 -111 15 -6 16 -6 6 17 c4 10 7 61 7 114 l1 97 13 -5 c7 -3 11 -8 8 -10 -3 -3 2 -12 10 -20 l14 -15 -5 -8 -5 -8 17 2 18 3 0 21 0 22 -8 -1 c-11 -1 -67 58 -67 70 0 5 -9 11 -20 14 l-20 5 0 -19z"/>
<path d="M1773 303 l-13 -5 0 -143 0 -143 13 2 c6 1 17 5 23 8 l10 7 -1 100 -1 101 6 0 c3 0 11 -5 18 -12 l12 -12 0 -97 0 -97 20 5 20 5 1 27 c1 14 2 59 3 98 l1 73 -7 0 c-5 0 -10 0 -13 0 -3 0 -19 12 -35 27 l-31 27 5 12 5 12 -12 5 c-7 2 -18 2 -24 0z"/>
<path d="M21 157 l1 -144 24 5 23 4 -1 92 c0 50 0 97 1 105 l1 13 15 -12 15 -12 0 -98 0 -97 23 4 22 4 0 100 1 99 -14 0 -14 0 -29 31 c-16 17 -29 35 -29 40 l0 9 -20 0 -21 0 2 -143z"/>
<path d="M420 285 l0 -15 -11 0 -10 0 6 -10 6 -10 -16 0 -16 0 6 -10 6 -9 -26 -7 -25 -6 0 -13 c0 -7 6 -18 14 -24 l13 -11 13 15 12 15 -7 0 c-5 0 0 10 11 21 l19 21 5 -108 5 -109 20 -3 20 -3 0 106 0 105 10 -3 c6 -2 14 -13 20 -25 l10 -22 22 0 23 0 0 15 0 16 -17 6 c-9 4 -27 16 -40 27 l-23 20 0 18 0 18 -25 0 -25 0 0 -15z"/>
</g>
</svg>