<svg xmlns="http://www.w3.org/2000/svg" version="1.0" width="332.36pt" height="419.520000pt" viewBox="0 0 332.36 419.520000" preserveAspectRatio="xMidYMid meet">
<metadata>
Created by potrace 1.13, written by Peter Selinger 2001-2015
</metadata>
<g transform="translate(0.0,419.520000) scale(0.048000,-0.048000) skewX(5)" fill="#000000" stroke="none">
<path d="M1421 8261 l0 -148 23 4 22 5 -1 50 -2 51 24 28 c14 16 27 28 31 28 4 -1 13 -1 20 0 l12 1 0 20 0 20 -18 0 -18 0 -25 28 c-13 15 -24 30 -24 34 0 10 -14 22 -30 24 l-14 2 0 -147z m73 25 l-6 -16 -12 0 -12 0 0 35 0 34 18 -19 18 -19 -6 -15z"/>
<path d="M2341 8261 l0 -148 23 4 23 5 -1 108 -1 107 11 -4 c6 -2 16 -15 22 -29 l12 -24 15 0 16 0 6 17 7 17 -12 4 c-6 2 -13 2 -14 0 -2 -1 -17 10 -35 26 l-32 28 6 14 5 14 -8 1 c-5 0 -17 2 -26 4 l-17 3 0 -147z"/>
<path d="M3313 8363 l-13 -5 0 -140 0 -139 23 3 22 3 -1 23 -1 22 14 0 14 0 -6 -10 -6 -10 10 0 11 0 0 -14 0 -14 13 -5 14 -5 14 9 14 8 -11 18 c-6 10 -16 18 -23 18 -6 0 -21 12 -34 27 l-23 26 1 91 1 90 -11 4 c-5 2 -16 2 -22 0z"/>
<path d="M5081 8221 l0 -148 23 4 23 5 -1 108 -1 107 12 -4 13 -5 -6 -9 -5 -9 10 0 11 0 0 -19 0 -19 18 3 c9 2 21 4 25 4 l8 1 -6 10 -7 11 24 25 c13 14 33 29 46 34 l22 10 0 15 c0 8 -3 15 -7 16 -5 0 -16 2 -26 4 l-17 3 5 -8 5 -8 -16 -16 c-8 -9 -12 -16 -8 -16 4 0 -5 -9 -19 -21 l-27 -20 -27 27 -28 28 3 13 3 13 -8 1 c-4 0 -16 2 -25 4 l-17 3 0 -147z"/>
<path d="M4180 8190 l0 -138 13 -10 13 -11 10 7 11 7 0 91 0 90 23 27 c13 15 29 27 36 27 l12 0 6 15 6 16 -16 6 -15 6 -19 -21 -19 -20 6 -6 6 -6 -11 0 -12 0 -1 13 c-1 6 -1 17 0 23 l1 12 -25 4 -25 5 0 -137z"/>
<path d="M1401 7780 l0 -148 17 3 c9 2 20 4 24 4 l8 1 -3 21 -2 22 13 4 12 5 6 -30 6 -30 12 2 c20 3 36 17 36 32 l0 14 -19 0 -19 0 -26 31 -27 31 28 28 c15 15 30 25 32 24 8 -7 31 18 31 32 l0 14 -18 0 -19 0 -20 23 c-11 12 -25 31 -31 41 l-10 19 -15 3 -16 2 0 -148z m73 54 l6 -15 -19 -20 -19 -20 3 33 c3 40 3 38 14 38 5 0 12 -7 15 -16z"/>
<path d="M2341 7721 l0 -148 24 5 23 4 0 57 c0 31 0 60 1 65 l1 9 20 -23 20 -23 -5 -7 -5 -8 17 3 c10 2 21 4 25 4 9 1 6 41 -4 42 -4 1 -12 2 -17 3 -13 1 -45 37 -53 58 l-7 16 6 6 6 6 18 -21 19 -22 -5 -7 -5 -8 17 3 c10 2 21 4 25 4 9 1 6 41 -4 42 -4 1 -12 2 -17 3 -11 1 -41 34 -57 61 l-10 18 -16 3 -17 2 0 -147z"/>
<path d="M3300 7690 l0 -138 14 -11 13 -11 10 12 10 13 -2 18 -3 17 8 0 c5 0 18 -13 30 -30 l21 -29 12 5 13 5 1 19 2 20 -18 0 -18 0 -22 23 c-12 13 -23 34 -26 45 l-4 22 9 0 c5 0 18 -13 30 -30 l21 -29 12 5 13 5 1 19 2 20 -19 0 -18 0 -24 29 -25 28 2 51 1 50 -23 5 -23 4 0 -137z"/>
<path d="M5242 7800 l-17 -30 -13 0 -13 0 6 -9 5 -9 -17 -4 -18 -3 -20 20 c-12 11 -24 28 -28 38 l-6 17 -21 0 -20 0 0 -140 0 -140 24 0 24 0 -1 62 -2 61 14 5 14 5 -7 -12 -7 -11 10 0 11 0 0 -19 0 -19 18 2 17 3 11 22 c18 35 49 61 73 61 l10 0 -2 20 -1 19 -14 6 -13 5 -17 -30 -17 -30 -13 0 -13 0 6 -9 5 -9 -17 -4 -18 -3 -22 21 c-12 12 -23 30 -25 39 l-3 18 14 5 14 5 -7 -12 -7 -11 10 0 11 0 0 -19 0 -19 18 2 17 3 11 22 c11 22 56 68 61 64 2 -2 7 -3 12 -3 l10 0 -2 20 -1 19 -14 6 -13 5 -17 -30z"/>
<path d="M4211 7797 l-11 -11 0 -137 0 -137 18 3 c9 2 20 4 23 4 3 1 5 26 4 56 l-2 54 28 26 29 25 16 0 15 0 -3 18 -3 17 -21 3 -22 3 -6 -24 -6 -25 -13 -5 -13 -5 1 24 0 24 27 25 27 25 16 0 16 0 -3 18 -3 17 -21 3 -22 3 -6 -24 -6 -25 -13 -5 -14 -5 2 29 2 28 -12 5 -13 4 -11 -11z"/>
<path d="M1480 7294 l0 -14 -29 -31 -30 -31 -11 7 -12 7 4 -22 3 -23 20 -11 c10 -6 26 -17 35 -25 l15 -15 5 -55 5 -56 21 -3 21 -3 0 140 0 139 -24 5 -23 4 0 -13z m-2 -115 l-3 -21 -17 19 -18 19 18 22 17 21 3 -19 c2 -11 2 -30 0 -41z"/>
<path d="M2372 7255 l-52 -53 0 -15 0 -15 18 3 c9 2 21 4 25 4 l8 1 -5 9 -6 8 20 23 20 23 0 -116 0 -115 18 3 c9 2 20 4 23 4 l6 1 0 140 0 139 -11 4 -11 4 -53 -52z"/>
<path d="M4164 7239 l0 -27 13 5 13 5 6 -16 6 -16 13 0 13 0 6 -16 c3 -9 6 -55 6 -104 l0 -88 13 -5 14 -5 9 6 9 7 0 138 0 137 -22 0 -23 0 0 -32 -1 -33 -19 24 -20 23 5 8 5 8 -23 4 -23 5 0 -28z"/>
<path d="M3347 7253 l-7 -6 0 -86 0 -86 -8 -10 c-4 -6 -22 -21 -39 -34 l-33 -22 0 -19 0 -18 18 3 c9 2 20 4 24 4 l7 1 -5 13 -5 13 21 19 20 18 0 -35 0 -35 23 4 22 4 -2 127 c-1 70 -2 133 -2 140 l-1 12 -13 0 c-8 0 -17 -3 -20 -7z"/>
<path d="M5067 7254 c-4 -4 -7 -15 -7 -25 l0 -18 14 5 14 5 26 -26 c23 -23 30 -37 27 -57 l0 -6 17 3 c9 2 21 4 26 4 l8 1 -5 14 -6 14 20 18 19 17 0 -116 0 -115 18 3 c9 2 20 4 23 4 l6 1 0 140 0 140 -17 0 -17 0 -24 -35 c-13 -19 -30 -37 -37 -40 l-13 -5 -27 25 c-15 14 -27 31 -27 37 l0 13 -15 3 c-9 1 -19 0 -23 -4z"/>
<path d="M2380 6811 l0 -17 -19 -14 c-11 -7 -18 -17 -16 -20 l4 -7 -24 -11 -25 -12 0 -19 0 -19 18 3 c9 2 20 4 25 4 4 1 7 8 7 17 0 8 7 22 15 30 l15 15 0 -23 0 -24 -19 -14 c-11 -7 -18 -17 -16 -20 l4 -7 -24 -11 -25 -12 0 -19 0 -19 18 3 c9 2 20 4 25 4 4 1 7 8 7 17 0 8 7 22 15 30 l15 15 0 -64 0 -65 13 -10 13 -11 10 7 11 7 0 137 0 136 -23 5 -24 4 0 -16z"/>
<path d="M3347 6813 c-4 -3 -7 -27 -7 -52 0 -53 -3 -59 -47 -90 l-33 -22 0 -19 0 -18 18 3 c9 2 20 4 24 4 l7 1 -5 13 -5 13 21 19 20 18 0 -24 c0 -30 -7 -39 -47 -68 l-33 -22 0 -19 0 -18 18 3 c9 2 20 4 24 4 l7 1 -5 13 -5 13 21 19 20 18 0 -35 0 -35 23 4 22 4 -2 127 c-1 70 -2 133 -2 140 l-1 12 -13 0 c-8 0 -17 -3 -20 -7z"/>
<path d="M1460 6789 l0 -19 -9 0 c-5 0 -12 -9 -16 -19 l-6 -19 -24 -6 -25 -6 0 -20 0 -19 20 -6 c11 -3 20 -11 20 -16 l0 -9 14 0 14 0 6 -16 6 -15 -15 -15 c-8 -9 -15 -19 -15 -24 0 -4 -11 -11 -25 -14 l-25 -6 0 -19 0 -19 13 -5 14 -5 13 8 13 8 -6 9 -6 9 20 17 19 17 0 -24 0 -24 14 -11 14 -12 7 12 8 11 1 134 1 133 -22 4 -23 4 0 -18z m0 -91 l-1 -43 -20 24 -20 24 18 18 c10 10 19 18 21 18 1 1 2 -18 2 -41z"/>
<path d="M5067 6774 c-4 -4 -7 -15 -7 -25 l0 -18 14 5 14 5 26 -26 c23 -23 30 -37 27 -57 l0 -6 17 3 c9 2 21 4 26 4 l8 1 -5 14 -6 14 20 18 19 17 0 -24 0 -24 -25 -28 c-14 -15 -28 -27 -31 -27 -11 0 -59 51 -59 63 l0 12 -20 0 -20 0 -3 -22 -3 -23 14 6 15 5 26 -26 c23 -23 30 -37 27 -57 l0 -6 17 3 c9 2 21 4 26 4 l8 1 -5 14 -6 14 20 18 19 17 0 -76 0 -75 18 3 c9 2 20 4 23 4 l6 1 0 140 0 140 -17 0 -17 0 -24 -35 c-13 -19 -30 -37 -37 -40 l-13 -5 -27 25 c-15 14 -27 31 -27 37 l0 13 -15 3 c-9 1 -19 0 -23 -4z"/>
<path d="M4221 6762 c1 -4 1 -19 0 -34 l-1 -28 -20 17 c-11 10 -20 24 -20 31 l0 13 -17 -3 -18 -3 -3 -23 -3 -22 13 5 14 6 27 -31 27 -30 0 -20 0 -20 -20 17 c-11 10 -20 24 -20 31 l0 13 -17 -3 -18 -3 -3 -23 -3 -22 13 5 14 6 27 -30 26 -30 2 -54 2 -55 13 2 c8 1 17 6 21 10 l8 7 0 135 c0 74 -2 134 -5 135 -3 0 -13 2 -22 4 l-17 3 0 -6z"/>
<path d="M1476 6178 c-9 -13 -20 -29 -25 -36 l-8 -13 -20 -1 -19 -2 0 -27 0 -28 7 5 7 4 15 -15 c9 -8 20 -15 25 -15 15 0 22 -27 22 -85 l0 -53 13 2 c6 1 17 5 23 9 l12 7 -1 49 0 49 26 26 c14 14 30 26 35 26 11 0 25 30 18 37 -2 3 -11 6 -20 7 -9 1 -25 12 -36 24 l-20 21 0 16 0 15 -19 0 -18 0 -17 -22z m4 -80 l-1 -43 -20 24 -20 24 18 18 c10 10 19 18 21 18 1 1 2 -18 2 -41z m66 23 l-6 -9 12 -6 13 -6 -13 -6 -12 -6 6 -10 7 -11 -13 5 -13 4 -1 27 -2 27 14 0 13 0 -5 -9z"/>
<path d="M5082 5741 l0 -68 23 5 23 4 -2 28 -2 28 13 -5 13 -5 -6 -9 -5 -9 10 0 11 0 0 -99 0 -99 18 3 c9 2 19 4 22 4 3 1 5 43 5 94 l-1 92 18 18 18 18 1 -28 c1 -15 1 -31 0 -35 l-1 -7 23 8 22 8 2 57 1 56 -6 1 c-4 0 -15 2 -25 4 l-17 3 5 -8 5 -8 -14 -15 c-8 -8 -13 -17 -10 -20 3 -2 -1 -7 -9 -10 l-14 -5 2 29 2 30 -21 -3 -21 -3 -3 -27 -3 -27 -19 16 -18 16 5 13 5 14 -8 1 c-5 0 -16 2 -25 4 l-17 3 0 -67z"/>
<path d="M2372 5735 l-52 -53 0 -15 0 -15 18 3 c9 2 21 4 25 4 l8 1 -5 9 -6 8 20 23 20 23 0 -116 0 -115 18 3 c9 2 20 4 23 4 l6 1 -1 109 -1 108 13 -5 c7 -2 11 -7 8 -9 -2 -3 3 -13 12 -24 l16 -19 18 0 c10 0 18 2 18 4 0 14 -14 36 -22 36 -5 0 -21 12 -36 27 l-27 27 3 12 2 12 -12 5 -13 4 -53 -52z"/>
<path d="M3393 5763 l-13 -5 0 -94 0 -94 -12 0 -11 0 6 -6 6 -6 -12 -13 c-7 -7 -23 -16 -35 -19 l-22 -7 0 -20 0 -20 23 3 22 3 0 11 c0 6 8 18 18 28 l17 17 0 -29 0 -30 13 -5 14 -5 13 8 13 8 -6 15 -6 15 6 6 6 6 14 -11 13 -11 0 -18 0 -18 18 3 c9 2 20 4 24 4 l7 1 -7 21 c-5 11 -11 20 -15 20 -4 -1 -19 10 -34 23 l-26 25 0 90 0 91 -11 9 -11 8 -12 -4z"/>
<path d="M4164 5719 l0 -27 13 5 13 5 6 -16 6 -16 13 0 13 0 6 -16 c3 -9 6 -55 6 -104 l0 -88 13 -5 14 -5 9 6 10 7 -1 90 -1 90 28 28 c15 15 28 24 28 20 0 -4 5 -2 12 5 13 13 20 42 10 43 -4 0 -15 2 -25 4 l-17 3 5 -8 5 -7 -24 -27 -23 -27 2 30 2 31 -24 0 -23 0 0 -32 -1 -33 -19 24 -20 23 5 8 5 8 -23 4 -23 5 0 -28z"/>
<path d="M1401 5540 l0 -148 17 3 c9 2 21 4 25 4 l8 1 -3 13 -3 13 28 27 c15 16 27 25 27 21 0 -3 7 -1 15 6 8 7 15 19 15 26 l0 14 -19 0 c-11 0 -22 4 -25 8 l-5 8 10 14 9 15 0 -9 0 -8 15 12 c8 7 15 19 15 26 l0 14 -18 0 -19 0 -20 23 c-11 12 -25 31 -31 41 l-10 19 -15 3 -16 2 0 -148z m73 53 l7 -16 -13 -8 -13 -8 -8 15 -8 14 6 10 c9 15 22 12 29 -7z m1 -83 l6 -10 -20 -21 -20 -22 4 29 c2 16 4 30 4 32 2 6 21 1 26 -8z"/>
<path d="M5081 5221 l0 -148 24 5 25 4 -5 8 -5 8 28 31 27 31 30 -20 c17 -11 26 -20 22 -20 l-8 0 15 -16 16 -16 -5 -9 -6 -9 23 9 23 8 3 17 3 16 -10 0 c-19 0 -25 4 -54 32 l-29 27 7 10 6 11 -18 0 -19 0 -16 -19 -16 -19 5 -6 6 -6 -11 0 c-14 0 -13 -4 -15 81 l-2 66 12 -4 13 -5 -6 -9 -5 -9 10 0 11 0 0 -19 0 -19 18 3 c9 2 21 4 25 4 l8 1 -6 10 -7 11 24 25 c13 14 33 29 46 34 l22 10 0 15 c0 8 -3 15 -7 16 -5 0 -16 2 -26 4 l-17 3 5 -8 5 -8 -16 -16 c-8 -9 -12 -16 -8 -16 4 0 -5 -9 -19 -21 l-27 -20 -27 27 -28 28 3 13 3 13 -8 1 c-4 0 -16 2 -25 4 l-17 3 0 -147z"/>
<path d="M1476 5098 c-9 -13 -20 -29 -25 -36 l-8 -13 -20 -1 -19 -2 0 -27 0 -28 6 4 c3 2 12 -1 20 -6 l15 -9 -15 -9 c-8 -5 -17 -8 -20 -6 l-6 4 0 -29 0 -29 7 5 7 4 15 -15 c9 -8 21 -15 27 -15 l11 0 5 -29 6 -29 12 2 c6 1 16 5 22 8 l11 7 0 136 0 135 -17 0 -17 0 -17 -22z m-7 -89 l-13 -8 -8 12 -7 11 17 17 17 16 3 -20 4 -20 -13 -8z m9 -85 l2 -29 -20 24 -20 23 6 10 6 9 11 -4 12 -4 3 -29z"/>
<path d="M323 4370 l1 -15 3070 2 c1689 0 3079 2 3089 2 l19 1 -4 12 -4 12 -3086 0 -3086 1 1 -15z"/>
<path d="M5981 3820 l0 -148 20 5 21 6 8 21 c4 11 17 29 29 38 l20 17 15 -14 c8 -8 20 -15 27 -15 l12 0 -6 -6 -5 -6 20 -24 21 -24 11 9 11 9 -2 129 c-1 70 -2 131 -2 134 -1 4 -10 9 -21 12 l-20 5 0 -19 0 -19 -12 0 -11 0 6 -6 6 -6 -12 -12 c-7 -7 -19 -15 -28 -18 l-17 -6 -21 24 c-11 13 -21 30 -21 38 l0 14 -24 4 -25 5 0 -147z m159 -1 l0 -80 -13 13 c-7 7 -18 22 -24 32 l-11 19 -16 3 -15 2 1 -6 c1 -4 -2 -17 -6 -30 l-8 -23 -11 4 -10 3 -1 67 c-1 37 1 67 3 67 2 0 12 -10 22 -21 l19 -22 -5 -7 -5 -8 15 2 c16 2 30 14 30 25 0 6 27 40 33 41 1 0 2 -36 2 -81z"/>
<path d="M461 3800 l0 -148 12 2 c7 1 17 5 24 9 l11 7 -5 20 -5 20 18 0 17 0 -6 -6 -5 -6 20 -24 21 -24 13 11 13 10 -6 15 -5 14 -13 0 -12 0 -26 31 -26 32 2 41 2 42 28 27 c15 16 27 25 27 21 0 -3 6 -1 14 6 l15 11 -5 14 c-3 7 -14 15 -25 18 l-19 5 0 -19 0 -19 -11 0 -10 0 5 -9 6 -9 -16 -6 -16 -6 5 19 5 19 -8 13 c-5 7 -15 14 -24 15 l-15 2 0 -148z"/>
<path d="M1453 3939 c-7 -7 -13 -21 -13 -32 l0 -18 10 6 11 7 31 -31 32 -31 -11 -11 -12 -12 -17 17 c-21 22 -29 14 -14 -14 l12 -23 -12 -7 -13 -8 8 -11 7 -12 14 12 15 12 11 -11 10 -10 -18 -25 c-10 -13 -28 -28 -39 -33 l-20 -9 -3 -21 -3 -21 26 5 26 5 -5 12 -4 13 28 27 c15 15 31 27 34 26 3 -1 10 -1 15 -1 l9 0 -2 13 c-1 6 -5 18 -9 25 l-8 12 -10 -5 -9 -6 0 10 c0 6 0 14 0 19 0 4 5 8 10 8 6 1 14 2 19 3 l9 1 -2 15 c-1 8 -8 21 -14 27 l-12 12 0 -8 c0 -10 -50 43 -65 68 l-10 17 -12 -12z"/>
<path d="M3380 3810 l0 -138 13 -10 13 -11 10 7 11 7 -1 66 -1 66 12 -4 13 -5 -6 -9 -5 -9 10 0 11 0 0 -59 0 -59 20 5 c11 3 20 9 21 14 0 5 1 66 2 137 l1 127 -20 0 -19 0 -3 -67 -3 -67 -17 15 -17 14 1 54 2 54 -24 5 -24 4 0 -137z"/>
<path d="M5227 3933 l-7 -6 0 -138 0 -137 18 3 c9 2 21 4 25 4 l8 1 -5 9 -6 8 25 29 c14 16 29 30 35 30 5 1 14 2 19 3 l9 1 -2 15 c-1 8 -8 21 -14 27 l-12 12 0 -7 c0 -5 -12 4 -27 19 l-27 27 1 54 1 53 -17 0 c-10 0 -21 -3 -24 -7z m58 -153 l-5 -8 12 -6 13 -6 -13 -6 -12 -6 6 -9 5 -9 -10 0 c-6 0 -11 3 -12 8 0 4 -2 19 -3 33 l-2 27 13 -5 13 -5 -5 -8z"/>
<path d="M2420 3873 l0 -55 -31 -29 -31 -29 -8 5 -8 5 0 -68 0 -69 23 5 22 4 -1 50 -1 51 25 27 c14 14 32 29 41 32 l17 6 0 56 0 56 -7 1 c-3 0 -14 2 -23 4 l-18 3 0 -55z"/>
<path d="M4267 3914 c-4 -4 -7 -15 -7 -25 l0 -18 14 5 14 5 26 -26 26 -26 1 -92 c1 -51 1 -95 0 -99 l0 -6 17 3 c9 2 20 4 23 4 l7 1 -2 96 -1 95 27 25 c16 13 30 24 33 24 3 0 9 0 13 0 4 0 8 9 9 20 l2 20 -18 0 -18 0 -24 -35 c-13 -19 -30 -37 -37 -40 l-13 -5 -27 25 c-15 14 -27 31 -27 37 l0 13 -15 3 c-9 1 -19 0 -23 -4z"/>
<path d="M1523 3460 c1 -5 -7 -22 -17 -38 l-19 -28 -21 -10 -21 -9 -3 -22 -3 -23 14 6 15 5 7 -11 7 -12 -21 -14 -21 -15 0 -20 0 -20 11 7 11 6 34 -36 35 -37 -6 -9 -5 -8 17 3 c10 2 21 4 25 4 10 1 3 30 -10 43 l-12 12 0 -8 c0 -5 -14 6 -31 23 l-31 33 12 11 11 12 13 -17 12 -17 14 9 13 8 -17 18 -18 18 18 13 18 13 -6 6 -6 6 -22 -12 -23 -12 -8 13 -8 14 26 27 c14 15 29 27 32 26 3 0 11 0 18 1 l11 1 -2 15 c-3 18 -13 28 -31 31 l-14 2 2 -8z"/>
<path d="M3380 3330 l0 -138 13 -10 13 -11 10 7 11 7 -1 106 -1 106 12 -4 13 -5 -6 -9 -5 -9 10 0 11 0 0 -99 0 -99 20 5 c11 3 20 8 21 12 0 3 1 46 2 95 l2 89 -15 5 c-8 3 -26 17 -40 31 l-25 25 3 12 2 12 -25 4 -25 5 0 -137z"/>
<path d="M2341 3341 l0 -108 25 5 24 4 -5 8 -5 7 20 23 19 22 3 -69 3 -68 20 0 20 0 1 98 2 97 -7 1 c-3 0 -14 2 -23 4 l-18 3 0 -15 c0 -8 -7 -21 -15 -29 l-15 -15 -1 13 c-1 7 -1 37 -1 66 l0 52 -7 1 c-3 0 -14 2 -23 4 l-17 3 0 -107z"/>
<path d="M484 3399 l0 -27 10 4 11 4 28 -25 27 -26 0 -44 0 -45 -27 -30 -27 -31 -11 5 -11 4 0 -27 0 -28 23 5 23 4 -6 10 -6 10 21 19 21 20 0 -34 0 -34 23 4 24 5 0 139 0 140 -21 -3 -21 -3 -5 -29 -5 -28 -18 20 -19 21 6 9 6 10 -23 4 -23 5 0 -28z"/>
<path d="M4341 3331 l-2 -95 -12 -8 -12 -8 10 0 c5 0 -7 -11 -28 -25 l-37 -26 0 -18 0 -19 18 3 c9 2 21 4 25 4 l8 1 -6 11 -7 10 29 27 28 27 18 -3 17 -4 -5 -9 -6 -9 17 0 17 0 -6 -6 -6 -6 15 -15 14 -15 -5 -8 -6 -9 22 4 c12 2 24 7 27 10 l6 6 -9 15 c-6 9 -14 16 -20 17 -5 1 -21 12 -34 25 l-24 24 0 93 0 93 -22 4 -23 5 -1 -96z"/>
<path d="M5981 3259 l0 -148 22 8 22 8 1 53 2 52 16 16 16 16 1 -69 c1 -39 1 -73 0 -77 -1 -8 26 -4 35 5 l7 7 1 88 1 88 28 27 c15 16 27 25 27 21 0 -3 6 -1 14 6 l15 11 -5 14 c-3 7 -14 15 -25 18 l-19 5 0 -19 0 -19 -11 0 -10 0 5 -9 6 -9 -16 -6 -16 -6 5 19 5 19 -8 13 c-5 7 -15 14 -22 15 l-15 2 -2 -52 c-1 -28 -4 -59 -7 -69 l-6 -18 -11 4 -12 4 2 60 1 61 -23 4 -24 5 0 -148z"/>
<path d="M5313 3383 l-13 -5 0 -54 0 -54 -11 0 -10 0 6 -10 6 -10 -10 0 c-5 0 -21 -11 -35 -24 l-26 -23 0 -15 0 -14 20 -1 c11 -1 27 -8 35 -16 l14 -15 -6 -6 -6 -6 11 0 12 0 0 -14 0 -14 13 -5 14 -5 9 6 10 7 -1 132 0 132 -10 9 -10 10 -12 -5z m-15 -201 l-3 -19 -17 17 -18 16 18 22 17 21 3 -19 c2 -11 2 -28 0 -38z"/>
<path d="M3411 3057 l-11 -11 0 -137 0 -137 18 3 c9 2 20 4 23 4 3 1 5 15 4 31 l-2 30 19 -19 c10 -11 18 -25 18 -31 l0 -10 24 0 23 0 -1 138 -1 137 -22 3 -23 3 0 -31 0 -31 -21 20 -21 19 6 10 6 10 -14 5 -14 5 -11 -11z m69 -157 l0 -61 -17 17 -18 18 0 62 0 63 17 -19 18 -19 0 -61z"/>
<path d="M2421 3022 c1 -4 1 -38 0 -75 l-1 -68 -12 13 c-7 8 -18 22 -24 33 l-10 18 -16 3 -17 2 0 -107 0 -108 24 5 23 4 0 57 c0 31 0 60 1 65 l1 9 20 -23 20 -23 -5 -7 -5 -8 17 3 c10 2 21 4 24 4 l6 1 0 100 c0 55 -3 100 -6 101 -3 0 -14 2 -23 4 l-17 3 0 -6z"/>
<path d="M1523 2982 c-10 -18 -22 -32 -26 -32 -5 0 -15 -7 -23 -15 l-15 -15 -27 27 -27 27 3 14 3 14 -23 -4 -23 -3 -3 -22 -3 -23 13 5 14 6 24 -21 c13 -11 20 -20 17 -20 -4 0 1 -9 10 -20 10 -11 23 -20 30 -20 l13 0 0 10 c0 11 55 72 64 71 3 -1 10 -1 15 -1 l9 0 -2 15 c-1 8 -7 20 -14 27 l-11 11 -18 -31z"/>
<path d="M513 2983 l-13 -5 0 -94 0 -94 -11 0 -10 0 6 -10 6 -10 -10 0 c-5 0 -21 -11 -35 -24 l-26 -23 0 -16 0 -15 18 3 c9 2 21 4 25 4 l8 1 -5 9 -6 8 20 23 20 23 0 -30 0 -31 13 -5 14 -5 9 6 10 7 -1 89 -1 90 24 28 c13 15 26 27 30 27 4 -1 13 -1 20 0 l13 1 -3 18 c-4 21 -17 32 -34 25 l-12 -4 -6 -25 -6 -24 -15 0 -14 0 4 19 4 20 -12 9 -12 9 -12 -4z"/>
<path d="M6000 2741 l0 -139 14 -5 15 -6 9 12 10 12 -2 98 -1 97 14 0 14 0 -6 -6 -6 -6 15 -15 14 -15 -5 -9 -6 -9 13 5 13 5 28 -25 27 -26 0 -58 0 -58 23 4 23 5 1 59 0 59 -16 0 -17 0 -28 29 -28 29 6 11 7 11 -16 0 -16 0 -24 25 -25 24 0 16 0 15 -25 0 -25 0 0 -139z"/>
<path d="M1440 2829 l0 -19 -11 0 -10 0 6 -10 6 -10 -10 0 c-5 0 -21 -11 -35 -24 l-26 -23 0 -15 0 -15 25 5 25 4 -5 8 -5 8 28 31 28 32 16 -6 17 -7 6 -19 c4 -10 11 -19 16 -19 l9 0 0 -19 0 -19 18 3 c9 2 20 4 24 4 10 1 3 30 -10 43 l-12 12 0 -7 c0 -5 -12 4 -27 20 l-28 27 3 13 3 13 -8 1 c-4 0 -16 2 -25 4 l-18 3 0 -19z"/>
<path d="M5221 2700 l0 -148 17 3 c9 2 20 4 24 4 l6 1 0 58 c0 31 0 61 1 65 l1 8 15 -15 15 -15 0 -54 0 -54 23 4 23 5 -1 55 0 56 -20 7 c-11 5 -29 18 -39 31 l-19 23 0 48 1 48 -12 7 c-6 4 -16 8 -23 9 l-12 2 0 -148z"/>
<path d="M4281 2641 l0 -148 23 4 23 5 -1 68 -1 67 12 -4 13 -5 -6 -9 -5 -9 10 0 11 0 0 -19 0 -19 18 3 c9 2 19 4 22 4 3 1 6 10 6 21 l0 20 -14 0 c-7 0 -25 12 -40 27 l-26 26 1 54 1 53 -7 1 c-3 0 -14 2 -23 4 l-17 3 0 -147z"/>
<path d="M6082 2660 l0 -67 22 4 21 4 0 59 0 59 -21 4 -22 4 0 -67z"/>
<path d="M4367 2693 c-4 -3 -7 -15 -7 -25 l0 -19 8 5 8 5 30 -20 c16 -10 25 -19 21 -19 l-8 0 15 -16 16 -16 -5 -9 -6 -9 23 9 23 8 3 17 3 16 -10 0 c-6 0 -13 0 -16 0 -3 0 -19 13 -36 29 l-31 30 7 10 6 11 -19 0 c-10 0 -22 -3 -25 -7z"/>
<path d="M3401 2460 l0 -149 22 8 22 8 -1 62 c0 33 1 61 3 61 3 0 11 -6 18 -14 l14 -13 2 -55 2 -55 22 5 21 4 1 99 0 99 -8 1 c-5 1 -13 2 -18 3 -11 1 -41 34 -57 61 l-10 18 -16 3 -17 2 0 -148z m65 56 l14 -15 0 -21 0 -21 -14 13 c-7 8 -17 24 -20 36 l-7 22 6 0 c4 0 13 -6 21 -14z"/>
<path d="M2400 2549 l0 -19 -11 0 -10 0 6 -10 6 -10 -11 0 c-6 0 -18 -7 -27 -15 l-15 -15 -7 4 -7 5 0 -28 0 -27 18 -1 c10 -1 25 -9 34 -17 l15 -16 -8 0 c-4 0 -1 -5 7 -11 l15 -11 -13 -5 -12 -5 6 -9 5 -9 -11 0 c-6 0 -18 -7 -27 -15 l-15 -15 -7 4 -7 5 0 -28 0 -29 15 3 c9 2 20 4 24 4 l8 1 -5 9 -6 9 29 32 28 33 19 -11 c10 -6 15 -12 11 -12 -4 0 4 -12 18 -26 l25 -25 -5 -9 -5 -8 19 5 20 5 6 15 c6 18 3 24 -19 27 -20 3 -56 41 -56 59 l0 13 25 22 c14 12 29 22 34 22 10 0 24 30 17 37 -2 3 -11 6 -20 7 -17 2 -43 29 -62 61 l-10 18 -17 3 -17 2 0 -19z m40 -39 l15 -10 -9 0 -9 0 22 -19 21 -19 -6 -16 -6 -16 -15 0 -14 0 5 -9 6 -9 -18 -4 -17 -4 -27 26 -28 27 27 31 c28 35 31 36 53 22z"/>
<path d="M1440 2469 l0 -19 -11 0 -10 0 6 -10 6 -10 -10 0 c-5 0 -21 -11 -35 -24 l-26 -23 0 -16 0 -16 14 5 14 5 8 -12 7 -13 -21 -14 -22 -14 0 -19 0 -18 13 5 13 5 24 -21 c13 -11 20 -20 17 -20 -4 0 1 -9 10 -20 10 -11 23 -20 30 -20 l13 0 0 10 c0 11 60 77 66 73 2 -2 8 -3 13 -3 l9 0 -2 13 c-1 6 -5 18 -9 25 l-8 12 -10 -5 -9 -6 0 20 0 21 8 -1 c4 -1 12 -1 19 0 l11 1 -2 15 c-1 8 -8 21 -14 27 l-12 12 0 -7 c0 -5 -12 4 -27 20 l-28 27 3 13 3 13 -8 1 c-4 0 -16 2 -25 4 l-18 3 0 -19z m42 -44 c7 -9 19 -23 27 -31 l14 -15 -11 -11 -10 -10 -11 6 -10 7 6 14 5 15 -8 1 c-5 0 -17 2 -26 4 l-18 3 0 -18 0 -18 -15 -5 -14 -6 -5 8 -5 8 26 31 c29 36 37 38 55 17z m-6 -76 l7 -11 -14 -9 -13 -8 -8 12 c-8 12 -1 27 12 27 5 0 12 -5 16 -11z m-32 -55 l5 -14 14 0 14 0 9 20 9 19 13 -8 13 -8 -7 -16 c-3 -9 -10 -17 -16 -17 -5 0 -16 -7 -24 -15 l-15 -14 -28 26 -29 27 5 12 5 13 13 -5 c7 -3 16 -12 19 -20z"/>
<path d="M424 2419 c0 -15 2 -28 5 -27 3 0 14 0 24 -1 l18 -1 -5 -8 -5 -8 20 -14 19 -14 0 -97 0 -96 24 4 23 5 -2 28 -2 28 13 -5 14 -5 7 -28 8 -27 23 8 22 8 0 16 0 15 -12 1 c-7 1 -16 1 -19 1 -4 -1 -17 10 -30 24 l-24 26 0 91 0 92 -20 0 -20 0 -3 -28 -3 -27 -12 13 c-7 7 -17 21 -23 32 l-10 18 -15 2 -15 3 0 -29z"/>
<path d="M6001 2200 l0 -148 17 3 c9 2 20 4 24 4 l6 1 -2 56 -1 55 7 12 8 12 10 -15 10 -15 0 -57 0 -56 13 2 c6 1 18 5 25 10 l13 8 -6 19 -6 19 13 0 13 0 17 -30 17 -30 14 6 15 5 0 55 0 56 -16 6 c-9 3 -26 15 -39 26 l-23 20 0 13 0 14 -17 6 c-10 4 -31 19 -46 35 l-28 29 6 9 6 10 -8 1 c-4 0 -16 2 -25 4 l-17 3 0 -148z m75 40 c4 -16 9 -29 13 -28 3 0 14 0 24 -1 l18 -1 -6 -10 -6 -10 14 0 15 0 6 -16 c3 -9 6 -25 6 -36 l0 -20 -15 12 c-8 7 -15 19 -15 27 l0 14 -17 6 c-10 4 -30 19 -45 34 l-28 28 6 16 c3 8 10 15 15 15 l10 0 5 -30z"/>
<path d="M4391 2257 l-11 -11 0 -42 c0 -23 -3 -49 -6 -58 l-6 -16 -15 0 -14 0 6 -10 6 -10 -18 -1 c-10 -1 -21 -1 -25 0 l-8 1 0 -18 c0 -10 5 -23 11 -29 l11 -11 14 5 14 5 0 18 0 18 15 12 15 12 0 -75 0 -75 18 3 c9 2 20 4 23 4 l7 1 -1 53 -1 54 27 27 c14 14 30 25 33 24 4 -2 10 7 15 18 l8 22 -25 5 -24 4 0 -18 0 -19 -11 0 -10 0 5 -9 6 -9 -13 -5 -12 -4 1 68 1 68 -12 5 -13 4 -11 -11z"/>
<path d="M5217 2236 c-9 -13 -23 -31 -33 -40 l-17 -17 -11 4 -12 5 0 -28 0 -28 15 3 c9 2 20 4 25 4 l8 1 -5 14 -6 14 20 18 19 17 0 -116 0 -115 18 3 c9 2 21 4 25 4 l8 1 -5 9 -6 8 25 29 c14 16 29 30 35 30 5 1 14 2 19 3 l9 1 -2 13 c-1 6 -5 17 -9 24 l-8 12 -14 -6 -15 -5 0 -14 0 -14 -11 0 -10 0 6 -10 6 -10 -10 0 -11 0 -1 13 c-1 6 -1 54 -1 105 l-1 92 -17 0 -18 0 -15 -24z"/>
<path d="M3441 2092 l-2 -57 -10 -3 -9 -4 6 -9 5 -9 -16 0 -16 0 5 -9 6 -9 -25 -6 -25 -6 0 -61 0 -60 23 3 22 3 1 51 2 51 22 25 22 26 19 -5 c11 -3 17 -8 14 -11 -2 -3 4 -11 15 -19 l20 -14 0 -48 0 -49 14 -11 14 -12 8 13 9 13 0 53 1 52 -8 0 c-4 0 -10 0 -13 0 -3 0 -17 11 -32 24 l-26 25 -1 52 -1 52 -21 7 -21 8 -2 -56z"/>
<path d="M2324 1979 l0 -28 6 4 c3 2 12 -1 20 -6 l15 -9 -15 -9 c-8 -5 -17 -8 -20 -6 l-6 4 0 -28 0 -27 18 -1 c17 -2 58 -33 42 -33 -4 0 8 -14 27 -30 l34 -31 -15 -9 -14 -9 -9 6 -9 5 4 -23 3 -24 22 -3 21 -3 4 22 3 23 18 -18 17 -18 -5 -8 -5 -8 19 5 20 5 6 15 c7 19 3 24 -22 27 -10 2 -17 6 -15 9 1 4 2 12 2 17 l0 10 14 0 14 0 6 16 c7 19 4 25 -18 28 -17 2 -43 29 -62 62 -6 10 -15 17 -19 16 -10 -5 -25 20 -19 30 3 4 14 8 25 8 l19 0 0 14 c0 15 -16 29 -37 32 l-13 2 0 -19 0 -19 -10 0 c-5 0 -13 0 -17 0 -5 0 -8 4 -8 9 0 13 -13 25 -28 27 l-13 2 0 -29z m76 -80 c0 -4 12 -15 28 -23 15 -8 23 -15 18 -16 l-9 0 22 -19 23 -20 -7 -10 c-10 -17 -19 -13 -30 10 -6 12 -13 21 -17 20 -5 0 -21 11 -37 26 l-29 27 5 12 5 13 14 -6 c8 -3 14 -9 14 -14z"/>
<path d="M1191 1857 l-11 -11 0 -137 0 -137 18 3 c9 2 21 4 25 4 l8 1 -3 13 -3 13 28 28 28 28 39 -41 c22 -23 44 -41 50 -41 l10 0 1 13 c4 56 3 267 -1 268 -3 0 -13 2 -22 4 l-18 3 0 -57 0 -57 -30 -29 -29 -28 -28 30 -28 30 1 51 1 51 -12 5 -13 4 -11 -11z m149 -179 l0 -42 -22 21 -22 22 19 21 c10 11 20 20 22 20 1 0 3 -19 3 -42z m-94 23 l-6 -9 12 -6 13 -6 -13 -6 -12 -6 5 -8 5 -8 -13 -5 -13 -5 2 27 c1 14 3 29 3 34 1 4 6 7 12 7 l10 0 -5 -9z"/>
<path d="M1521 1720 l0 -148 17 3 c9 2 20 4 23 4 3 1 5 24 4 52 l-2 50 27 31 27 31 19 -11 c10 -6 15 -12 10 -12 l-9 0 21 -18 21 -18 2 -56 2 -55 19 5 c10 2 19 7 19 11 4 22 4 271 -1 272 -3 0 -13 2 -22 4 l-17 3 1 -6 c1 -4 -1 -17 -6 -29 l-7 -23 -15 0 -15 0 6 -9 5 -9 -17 -4 -18 -3 -25 24 c-14 14 -25 28 -25 32 0 11 -14 23 -30 25 l-14 2 0 -148z m64 60 l-5 -8 12 -6 13 -6 -13 -6 -12 -6 6 -9 5 -9 -13 0 -14 0 0 34 0 34 13 -5 13 -5 -5 -8z m95 -21 l0 -40 -15 15 c-18 18 -19 38 -3 54 17 17 18 16 18 -29z"/>
<path d="M424 1819 c0 -15 2 -28 5 -27 3 0 14 0 24 -1 l18 -1 -5 -8 -5 -8 20 -14 19 -14 0 -42 c0 -23 -3 -49 -6 -58 l-6 -16 -15 0 -14 0 6 -10 6 -10 -18 -1 c-10 -1 -21 -1 -24 -1 -3 1 -5 -12 -5 -27 l0 -29 15 3 c9 2 19 4 24 4 4 1 7 9 7 20 l0 19 15 12 15 12 0 -34 0 -35 24 4 23 5 -2 28 -2 28 13 -5 14 -5 7 -28 8 -27 23 8 22 8 0 16 0 15 -10 0 c-5 0 -13 0 -16 -1 -3 -1 -18 11 -33 25 l-28 26 2 48 1 48 20 23 c10 12 29 27 42 32 l22 9 0 14 0 14 -14 5 -15 6 -23 -29 c-28 -36 -36 -37 -34 -7 l1 22 -20 0 -20 0 -3 -28 -3 -27 -12 13 c-7 7 -17 21 -23 32 l-10 18 -15 2 -15 3 0 -29z"/>
<path d="M6076 1598 c-9 -13 -20 -29 -25 -36 l-8 -13 -21 -2 -21 -1 0 -107 0 -107 17 3 c9 2 20 4 23 4 l7 1 -2 95 -1 95 18 15 17 15 0 -74 0 -74 13 2 c6 1 17 5 23 9 l11 7 -2 60 -2 60 12 0 13 0 6 -16 c3 -9 6 -53 6 -99 l0 -83 13 -10 13 -11 10 7 11 7 0 93 0 94 -15 6 c-26 10 -53 36 -63 60 l-9 22 -13 0 -14 0 -17 -22z"/>
<path d="M3132 1518 l-12 -12 0 -137 0 -137 18 3 c9 2 19 4 23 4 3 1 5 32 4 70 l-1 69 13 -5 14 -6 6 -27 5 -28 17 3 c9 2 20 4 24 4 l8 1 -5 9 -6 8 20 23 19 22 3 -69 3 -68 20 -3 21 -3 -2 133 c-2 159 0 145 -24 151 l-20 5 0 -59 0 -59 -11 0 -10 0 6 -10 6 -10 -11 0 c-6 0 -18 -7 -27 -16 l-16 -15 -27 26 -27 25 2 50 2 50 -12 10 -11 10 -12 -12z"/>
<path d="M3481 1381 l0 -148 23 4 23 5 -1 108 -1 107 12 -4 13 -5 -6 -9 -5 -9 10 0 11 0 0 -59 0 -59 18 3 c9 2 19 4 23 4 3 1 4 25 4 54 l-2 52 19 18 18 18 1 -108 c1 -59 1 -111 0 -115 l-1 -7 23 8 22 8 1 137 1 136 -6 1 c-3 0 -14 2 -24 4 l-17 3 5 -8 5 -8 -16 -16 c-8 -9 -12 -16 -8 -16 4 0 -5 -9 -19 -21 l-27 -20 -27 27 -28 28 3 13 3 13 -8 1 c-4 0 -16 2 -25 4 l-17 3 0 -147z"/>
<path d="M2372 1455 l-52 -53 0 -14 0 -14 21 -1 21 -2 19 -22 19 -22 0 -58 0 -57 18 3 c9 2 20 4 23 4 l6 1 -1 52 -1 51 26 29 27 28 16 0 c18 0 19 2 10 24 -3 9 -10 16 -16 16 -5 0 -21 12 -36 27 l-27 27 3 12 2 12 -12 5 -13 4 -53 -52z m86 -22 l13 -13 -8 0 c-4 0 -1 -5 7 -11 l15 -11 -13 -5 -12 -5 6 -9 5 -9 -15 0 -16 0 0 -9 c0 -5 -6 -11 -14 -14 l-14 -5 -26 27 -27 28 28 30 28 30 15 -5 c8 -3 21 -12 28 -19z"/>
<path d="M6076 1078 c-9 -13 -20 -29 -25 -36 l-8 -13 -21 -2 -21 -1 0 -107 0 -107 17 3 c9 2 20 4 24 4 l6 1 -2 56 -1 55 7 12 8 12 10 -15 c5 -8 10 -22 10 -32 l0 -16 17 2 17 3 10 18 c6 11 17 25 24 33 l12 13 0 -64 0 -65 13 -10 13 -11 10 7 11 7 0 93 0 94 -15 6 c-26 10 -53 36 -63 60 l-9 22 -13 0 -14 0 -17 -22z m48 -39 l-5 -9 14 0 15 0 6 -16 6 -16 -21 -19 -22 -19 9 0 c5 0 1 -5 -9 -11 l-18 -11 -30 32 -30 31 28 28 28 27 17 -4 18 -4 -6 -9z"/>
<path d="M3601 882 c1 -4 1 -30 0 -58 l-1 -51 -19 -22 -19 -22 -20 -2 -20 -1 0 -67 0 -67 12 2 c6 1 16 5 22 8 l11 7 -2 50 -2 51 27 25 27 26 16 -15 c9 -9 20 -16 25 -16 15 0 22 -27 22 -85 l0 -53 15 2 c8 1 18 6 22 10 l8 7 1 51 1 50 -16 6 c-9 3 -27 17 -41 31 l-25 26 1 53 1 52 -6 1 c-3 0 -14 2 -23 4 l-17 3 0 -6z"/>
<path d="M3220 813 l0 -55 -31 -29 -31 -29 -8 5 -8 5 0 -68 0 -69 23 5 22 4 -1 50 -1 51 17 19 17 19 3 -28 3 -28 20 0 20 0 -1 23 -1 22 14 0 14 0 -6 -10 -6 -10 10 0 11 0 0 -49 0 -49 14 -11 14 -12 8 13 9 13 0 53 1 52 -16 0 -16 0 -23 27 -23 26 0 54 0 53 -7 1 c-3 0 -14 2 -23 4 l-18 3 0 -55z"/>
<path d="M2256 819 l-5 -29 -17 0 -17 0 6 -7 7 -6 -23 -11 -22 -12 -3 -23 -4 -23 11 6 11 7 17 -10 c10 -6 14 -11 9 -11 l-9 0 22 -19 21 -19 -6 -16 -6 -16 -16 0 -15 0 6 -7 7 -6 -23 -11 -22 -12 -3 -21 -3 -21 21 5 22 6 5 16 c4 9 11 22 17 30 l11 14 5 -29 5 -29 20 0 20 0 -3 23 -3 22 17 0 17 0 -6 -6 -6 -6 15 -15 14 -15 -5 -7 -4 -8 22 4 23 5 1 19 2 19 -10 0 c-5 0 -11 0 -15 0 -3 -1 -18 13 -35 31 l-29 31 30 29 c16 16 36 29 43 29 l13 0 1 20 2 20 -10 0 c-5 0 -11 0 -14 0 -8 -1 -50 43 -62 65 l-11 18 -15 3 -15 2 -6 -29z m4 -80 l0 -40 -15 15 c-18 18 -19 38 -3 54 17 17 18 16 18 -29z m66 22 l-6 -9 12 -6 13 -6 -13 -6 -12 -6 5 -8 5 -8 -14 -5 -14 -6 0 35 0 34 15 0 14 0 -5 -9z"/>
<path d="M2580 831 l0 -16 -26 -28 -26 -28 -14 5 -14 5 0 -18 0 -18 40 -33 c22 -18 40 -35 40 -39 0 -3 -12 -19 -26 -34 l-26 -28 -14 5 -14 5 0 -18 0 -19 14 -11 13 -11 12 13 c6 8 9 16 6 19 -3 3 4 13 15 23 l20 18 0 -25 0 -26 13 -10 13 -11 10 7 11 7 -1 26 -2 27 13 -5 13 -5 -6 -9 -5 -9 10 0 11 0 0 -19 0 -19 19 5 20 5 5 14 6 15 -17 6 c-9 4 -30 19 -45 33 l-28 27 27 31 26 32 12 0 13 0 6 15 6 16 -18 6 c-9 4 -28 18 -42 32 l-25 25 3 12 2 12 -25 4 -25 5 0 -16z m58 -58 l13 -13 -8 0 c-4 0 -1 -5 7 -11 l15 -11 -13 -5 -12 -5 6 -9 5 -9 -12 0 c-6 0 -18 -8 -25 -17 l-14 -18 -31 34 -31 33 27 28 27 28 17 -6 c9 -3 22 -12 29 -19z"/>
<path d="M3602 660 l0 -68 17 3 c9 2 19 4 22 4 l6 1 0 60 c0 33 -3 60 -6 61 -3 0 -13 2 -22 4 l-17 3 0 -68z"/>
<path d="M6133 543 l-13 -5 0 -110 0 -109 -16 16 -16 16 0 55 0 54 -7 1 c-3 0 -13 2 -22 4 l-17 3 0 -69 0 -69 8 5 c5 3 15 2 24 -1 l16 -6 -5 -7 -4 -7 20 -14 c10 -8 19 -20 19 -27 l0 -13 23 0 23 0 -1 135 -1 135 -9 9 -10 9 -12 -5z"/>
</g>
</svg>