<svg baseProfile="full" height="44" version="1.1" viewBox="-1 -11 98 22" width="196" xmlns="http://www.w3.org/2000/svg" xmlns:ev="http://www.w3.org/2001/xml-events" xmlns:xlink="http://www.w3.org/1999/xlink"><defs /><defs><path d="M 1-4 3-2 3-5 5-5 5 1 3 1 3 0 0-3-2-1 1-1 1 3 5 3 5 5-1 5-1 1-5 1-5-1-4-1-1-4-1-5 1-5zM 3-9 5-9 5-7 3-7z" id="vIYWGX" transform="translate(0,0) skewX(-5)" /><path d="M-5 5-5 3 3 3 3-1 5-1 5 5zM-5-3-5-5 5-5 5-3zM-5 1-5-1 1-1 1 1z" id="yhCUyE" transform="translate(0,0) skewX(-5)" /><path d="M-5 5-5-1 1-1 1 5zM-5-3-5-5 5-5 5 1 3 1 3-3zM 9-3 7-3 7-7-1-7-1-9 9-9zM-3 1-3 3-1 3-1 1z" id="pdCuhV" transform="translate(0,0) skewX(-5)" /><path d="M-1 5-1-1 1-1 1 3 5 3 5 5zM 3 7 3 9 1 9 1 7z" id="EAUHD" transform="translate(0,0) skewX(-5)" /><path d="M 1 8 1 9-1 9-1 3 1 3 1 6 3 4 0 1-1 1-1-1 1-1 1 0 4 3 5 3 5 5 4 5z" id="EAVEK" transform="translate(0,0) skewX(-5)" /><path d="M 3-1 5-1 5 5-1 5-1-1 1-1 1 3 3 3zM 3 9 3 7 5 7 5 9zM-1 7 1 7 1 9-1 9z" id="EAURL" transform="translate(0,0) skewX(-5)" /><path d="M 1 0 4 3 5 3 5 5 3 5 3 4 0 1-1 1-1-2-3 0-3 5-5 5-5-1-4-1-1-4-1-5 5-5 5-3 4-3zM 1-3 1-2 2-3z" id="ULEXgg" transform="translate(0,0) skewX(-5)" /><path d="M 5 1-1 1-1-1 5-1zM-1 5-1 3 5 3 5 5zM-1 9-1 7 5 7 5 9z" id="EAVOG" transform="translate(0,0) skewX(-5)" /></defs><g fill="black" stroke="black" stroke-linejoin="round" stroke-width="0"><use x="6" xlink:href="#yhCUyE" y="0" /><use x="14" xlink:href="#EAUHD" y="0" /><use x="26" xlink:href="#pdCuhV" y="0" /><use x="38" xlink:href="#EAVEK" y="0" /><use x="50" xlink:href="#yhCUyE" y="0" /><use x="62" xlink:href="#vIYWGX" y="0" /><use x="70" xlink:href="#EAURL" y="0" /><use x="82" xlink:href="#ULEXgg" y="0" /><use x="90" xlink:href="#EAVOG" y="0" /></g></svg>