<svg baseProfile="full" height="44" version="1.1" viewBox="-1 -11 70 22" width="140" xmlns="http://www.w3.org/2000/svg" xmlns:ev="http://www.w3.org/2001/xml-events" xmlns:xlink="http://www.w3.org/1999/xlink"><defs /><defs><path d="M 8-1 9-1 9 1 7 1 7 0 4-3 0-3-3 0-3 1-5 1-5-1-4-1-1-4-1-5 5-5 5-4zM-1 5-1-1 5-1 5 5zM 3 3 3 1 1 1 1 3z" id="OEQYnB" transform="translate(0,0) skewX(-5)" /><path d="M 1 8 1 9-1 9-1 3 1 3 1 6 3 4 0 1-1 1-1-1 1-1 1 0 4 3 5 3 5 5 4 5z" id="EAVEK" transform="translate(0,0) skewX(-5)" /><path d="M-1 5-1-1 1-1 1 3 5 3 5 5zM 3 7 3 9 1 9 1 7z" id="EAUHD" transform="translate(0,0) skewX(-5)" /><path d="M-5-3-5-5-1-5-1-9 1-9 1-5 9-5 9-3 5-3 5 5 3 5 3 1 1 1 1 4 4 7 5 7 5 9 3 9 3 8 0 5-3 8-3 9-5 9-5 7-4 7-1 4-1 1-5 1-5-1-1-1-1-3zM 3-3 1-3 1-1 3-1z" id="SWIwdV" transform="translate(0,0) skewX(-5)" /><path d="M 5 1-1 1-1-1 5-1zM-1 5-1 3 5 3 5 5zM-1 9-1 7 5 7 5 9z" id="EAVOG" transform="translate(0,0) skewX(-5)" /><path d="M-5-3-5-5-1-5-1-7-5-7-5-9 5-9 5-7 1-7 1-5 5-5 5-3 1-3 1 0 4 3 5 3 5 5 3 5 3 4 0 1-3 4-3 5-5 5-5 3-4 3-1 0-1-3z" id="xpWUFe" transform="translate(0,0) skewX(-5)" /></defs><g fill="black" stroke="black" stroke-linejoin="round" stroke-width="0"><use x="6" xlink:href="#OEQYnB" y="0" /><use x="22" xlink:href="#xpWUFe" y="0" /><use x="30" xlink:href="#EAUHD" y="0" /><use x="42" xlink:href="#SWIwdV" y="0" /><use x="54" xlink:href="#EAVEK" y="0" /><use x="62" xlink:href="#EAVOG" y="0" /></g></svg>