<svg baseProfile="full" height="44" version="1.1" viewBox="-1 -11 146 22" width="292" xmlns="http://www.w3.org/2000/svg" xmlns:ev="http://www.w3.org/2001/xml-events" xmlns:xlink="http://www.w3.org/1999/xlink"><defs /><defs><path d="M 8 3 9 3 9 5-1 5-1 1-3 1-3 7 5 7 5 9-5 9-5-5 1-5 1 3 6 3 4 1 3 1 3-1 5-1 5 0zM-3-3-3-1-1-1-1-3z" id="zBEufr" transform="translate(0,0) skewX(-5)" /><path d="M 1 8 1 9-1 9-1 3 1 3 1 6 3 4 0 1-1 1-1-1 1-1 1 0 4 3 5 3 5 5 4 5z" id="EAVEK" transform="translate(0,0) skewX(-5)" /><path d="M-1 5-1-1 1-1 1 3 5 3 5 5zM 3 7 3 9 1 9 1 7z" id="EAUHD" transform="translate(0,0) skewX(-5)" /><path d="M 5 9 3 9 3 6 1 8 1 9-1 9-1 7 0 7 3 4 3 1-1 1-1-1 5-1z" id="EAUrK" transform="translate(0,0) skewX(-5)" /><path d="M 3 0 3-1 5-1 5 1 4 1 1 4 1 9-1 9-1-1 1-1 1 2zM 3 9 3 7 5 7 5 9z" id="EAVFP" transform="translate(0,0) skewX(-5)" /><path d="M 3-2 1 0 2 1 3 0zM-9-9-3-9-3-7-7-7-7-3-9-3zM-1 5-1 3 0 3 1 2 0 1-1 1-1-1 0-1 3-4 3-5 5-5 5 1 4 1 3 2 4 3 5 3 5 5 3 5 3 4 2 3 1 4 1 5zM-3 1-9 1-9-1-5-1-5-5-3-5z" id="QOIxiX" transform="translate(0,0) skewX(-5)" /><path d="M-3 5-5 5-5-1-4-1-1-4-1-5 1-5 1-3 0-3-3 0zM 1 1-1 1-1-1 1-1z" id="ULEtwW" transform="translate(0,0) skewX(-5)" /><path d="M 0 1-3 4-3 5-5 5-5 3-4 3-2 1-5 1-5-3-9-3-9-5-3-5-3-1-1-1-1-9 1-9 1-5 5-5 5-1 9-1 9 1 3 1 3-3 1-3 1 0 4 3 5 3 5 5 3 5 3 4z" id="QIEofC" transform="translate(0,0) skewX(-5)" /><path d="M-5 5-5 3-4 3-2 1-5 1-5-1-4-1-2-3-5-3-5-9-3-9-3-5 1-5 1-3 0-3-2-1 9-1 9 1 8 1 5 4 5 5zM 3 3 3 1 1 1 1 3zM 6 1 5 1 5 2zM-1 2-2 3-1 3z" id="THIVef" transform="translate(0,0) skewX(-5)" /><path d="M-9-9-3-9-3-6-1-8-1-9 1-9 1-7 0-7-2-5 1-5 1-3-5-3-5-6-7-4-7-3-9-3-9-5-8-5-6-7-9-7zM 0 5-1 5-1 3 1 3 1 4 3 6 3 4 0 1-1 1-1-1 1-1 1 0 4 3 5 3 5 9 3 9 3 8zM-7 4-7 5-9 5-9 3-8 3-5 0-5-1-3-1-3 1-4 1zM-9-1-7-1-7 1-9 1zM-5 5-5 3-3 3-3 5z" id="yxCVGC" transform="translate(0,0) skewX(-5)" /><path d="M 1 1-1 1-1-1 1-1z" id="EAtwW" transform="translate(0,0) skewX(-5)" /><path d="M 3-1 5-1 5 5-1 5-1-1 1-1 1 3 3 3zM 3 9 3 7 5 7 5 9zM-1 7 1 7 1 9-1 9z" id="EAURL" transform="translate(0,0) skewX(-5)" /><path d="M 5 1-1 1-1-1 5-1zM-1 5-1 3 5 3 5 5zM-1 9-1 7 5 7 5 9z" id="EAVOG" transform="translate(0,0) skewX(-5)" /></defs><g fill="black" stroke="black" stroke-linejoin="round" stroke-width="0"><use x="6" xlink:href="#zBEufr" y="0" /><use x="18" xlink:href="#EAUHD" y="0" /><use x="30" xlink:href="#THIVef" y="0" /><use x="42" xlink:href="#EAUrK" y="0" /><use x="50" xlink:href="#EAVEK" y="0" /><use x="66" xlink:href="#QIEofC" y="0" /><use x="78" xlink:href="#EAVFP" y="0" /><use x="94" xlink:href="#QOIxiX" y="0" /><use x="106" xlink:href="#ULEtwW" y="0" /><use x="118" xlink:href="#yxCVGC" y="0" /><use x="126" xlink:href="#EAtwW" y="0" /><use x="130" xlink:href="#EAURL" y="0" /><use x="138" xlink:href="#EAVOG" y="0" /></g></svg>