<svg baseProfile="full" height="84" version="1.1" viewBox="-1 -11 198 42" width="396" xmlns="http://www.w3.org/2000/svg" xmlns:ev="http://www.w3.org/2001/xml-events" xmlns:xlink="http://www.w3.org/1999/xlink"><defs /><defs><path d="M-1 5-1-1 3-1 3-3-5-3-5-5 5-5 5 1 1 1 1 3 5 3 5 5zM-5 5-5 3-3 3-3 5zM-1 7 1 7 1 9-1 9z" id="ybKVbR" transform="translate(0,0) skewX(-5)" /><path d="M-1 5-1-1 1-1 1 3 5 3 5 5zM 3 7 3 9 1 9 1 7z" id="EAUHD" transform="translate(0,0) skewX(-5)" /><path d="M 1 8 1 9-1 9-1 3 1 3 1 6 3 4 0 1-1 1-1-1 1-1 1 0 4 3 5 3 5 5 4 5z" id="EAVEK" transform="translate(0,0) skewX(-5)" /><path d="M 3-2 1 0 1 1-1 1-1 0-3-2-3 5-5 5-5-5-3-5-3-4 0-1 3-4 3-5 5-5 5 5 3 5zM-9-1-7-1-7 5-9 5zM 9-3 7-3 7-5 9-5zM 3-9 5-9 5-7 3-7zM-7-3-9-3-9-5-7-5zM 9-1 9 5 7 5 7-1zM-5-7-5-9-3-9-3-7z" id="PCIxFA" transform="translate(0,0) skewX(-5)" /><path d="M 5 1 4 1 3 2 4 3 5 3 5 5 3 5 3 4 2 3 1 4 1 5-1 5-1 3 0 3 1 2 0 1-1 1-1-1 5-1zM 5-5 5-3-1-3-1-5z" id="twWVNW" transform="translate(0,0) skewX(-5)" /><path d="M 3 0 3-1 5-1 5 1 4 1 3 2 4 3 5 3 5 5 3 5 3 4 2 3 1 4 1 5-1 5-1 3 0 3 1 2 0 1-1 1-1-1 1-1 1 0 2 1zM 3 9 3 7 5 7 5 9zM-1 7 1 7 1 9-1 9z" id="EAUsI" transform="translate(0,0) skewX(-5)" /><path d="M 5 1-1 1-1-1 5-1zM-1 5-1 3 5 3 5 5zM-1 9-1 7 5 7 5 9z" id="EAVOG" transform="translate(0,0) skewX(-5)" /><path d="M-1 5-1-1 1-1 1 0 4 3 5 3 5 5 4 5 1 8 1 9-1 9-1 7 0 7 3 4 1 2 1 5zM 3 9 3 7 5 7 5 9z" id="EBtXH" transform="translate(0,0) skewX(-5)" /><path d="M-1 5-1 3 1 3 1 5zM-5-3-5-5 5-5 5-3 1-3 1 0 4 3 5 3 5 5 3 5 3 4 0 1-3 4-3 5-5 5-5 3-4 3-1 0-1-3zM-5 1-5-1-3-1-3 1zM 5-1 5 1 3 1 3-1zM-1-9 1-9 1-7-1-7z" id="ybOUyq" transform="translate(0,0) skewX(-5)" /><path d="M-1 5-1 2-3 4-3 5-5 5-5 2-7 4-7 5-9 5-9 3-8 3-5 0-5-5 3-5 3-7-1-7-1-9 5-9 5-5 9-5 9 5 7 5 7-3 5-3 5 5 3 5 3 1 1 1 1 5zM-3-3-3 2-1 0-1-3zM 3-3 1-3 1-1 3-1z" id="UaSPLN" transform="translate(0,0) skewX(-5)" /><path d="M-5 5-5 3 3 3 3-1 5-1 5 5zM-1-5 1-5 1 1-3 1-3-1-1-1zM 3 7 3 9 1 9 1 7zM-3-3-5-3-5-5-3-5zM 5-3 3-3 3-5 5-5zM-1 7-1 9-3 9-3 7z" id="vFUufi" transform="translate(0,0) skewX(-5)" /><path d="M 3-2 1 0 1 1-1 1-1-1 0-1 3-4 3-5 5-5 5-2 7-4 7-5 9-5 9-3 8-3 5 0 5 5 3 5 3 2 1 4 1 5-5 5-5-3-9-3-9-5 1-5 1-3-3-3-3 3 0 3 3 0z" id="TQQTGS" transform="translate(0,0) skewX(-5)" /><path d="M-5-3-5-5-1-5-1-7-5-7-5-9 1-9 1-5 5-5 5 1 3 1 3-3 1-3 1 9-9 9-9-1-7-1-7 7-1 7-1 5-5 5-5-1-1-1-1-3zM-3 1-3 3-1 3-1 1z" id="yHMVbf" transform="translate(0,0) skewX(-5)" /><path d="M-9-9-7-9-7-5-5-5-5-9-3-9-3-5-1-5-1-9 1-9 1-1 3-1 3-5 5-5 5-1 7-1 7-5 9-5 9 1 5 1 5 3 9 3 9 5 3 5 3 1-1 1-1-3-3-3-3 5-9 5-9 3-5 3-5-3-9-3z" id="WUQVOT" transform="translate(0,0) skewX(-5)" /><path d="M 3 9 3 7 4 7 6 5 1 5 1 3 3 3 3-1 5-1 5 3 9 3 9 5 8 5 5 8 5 9zM-5 3-5-1-3-1-3 3-1 3-1 5-4 5-7 8-7 9-9 9-9 7-8 7-6 5-9 5-9 3zM-3-3-5-3-5-5-3-5zM 5-3 3-3 3-5 5-5zM-1 1-1-1 1-1 1 1z" id="pdSPvJ" transform="translate(0,0) skewX(-5)" /><path d="M-4 5-5 5-5 3-4 3-1 0-1-2-3 0-3 1-5 1-5-1-4-1-1-4-1-5 1-5 1 1 0 1-3 4 0 7 1 7 1 9-1 9-1 8z" id="UjWXSi" transform="translate(0,0) skewX(-5)" /><path d="M 1-4 3-2 3-5 5-5 5 1 3 1 3 0 1-2 1 5-1 5-1 4-4 1-5 1-5-1-4-1-1-4-1-5 1-5zM-3-3-5-3-5-5-3-5zM-1 2-1-2-3 0z" id="vIQWGl" transform="translate(0,0) skewX(-5)" /><path d="M 0 5-3 8-3 9-5 9-5 8-8 5-9 5-9 3-8 3-5 0-5-2-7 0-7 1-9 1-9-1-8-1-5-4-5-5-3-5-3-4-2-3-1-4-1-5 5-5 5-3 0-3-1-2 0-1 5-1 5 1 0 1-3 4-3 5-5 5-5 3-4 3-1 0-2-1-3 0-3 1-4 1-7 4-4 7-1 4-1 3 5 3 5 5z" id="wrWwOG" transform="translate(0,0) skewX(-5)" /><path d="M-1 9-1 7 5 7 5 9zM 0 1-5 1-5-1-2-1-4-3-5-3-5-5-3-5-3-4 0-1 3-1 3-5 5-5 5 5 3 5 3 4zM 3 2 3 1 2 1z" id="pPMVKA" transform="translate(0,0) skewX(-5)" /><path d="M-1 5-1-9 1-9 1 5z" id="txStwz" transform="translate(0,0) skewX(-5)" /><path d="M-9 5-9 3-1 3-1 1-5 1-5-5-3-5-3-1-1-1-1-5 1-5 1-1 7-1 7-5 9-5 9 1 1 1 1 5zM 3 3 5 3 5 5 3 5zM 5-3 3-3 3-5 5-5z" id="ZuWVJE" transform="translate(0,0) skewX(-5)" /></defs><g fill="black" stroke="black" stroke-linejoin="round" stroke-width="0"><use x="6" xlink:href="#pPMVKA" y="0" /><use x="18" xlink:href="#UjWXSi" y="0" /><use x="22" xlink:href="#EAUHD" y="0" /><use x="38" xlink:href="#TQQTGS" y="0" /><use x="54" xlink:href="#ybKVbR" y="0" /><use x="70" xlink:href="#yHMVbf" y="0" /><use x="78" xlink:href="#EAVEK" y="0" /><use x="86" xlink:href="#txStwz" y="0" /><use x="94" xlink:href="#vIQWGl" y="0" /><use x="102" xlink:href="#txStwz" y="0" /><use x="114" xlink:href="#PCIxFA" y="0" /><use x="126" xlink:href="#EAVEK" y="0" /><use x="138" xlink:href="#ybOUyq" y="0" /><use x="146" xlink:href="#twWVNW" y="0" /><use x="162" xlink:href="#WUQVOT" y="0" /><use x="174" xlink:href="#EAUsI" y="0" /><use x="182" xlink:href="#EAVOG" y="0" /><use x="190" xlink:href="#txStwz" y="0" /><use x="194" xlink:href="#txStwz" y="0" /><use x="6" xlink:href="#pPMVKA" y="20" /><use x="18" xlink:href="#UjWXSi" y="20" /><use x="22" xlink:href="#EAUHD" y="20" /><use x="38" xlink:href="#ZuWVJE" y="20" /><use x="50" xlink:href="#EBtXH" y="20" /><use x="66" xlink:href="#UaSPLN" y="20" /><use x="78" xlink:href="#EAVEK" y="20" /><use x="94" xlink:href="#pdSPvJ" y="20" /><use x="114" xlink:href="#wrWwOG" y="20" /><use x="126" xlink:href="#vFUufi" y="20" /><use x="134" xlink:href="#EAVOG" y="20" /></g></svg>